<svg id="Capa_1" enable-background="new 0 0 511.991 511.991" height="512" viewBox="0 0 511.991 511.991" width="512" xmlns="http://www.w3.org/2000/svg"><g><path d="m316.37 326.236c-6.608 21.24-50.448 59.3-91.84 66.426-5.378.926-10.845-1.139-14.385-5.292-12.242-14.362-18.046-38.494-14.755-68.664z" fill="#d1986f"/><path d="m119.606 291.011c-14.533 19.847-44.882 53.919-77.978 64.178-5.872 1.82-12.264-.568-15.331-5.897-12.939-22.489-18.797-59.215-18.797-79.959s5.858-57.47 18.798-79.959c3.066-5.329 9.458-7.717 15.331-5.897 33.096 10.259 63.444 44.331 77.978 64.178v43.356z" fill="#e0b799"/><path d="m396.408 191.93c-6.352-20.418-46.116-56.42-75.301-70.567-7.069-3.426-15.478-2.954-21.995 1.431-19.048 12.818-34.748 46.749-23.683 76.665z" fill="#d1986f"/><path d="m238.488 226.324c-6.352-20.418-46.116-56.42-75.301-70.567-7.068-3.426-15.478-2.954-21.995 1.431-19.048 12.818-34.748 46.749-23.683 76.665z" fill="#d1986f"/><path d="m68.206 269.333c0-46.843 147.89-94.531 278.7-94.531 38.884 0 105.912 11.57 148.219 60.478 15.152 17.516 11.487 44.299-7.742 57.208-35.82 24.047-97.865 53.468-171.379 53.468-86.031 0-247.798-29.78-247.798-76.623z" fill="#e0b799"/><path d="m119.606 291.011v-43.357c-7.253-9.904-18.445-23.351-31.951-35.613-2.415 1.505-4.731 3.027-6.944 4.565-23.001 15.987-34.663 33.727-34.663 52.726 0 21.304 14.681 39.367 44.529 54.583 12.197-11.502 22.307-23.724 29.029-32.904z" fill="#d1986f"/><path d="m68.206 269.333c0 35.086 90.755 60.599 172.464 71.195-55.561-27.774-74.26-106.993-64.271-141.587-62.763 18.218-108.193 44.432-108.193 70.392z" fill="#d1986f"/><path d="m68.206 269.333c0-2.614.485-5.23 1.378-7.841 143.098-7.229 343.843-35.289 430.165 17.489-2.871 5.244-7.013 9.914-12.365 13.507-35.82 24.047-97.865 53.468-171.378 53.468-86.033 0-247.8-29.78-247.8-76.623z" fill="#fbf1cf"/><path d="m68.206 269.333c0 35.086 90.755 60.599 172.463 71.195-33.842-16.917-54.005-52.92-62.343-86.302-37.951 2.691-74.955 5.559-108.743 7.266-.892 2.611-1.377 5.227-1.377 7.841z" fill="#f5e2a2"/><path d="m227.467 274.635c0-14.013 15.659-25.372 34.974-25.372 36.932 0 62.337 4.301 63.383 19.775.945 13.981-26.151 30.969-63.383 30.969-19.315 0-34.974-11.359-34.974-25.372z" fill="#d1986f"/><g><ellipse cx="398.234" cy="281.291" fill="#e7889d" rx="31.612" ry="25.174"/></g><path d="m500.797 230.374c-31.224-36.096-73.604-51.655-106.972-58.282-15.644-21.062-45.5-45.87-69.447-57.477-9.516-4.614-20.802-3.863-29.454 1.958-16.814 11.314-28.762 33.846-30.455 56.472-17.341 2.327-34.584 5.322-51.306 8.927-15.177-13.849-32.411-26.035-46.704-32.963-9.518-4.612-20.802-3.864-29.454 1.957-16.958 11.413-32.648 38.271-30.475 67.15-.431.23-.86.462-1.29.694-7.893-8.342-15.951-15.724-24.016-21.976-3.271-2.537-7.983-1.941-10.522 1.333-2.537 3.273-1.941 7.984 1.333 10.522 6.667 5.168 13.354 11.216 19.958 17.999-17.889 11.779-31.287 26.116-31.287 42.645 0 14.762 11.306 28.18 33.703 40.14-13.016 13.733-33.314 31.83-55.001 38.553-2.588.808-5.309-.214-6.608-2.474-12.278-21.337-17.8-57.415-17.8-76.219s5.522-54.883 17.799-76.22c1.3-2.261 4.017-3.274 6.611-2.473 1.319.409 2.665.87 4.001 1.372 3.882 1.457 8.202-.507 9.658-4.385s-.507-8.202-4.385-9.658c-1.611-.604-3.238-1.162-4.836-1.657-9.339-2.892-19.228.939-24.052 9.32-12.858 22.35-19.796 59.806-19.796 83.701 0 23.896 6.938 61.351 19.797 83.698 4.775 8.302 14.62 12.242 24.052 9.322 25.802-7.999 48.9-28.682 64.763-46.127 23.677 10.111 53.005 17.741 78.456 22.98.677 22.169 6.621 40.42 17.369 53.029 5.251 6.159 13.422 9.183 21.365 7.818 31.538-5.431 63.022-26.912 81.432-46.69 44.31.903 87.503-6.862 133.101-26.749 3.797-1.656 5.532-6.076 3.877-9.873-1.656-3.798-6.079-5.529-9.873-3.877-38.934 16.981-78.747 25.592-118.334 25.592-45.069 0-107.067-8.24-154.275-20.505-53.865-13.993-86.023-32.169-86.023-48.618 0-18.087 32.635-40.202 85.168-57.717 55.059-18.355 124.604-29.314 186.032-29.314 13.466 0 40.523 1.495 70.444 11.511 29.875 10 54.134 25.603 72.103 46.375 12.183 14.084 9.247 35.67-6.251 46.074-5.537 3.718-11.428 7.369-17.507 10.853-3.594 2.06-4.837 6.643-2.777 10.236 2.06 3.595 6.642 4.837 10.236 2.777 6.385-3.659 12.578-7.499 18.409-11.414 22.954-15.408 27.321-47.432 9.233-68.34zm-214.254 122.136c-16.676 14.596-40.299 28.803-63.286 32.76-2.722.469-5.553-.592-7.404-2.766-7.866-9.229-12.588-23.357-13.632-40.359 28.068 5.125 57.472 8.75 84.322 10.365zm-165.171-141.655c.669-20.235 11.714-39.172 24.007-47.444 4.237-2.851 9.808-3.196 14.536-.904 10.678 5.175 23.252 13.663 35.212 23.638-24.542 6.083-50.525 14.223-73.755 24.71zm158.328-39.685c2.267-18.808 12.913-34.962 23.598-42.153 4.236-2.851 9.807-3.198 14.536-.905 17.179 8.327 38.319 24.65 53.417 40.548-27.342-2.906-64.78-.463-91.551 2.51zm-17.259 70.593c-23.817 0-42.475 14.439-42.475 32.872s18.657 32.872 42.475 32.872c38.61 0 72.281-18.049 70.866-38.974-1.593-23.589-36.717-26.77-70.866-26.77zm0 50.744c-14.893 0-27.475-8.185-27.475-17.872s12.582-17.872 27.475-17.872c47.887 0 55.577 8.008 55.9 12.781.488 7.248-20.73 22.963-55.9 22.963zm146.716-48.372v12.923c0 4.142 3.357 7.5 7.5 7.5s7.5-3.358 7.5-7.5v-12.923c0-4.143-3.357-7.5-7.5-7.5s-7.5 3.357-7.5 7.5z"/></g></svg>