<?xml version="1.0" encoding="UTF-8"?>
<svg xmlns="http://www.w3.org/2000/svg" viewBox="0 0 64 64" width="512" height="512"><g id="Glyph"><path d="M32,31a5,5,0,1,0,5,5A5,5,0,0,0,32,31Zm1,8H31V37h2Z"/><path d="M27.178,26.41A3.955,3.955,0,0,0,28,24a4.112,4.112,0,0,0-.185-1.232,3.986,3.986,0,0,0-1.955-2.309.875.875,0,0,1-.083-.037A3.943,3.943,0,0,0,24,20a4,4,0,0,0-3.684,2.459,6.981,6.981,0,0,1,1.675,4.37A5.962,5.962,0,0,1,25,26,6.058,6.058,0,0,1,27.178,26.41ZM23,23h2v2H23Z"/><path d="M15.9,35.864a7.949,7.949,0,0,1,3.52-1.687,5.9,5.9,0,0,1-.364-1.46,6.993,6.993,0,0,1-3.744,1.269A6.9,6.9,0,0,1,15.9,35.864Z"/><path d="M12.745,40.26a4.878,4.878,0,0,0,.838-1.27c.014-.035.035-.085.041-.1a5.014,5.014,0,0,0-3.135-6.67A4.911,4.911,0,0,0,9,32a4.992,4.992,0,0,0-2.021,9.56,5.969,5.969,0,0,1,5.766-1.3ZM9,39H7V37H9Z"/><path d="M11,42a4,4,0,1,0,4,4A4,4,0,0,0,11,42Zm1,6H10V46h2Z"/><path d="M25.066,35.122a6.946,6.946,0,0,1,3.37-5.145,4.246,4.246,0,0,0-.238-.38,3.989,3.989,0,0,0-5.951-.5,3.978,3.978,0,0,0-.686,4.929A7.9,7.9,0,0,1,25.066,35.122Z"/><path d="M36.725,19.735A5.942,5.942,0,0,1,30,23.911V24a6.025,6.025,0,0,1-1.1,3.453c.1.085.181.185.274.275,0,0,13.386-9.579,19.95-8.719,3.006.393,6.489,1.752,10.872,4.247V21.474a20.521,20.521,0,0,0-23.275-1.739Z"/><path d="M35,27a4.031,4.031,0,0,0-2.927,1.279,3.978,3.978,0,0,0-.543.76c.158-.011.309-.039.47-.039a6.953,6.953,0,0,1,6.382,4.123A3.99,3.99,0,0,0,35,27Z"/><path d="M25.4,37.936c-.025-.028-.254-.256-.283-.285A5.924,5.924,0,0,0,21,36a6.015,6.015,0,0,0-5.513,3.619l-.042.1a6.2,6.2,0,0,0-.424,1.841A5.977,5.977,0,0,1,17,46c0,.146-.012.289-.022.433A5.985,5.985,0,0,0,27,42a5.673,5.673,0,0,0-.2-1.491A5.747,5.747,0,0,0,25.4,37.936ZM23,46H21V44h2Z"/><path d="M15,22a5,5,0,1,0,5,5A5,5,0,0,0,15,22Zm0,8H13V28h2Z"/><path d="M31,14a4,4,0,1,0,4,4A4,4,0,0,0,31,14Zm1,5H30V17h2Z"/></g></svg>
