<svg height="512pt" viewBox="0 -1 512.00098 512" width="512pt" xmlns="http://www.w3.org/2000/svg"><path d="m318.535156 495.636719c-49.425781 20.472656-106.09375-3-126.566406-52.425781 49.425781-20.472657 106.09375 3 126.566406 52.425781zm0 0" fill="#bde8ff"/><path d="m318.535156 282.546875c-49.425781-20.472656-106.09375 3-126.566406 52.425781 49.425781 20.472656 106.09375-3 126.566406-52.425781zm0 0" fill="#bde8ff"/><path d="m451.710938 389.089844c33.367187 12.714844 52.8125 44.871094 52.8125 44.871094h-22.433594c-12.339844 0-32.105469-2.902344-43.925782-6.445313l-50.980468-15.296875-29.914063-48.054688zm0 0" fill="#4e76e8"/><path d="m387.183594 365.964844 50.980468-15.296875c11.820313-3.542969 31.585938-6.445313 43.925782-6.445313h22.433594s-19.445313 32.15625-52.8125 44.867188h-94.441407zm0 0" fill="#6a90ff"/><path d="m111.90625 427.589844v28.179687c91.191406 33.242188 195.859375 18.726563 275.277344-43.550781v-22.96875zm0 0" fill="#6a90ff"/><path d="m387.183594 389.25v-23.285156c-79.417969-62.277344-184.085938-76.792969-275.277344-43.554688v105.179688c92.234375 18.265625 197.070312 4.976562 275.277344-38.339844zm0 0" fill="#86adff"/><path d="m88.632812 364.164062v61.214844h42.734376c31.703124 0 63.410156-12.097656 87.601562-36.289062zm0 0" fill="#4e76e8"/><path d="m131.367188 352.804688h-42.734376v36.285156h130.335938c-24.191406-24.1875-55.898438-36.285156-87.601562-36.285156zm0 0" fill="#6a90ff"/><path d="m7.480469 389.089844c30.570312 30.574218 66.320312 52.792968 104.425781 66.683594 5.148438-8.046876 9.375-16.730469 12.570312-25.898438zm0 0" fill="#a1cbff"/><g fill="#bde8ff"><path d="m111.90625 322.410156c-38.105469 13.890625-73.855469 36.109375-104.425781 66.679688 34.28125 20.226562 74.519531 33.765625 116.996093 40.785156 4.453126-12.773438 6.890626-26.492188 6.890626-40.785156 0-24.546875-7.144532-47.429688-19.460938-66.679688zm0 0"/><path d="m193.464844 227.976562c49.425781 20.472657 106.09375-3 126.566406-52.425781-49.425781-20.472656-106.09375 3-126.566406 52.425781zm0 0"/><path d="m193.464844 14.886719c49.425781-20.472657 106.09375 3 126.566406 52.425781-49.425781 20.472656-106.09375-3-126.566406-52.425781zm0 0"/></g><path d="m60.289062 121.433594c-33.367187 12.710937-52.808593 44.867187-52.808593 44.867187h22.433593c12.335938 0 32.101563-2.902343 43.921876-6.445312l50.984374-15.296875 29.910157-48.054688zm0 0" fill="#4e76e8"/><path d="m124.820312 98.304688-50.984374-15.296876c-11.820313-3.542968-31.585938-6.445312-43.921876-6.445312h-22.433593s19.441406 32.15625 52.808593 44.871094h94.441407zm0 0" fill="#6a90ff"/><path d="m400.09375 159.929688v28.183593c-91.1875 33.238281-195.859375 18.722657-275.273438-43.554687v-22.96875zm0 0" fill="#6a90ff"/><path d="m124.820312 121.589844v-23.285156c79.414063-62.277344 184.085938-76.792969 275.273438-43.554688v105.179688c-92.234375 18.265624-197.070312 4.976562-275.273438-38.339844zm0 0" fill="#86adff"/><path d="m423.367188 96.503906v61.214844h-42.730469c-31.707031 0-63.414063-12.097656-87.601563-36.285156zm0 0" fill="#4e76e8"/><path d="m380.636719 85.144531h42.730469v36.289063h-130.332032c24.1875-24.191406 55.894532-36.289063 87.601563-36.289063zm0 0" fill="#6a90ff"/><path d="m504.523438 121.433594c-30.570313 30.570312-66.324219 52.789062-104.429688 66.679687-5.144531-8.046875-9.375-16.730469-12.570312-25.898437zm0 0" fill="#a1cbff"/><path d="m400.09375 54.75c38.105469 13.890625 73.859375 36.113281 104.429688 66.683594-34.285157 20.222656-74.519532 33.761718-117 40.78125-4.453126-12.773438-6.886719-26.492188-6.886719-40.78125 0-24.550782 7.140625-47.433594 19.457031-66.683594zm0 0" fill="#bde8ff"/><path d="m510.921875 348.089844c1.394531-2.308594 1.441406-5.191406.113281-7.539063-1.324218-2.351562-3.8125-3.804687-6.511718-3.804687h-22.433594c-12.980469 0-33.644532 3.03125-46.074219 6.761718l-47.300781 14.1875c-24.578125-18.738281-52.027344-33.386718-81.082032-43.539062 7.4375-8.496094 13.410157-18.121094 17.8125-28.746094.757813-1.835937.757813-3.890625 0-5.726562-.757812-1.832032-2.214843-3.285156-4.046874-4.046875-19.816407-8.207031-41.324219-10.125-62.199219-5.546875-19.332031 4.242187-36.847657 13.734375-50.871094 27.511718-77.875.523438-151.011719 31.078126-206.136719 86.203126-1.402344 1.402343-2.191406 3.304687-2.191406 5.285156 0 1.984375.789062 3.886718 2.191406 5.289062 55.125 55.125 128.261719 85.679688 206.136719 86.203125 14.023437 13.777344 31.539063 23.269531 50.871094 27.511719 7.398437 1.621094 14.875 2.429688 22.328125 2.429688 13.578125-.003907 27.078125-2.679688 39.871094-7.976563 3.8125-1.582031 5.625-5.957031 4.046874-9.773437-1.542968-3.71875-3.3125-7.382813-5.257812-10.875-3.5625-6.410157-7.773438-12.382813-12.566406-17.867188 29.058594-10.152344 56.511718-24.800781 81.09375-43.542969l47.300781 14.1875c12.429687 3.730469 33.09375 6.761719 46.070313 6.761719h22.4375c2.699218 0 5.1875-1.453125 6.511718-3.804688 1.328125-2.347656 1.285156-5.230468-.113281-7.542968-.726563-1.195313-15.664063-25.527344-42.046875-40.996094 26.382812-15.472656 41.320312-39.804688 42.046875-41.003906zm-299.289063 117.546875c-.046874 0-.09375.003906-.140624 0-.378907.003906-.753907.011719-1.128907.011719-30.148437 0-59.566406-4.757813-87.40625-13.890626 3.308594-6.085937 6.097657-12.410156 8.390625-18.902343 35.105469 0 68.09375-13.664063 92.90625-38.476563l5.289063-5.289062-5.289063-5.289063c-24.808594-24.8125-57.800781-38.476562-92.886718-38.476562-2.3125-6.492188-5.101563-12.816407-8.410157-18.902344 27.84375-9.128906 57.257813-13.890625 87.40625-13.890625.386719 0 .769531.007812 1.152344.011719h.113281c60.625.277343 120.113282 20.507812 168.074219 57.105469v38.878906c-47.960937 36.601562-107.449219 56.832031-168.070313 57.109375zm-73.019531-69.066407h59.953125c-18.363281 13.035157-40.050781 20.417969-62.894531 21.246094 1.554687-6.960937 2.535156-14.0625 2.941406-21.246094zm0-14.957031c-.40625-7.183593-1.386719-14.285156-2.941406-21.246093 22.84375.828124 44.53125 8.207031 62.894531 21.246093zm169.71875-94.839843c-4.304687 8.308593-9.828125 15.789062-16.492187 22.347656-19.839844-5.710938-40.300782-9.355469-61.003906-10.808594 22.535156-15.578125 50.941406-19.972656 77.496093-11.539062zm-199.660156 44.773437c9.960937 17.484375 15.214844 37.246094 15.214844 57.542969s-5.253907 40.0625-15.214844 57.542968c-33.238281-12.964843-63.917969-32.351562-90.476563-57.542968 26.5625-25.1875 57.238282-44.574219 90.476563-57.542969zm198.449219 157.617187c.410156.742188.8125 1.492188 1.207031 2.246094-26.550781 8.429688-54.957031 4.039063-77.488281-11.539062 20.699218-1.453125 41.15625-5.097656 60.992187-10.808594 6.027344 5.9375 11.160157 12.679688 15.289063 20.101562zm143.125-107.550781h-18.195313c-4.128906 0-7.476562 3.347657-7.476562 7.476563 0 4.132812 3.347656 7.480468 7.476562 7.480468h18.195313c17.761718 7.117188 31.332031 20.34375 39.410156 29.910157h-7.566406c-11.566406 0-30.699219-2.804688-41.773438-6.128907l-45.65625-13.695312v-10.085938h7.476563c4.132812 0 7.480469-3.347656 7.480469-7.480468 0-4.128906-3.347657-7.476563-7.480469-7.476563h-7.476563v-10.085937l45.65625-13.695313c11.074219-3.320312 30.203125-6.128906 41.773438-6.128906h7.566406c-8.078125 9.566406-21.648438 22.789063-39.410156 29.910156zm0 0"/><path d="m108.929688 381.613281c0-4.132812-3.347657-7.480469-7.476563-7.480469s-7.476563 3.347657-7.476563 7.480469c0 4.125-3.355468 7.476563-7.480468 7.476563-4.121094 0-7.476563-3.351563-7.476563-7.476563 0-4.132812-3.347656-7.480469-7.480469-7.480469-4.128906 0-7.476562 3.347657-7.476562 7.480469 0 12.367188 10.0625 22.433594 22.433594 22.433594s22.433594-10.0625 22.433594-22.433594zm0 0"/><path d="m1.078125 162.429688c-1.394531 2.308593-1.4375 5.191406-.113281 7.542968 1.324218 2.351563 3.816406 3.804688 6.515625 3.804688h22.433593c12.976563 0 33.644532-3.03125 46.070313-6.761719l47.300781-14.191406c24.578125 18.742187 52.03125 33.394531 81.09375 43.546875-4.792968 5.480468-9.003906 11.457031-12.566406 17.863281-1.949219 3.503906-3.714844 7.160156-5.253906 10.878906-1.582032 3.816407.230468 8.191407 4.046875 9.769531 12.792969 5.300782 26.289062 7.976563 39.867187 7.976563 7.453125 0 14.933594-.804687 22.332032-2.429687 19.328124-4.238282 36.847656-13.730469 50.867187-27.507813 77.875-.523437 151.011719-31.074219 206.136719-86.203125 1.402344-1.402344 2.191406-3.304688 2.191406-5.289062 0-1.984376-.789062-3.882813-2.191406-5.289063-55.125-55.121094-128.257813-85.675781-206.136719-86.203125-14.019531-13.777344-31.539063-23.265625-50.867187-27.507812-20.878907-4.578126-42.386719-2.660157-62.199219 5.546874-1.835938.757813-3.289063 2.214844-4.046875 4.046876-.761719 1.832031-.761719 3.890624 0 5.722656 4.402344 10.628906 10.375 20.253906 17.8125 28.746094-29.054688 10.152343-56.507813 24.800781-81.082032 43.542968l-47.304687-14.191406c-12.429687-3.726562-33.097656-6.757812-46.070313-6.757812h-22.433593c-2.699219 0-5.191407 1.453124-6.515625 3.804687-1.328125 2.347656-1.28125 5.230469.113281 7.542969.726563 1.195312 15.664063 25.527344 42.050781 40.996094-26.386718 15.472656-41.324218 39.804687-42.050781 41zm299.289063-117.542969c.046874 0 .09375-.003907.144531-.003907.375 0 .75-.011718 1.125-.011718 30.152343 0 59.566406 4.761718 87.40625 13.894531-3.304688 6.082031-6.097657 12.40625-8.390625 18.902344-35.105469 0-68.09375 13.664062-92.90625 38.476562l-5.289063 5.289063 5.289063 5.289062c24.8125 24.808594 57.800781 38.472656 92.886718 38.472656 2.3125 6.496094 5.101563 12.820313 8.410157 18.902344-27.839844 9.136719-57.257813 13.894532-87.40625 13.894532-.375 0-.753907-.007813-1.128907-.011719-.046874 0-.09375-.003907-.140624 0-60.625-.28125-120.109376-20.511719-168.070313-57.109375v-38.878906c47.964844-36.597657 107.449219-56.828126 168.070313-57.105469zm73.019531 69.066406h-59.953125c18.363281-13.039063 40.050781-20.417969 62.894531-21.246094-1.554687 6.960938-2.535156 14.0625-2.941406 21.246094zm0 14.957031c.40625 7.183594 1.390625 14.285156 2.941406 21.246094-22.84375-.828125-44.53125-8.207031-62.894531-21.246094zm-169.714844 94.839844c.394531-.753906.796875-1.503906 1.210937-2.246094 4.125-7.421875 9.261719-14.167968 15.285157-20.101562 19.835937 5.707031 40.296875 9.351562 60.996093 10.808594-22.53125 15.578124-50.9375 19.96875-77.492187 11.539062zm199.65625-44.773438c-9.960937-17.484374-15.214844-37.25-15.214844-57.542968 0-20.296875 5.253907-40.0625 15.214844-57.546875 33.238281 12.96875 63.917969 32.355469 90.476563 57.546875-26.558594 25.191406-57.238282 44.574218-90.476563 57.542968zm-199.660156-159.863281c26.554687-8.433593 54.960937-4.039062 77.496093 11.539063-20.703124 1.453125-41.164062 5.097656-61.003906 10.8125-6.664062-6.5625-12.1875-14.046875-16.492187-22.351563zm-141.914063 109.796875h18.195313c4.132812 0 7.480469-3.347656 7.480469-7.476562 0-4.132813-3.347657-7.480469-7.480469-7.480469h-18.195313c-17.761718-7.121094-31.332031-20.34375-39.410156-29.910156h7.570312c11.5625 0 30.695313 2.804687 41.773438 6.128906l45.652344 13.695313v10.085937h-7.476563c-4.128906 0-7.480469 3.347656-7.480469 7.476563 0 4.132812 3.351563 7.480468 7.480469 7.480468h7.476563v10.082032l-45.652344 13.695312c-11.078125 3.324219-30.207031 6.132812-41.773438 6.132812h-7.566406c8.074219-9.570312 21.644532-22.792968 39.40625-29.910156zm0 0"/><path d="m403.070312 113.953125c0 12.371094 10.0625 22.433594 22.433594 22.433594s22.433594-10.0625 22.433594-22.433594c0-4.128906-3.347656-7.476563-7.476562-7.476563-4.128907 0-7.480469 3.347657-7.480469 7.476563 0 4.125-3.351563 7.480469-7.476563 7.480469s-7.476562-3.355469-7.476562-7.480469c0-4.128906-3.351563-7.476563-7.480469-7.476563s-7.476563 3.347657-7.476563 7.476563zm0 0"/></svg>