<svg height="480pt" viewBox="0 -8 480 480" width="480pt" xmlns="http://www.w3.org/2000/svg"><g fill="#ecaf4a"><path d="m272 64h16v16c0 17.671875-14.328125 32-32 32h-16v-16c0-17.671875 14.328125-32 32-32zm0 0"/><path d="m240 96h-16c-17.671875 0-32-14.328125-32-32v-16h16c17.671875 0 32 14.328125 32 32zm0 0"/><path d="m272 112h16v16c0 17.671875-14.328125 32-32 32h-16v-16c0-17.671875 14.328125-32 32-32zm0 0"/><path d="m240 144h-16c-17.671875 0-32-14.328125-32-32v-16h16c17.671875 0 32 14.328125 32 32zm0 0"/><path d="m272 160h16v16c0 17.671875-14.328125 32-32 32h-16v-16c0-17.671875 14.328125-32 32-32zm0 0"/><path d="m240 192h-16c-17.671875 0-32-14.328125-32-32v-16h16c17.671875 0 32 14.328125 32 32zm0 0"/><path d="m136 64h16v16c0 17.671875-14.328125 32-32 32h-16v-16c0-17.671875 14.328125-32 32-32zm0 0"/><path d="m104 96h-16c-17.671875 0-32-14.328125-32-32v-16h16c17.671875 0 32 14.328125 32 32zm0 0"/><path d="m136 112h16v16c0 17.671875-14.328125 32-32 32h-16v-16c0-17.671875 14.328125-32 32-32zm0 0"/><path d="m104 144h-16c-17.671875 0-32-14.328125-32-32v-16h16c17.671875 0 32 14.328125 32 32zm0 0"/><path d="m136 160h16v16c0 17.671875-14.328125 32-32 32h-16v-16c0-17.671875 14.328125-32 32-32zm0 0"/><path d="m104 192h-16c-17.671875 0-32-14.328125-32-32v-16h16c17.671875 0 32 14.328125 32 32zm0 0"/><path d="m408 64h16v16c0 17.671875-14.328125 32-32 32h-16v-16c0-17.671875 14.328125-32 32-32zm0 0"/><path d="m376 96h-16c-17.671875 0-32-14.328125-32-32v-16h16c17.671875 0 32 14.328125 32 32zm0 0"/><path d="m408 112h16v16c0 17.671875-14.328125 32-32 32h-16v-16c0-17.671875 14.328125-32 32-32zm0 0"/><path d="m376 144h-16c-17.671875 0-32-14.328125-32-32v-16h16c17.671875 0 32 14.328125 32 32zm0 0"/><path d="m408 160h16v16c0 17.671875-14.328125 32-32 32h-16v-16c0-17.671875 14.328125-32 32-32zm0 0"/><path d="m376 192h-16c-17.671875 0-32-14.328125-32-32v-16h16c17.671875 0 32 14.328125 32 32zm0 0"/></g><path d="m328 280c0 17.671875-14.328125 32-32 32h-8v128c0 8.835938-7.164062 16-16 16h-184c-8.835938 0-16-7.164062-16-16v-128h-8c-17.671875 0-32-14.328125-32-32s14.328125-32 32-32h232c17.671875 0 32 14.328125 32 32zm0 0" fill="#d69f44"/><path d="m72 312h176v144h-160c-8.835938 0-16-7.164062-16-16zm0 0" fill="#d18b29"/><path d="m448 280c0 17.671875-14.328125 32-32 32h-8v128c0 8.835938-7.164062 16-16 16h-184c-8.835938 0-16-7.164062-16-16v-128h-8c-17.671875 0-32-14.328125-32-32s14.328125-32 32-32h232c17.671875 0 32 14.328125 32 32zm0 0" fill="#ecaf4a"/><path d="m416 440v-120c22.089844 0 40-17.910156 40-40s-17.910156-40-40-40h-32v-24h8c22.082031-.027344 39.972656-17.917969 40-40v-16c0-4.417969-3.582031-8-8-8h-.207031c5.292969-6.882812 8.175781-15.316406 8.207031-24v-16c0-4.417969-3.582031-8-8-8h-.207031c5.292969-6.882812 8.175781-15.316406 8.207031-24v-16c0-4.417969-3.582031-8-8-8h-8v-40h-16v40.800781c-5.820312 1.234375-11.289062 3.761719-16 7.398438v-64.199219h-16v48.207031c-4.710938-3.636719-10.179688-6.171875-16-7.40625v-24.800781h-16v24h-8c-4.417969 0-8 3.582031-8 8v16c.03125 8.683594 2.914062 17.117188 8.207031 24h-.207031c-4.417969 0-8 3.582031-8 8v16c.03125 8.683594 2.914062 17.117188 8.207031 24h-.207031c-4.417969 0-8 3.582031-8 8v16c.027344 22.082031 17.917969 39.972656 40 40h8v40h-120v-24h8c22.082031-.027344 39.972656-17.917969 40-40v-16c0-4.417969-3.582031-8-8-8h-.207031c5.292969-6.882812 8.175781-15.316406 8.207031-24v-16c0-4.417969-3.582031-8-8-8h-.207031c5.292969-6.882812 8.175781-15.316406 8.207031-24v-16c0-4.417969-3.582031-8-8-8h-8v-40h-16v40.800781c-5.820312 1.234375-11.289062 3.761719-16 7.398438v-64.199219h-16v48.207031c-4.710938-3.636719-10.179688-6.171875-16-7.40625v-24.800781h-16v24h-8c-4.417969 0-8 3.582031-8 8v16c.03125 8.683594 2.914062 17.117188 8.207031 24h-.207031c-4.417969 0-8 3.582031-8 8v16c.03125 8.683594 2.914062 17.117188 8.207031 24h-.207031c-4.417969 0-8 3.582031-8 8v16c.027344 22.082031 17.917969 39.972656 40 40h8v40h-120v-24h8c22.082031-.027344 39.972656-17.917969 40-40v-16c0-4.417969-3.582031-8-8-8h-.207031c5.292969-6.882812 8.175781-15.316406 8.207031-24v-16c0-4.417969-3.582031-8-8-8h-.207031c5.292969-6.882812 8.175781-15.316406 8.207031-24v-16c0-4.417969-3.582031-8-8-8h-8v-40h-16v40.800781c-5.820312 1.234375-11.289062 3.761719-16 7.398438v-64.199219h-16v48.207031c-4.710938-3.636719-10.179688-6.171875-16-7.40625v-24.800781h-16v24h-8c-4.417969 0-8 3.582031-8 8v16c.03125 8.683594 2.914062 17.117188 8.207031 24h-.207031c-4.417969 0-8 3.582031-8 8v16c.03125 8.683594 2.914062 17.117188 8.207031 24h-.207031c-4.417969 0-8 3.582031-8 8v16c.027344 22.082031 17.917969 39.972656 40 40h8v40h-32c-22.089844 0-40 17.910156-40 40s17.910156 40 40 40v120c.027344 2.730469.523438 5.4375 1.472656 8h-33.472656v16h448v-16h-65.472656c.949218-2.5625 1.445312-5.269531 1.472656-8zm0-264c0 13.253906-10.746094 24-24 24h-8v-8c0-13.253906 10.746094-24 24-24h8zm-32-24v-8c0-13.253906 10.746094-24 24-24h8v8c0 13.253906-10.746094 24-24 24zm-48-48h8c13.253906 0 24 10.746094 24 24v8h-8c-13.253906 0-24-10.746094-24-24zm72-32h8v8c0 13.253906-10.746094 24-24 24h-8v-8c0-13.253906 10.746094-24 24-24zm-72-16h8c13.253906 0 24 10.746094 24 24v8h-8c-13.253906 0-24-10.746094-24-24zm0 104v-8h8c13.253906 0 24 10.746094 24 24v8h-8c-13.253906 0-24-10.746094-24-24zm-56 16c0 13.253906-10.746094 24-24 24h-8v-8c0-13.253906 10.746094-24 24-24h8zm-32-24v-8c0-13.253906 10.746094-24 24-24h8v8c0 13.253906-10.746094 24-24 24zm-48-48h8c13.253906 0 24 10.746094 24 24v8h-8c-13.253906 0-24-10.746094-24-24zm72-32h8v8c0 13.253906-10.746094 24-24 24h-8v-8c0-13.253906 10.746094-24 24-24zm-72-16h8c13.253906 0 24 10.746094 24 24v8h-8c-13.253906 0-24-10.746094-24-24zm0 104v-8h8c13.253906 0 24 10.746094 24 24v8h-8c-13.253906 0-24-10.746094-24-24zm-56 16c0 13.253906-10.746094 24-24 24h-8v-8c0-13.253906 10.746094-24 24-24h8zm-32-24v-8c0-13.253906 10.746094-24 24-24h8v8c0 13.253906-10.746094 24-24 24zm-48-48h8c13.253906 0 24 10.746094 24 24v8h-8c-13.253906 0-24-10.746094-24-24zm72-32h8v8c0 13.253906-10.746094 24-24 24h-8v-8c0-13.253906 10.746094-24 24-24zm-72-16h8c13.253906 0 24 10.746094 24 24v8h-8c-13.253906 0-24-10.746094-24-24zm0 104v-8h8c13.253906 0 24 10.746094 24 24v8h-8c-13.253906 0-24-10.746094-24-24zm16 280v-120h48v-16h-64c-13.253906 0-24-10.746094-24-24s10.746094-24 24-24h88.207031c-5.292969 6.882812-8.175781 15.316406-8.207031 24 .027344 22.082031 17.917969 39.972656 40 40v120c.027344 2.730469.523438 5.4375 1.472656 8h-97.472656c-4.417969 0-8-3.582031-8-8zm128 8c-4.417969 0-8-3.582031-8-8v-128c0-4.417969-3.582031-8-8-8h-8c-13.253906 0-24-10.746094-24-24s10.746094-24 24-24h232c13.253906 0 24 10.746094 24 24s-10.746094 24-24 24h-8c-4.417969 0-8 3.582031-8 8v128c0 4.417969-3.582031 8-8 8zm0 0"/><path d="m224 296h16v16h-16zm0 0"/><path d="m352 408h16v16h-16zm0 0"/><path d="m304 328h16v16h-16zm0 0"/><path d="m352 272h16v16h-16zm0 0"/><path d="m248 400h16v16h-16zm0 0"/><path d="m0 448h16v16h-16zm0 0"/></svg>