<svg id="icon" height="512" viewBox="0 0 128 128" width="512" xmlns="http://www.w3.org/2000/svg"><path d="m75 3.537-4.952-2.537c-8.786 9.118-5.029 25.112-5.029 25.112h4.642c-3.384-18.212 5.339-22.575 5.339-22.575z" fill="#e1b378"/><path d="m69.661 27.112h-4.642a1 1 0 0 1 -.974-.771c-.158-.675-3.777-16.633 5.283-26.035a1 1 0 0 1 1.172-.196l4.954 2.537a1 1 0 0 1 0 1.782c-.1.05-7.992 4.384-4.811 21.5a1 1 0 0 1 -.984 1.182zm-3.822-2h2.633c-2.19-13.422 2.193-19.283 4.628-21.427l-2.831-1.449c-6.65 7.557-5.001 19.712-4.43 22.876z" fill="#2f3a5a"/><path d="m95.717 20.59a18.7 18.7 0 0 0 -8.9 1.167 53.653 53.653 0 0 1 -38.153 0 18.693 18.693 0 0 0 -8.9-1.167c-17.648 2.1-28.794 18.049-24.894 50.8s21.368 57.591 39.016 55.489a18.379 18.379 0 0 0 7.451-2.633 12.2 12.2 0 0 1 12.812 0 18.388 18.388 0 0 0 7.45 2.632c17.649 2.1 35.117-22.742 39.017-55.489s-7.251-48.698-24.899-50.799z" fill="#ef5361"/><path d="m120.611 71.384c-3.906 32.757-21.362 57.594-39.017 55.487a18.163 18.163 0 0 1 -7.443-2.629 12.259 12.259 0 0 0 -12.826 0 18.163 18.163 0 0 1 -7.443 2.629c-12.98 1.554-25.837-11.457-33.3-31.465 8.782 7.044 25.126-11.611 35.13-5.391 34.974 21.745 49.088-8.834 49.088-40.207a59.687 59.687 0 0 0 -7.366-28.959c16.656 2.922 26.96 18.87 23.177 50.535z" fill="#da2a47"/><path d="m51.771 128c-8.192 0-16.413-5.329-23.372-15.226-7.462-10.613-12.622-25.274-14.527-41.269-1.89-15.868-.383-28.48 4.48-37.484a26.888 26.888 0 0 1 21.289-14.421 19.722 19.722 0 0 1 9.374 1.224 52.89 52.89 0 0 0 37.446 0 19.742 19.742 0 0 1 9.374-1.224 26.889 26.889 0 0 1 21.289 14.424c4.862 9 6.369 21.616 4.48 37.484-1.906 16-7.065 30.656-14.528 41.27-7.592 10.8-16.694 16.155-25.6 15.094a19.426 19.426 0 0 1 -7.853-2.772 11.25 11.25 0 0 0 -11.77 0 19.425 19.425 0 0 1 -7.853 2.769 18.694 18.694 0 0 1 -2.229.131zm15.967-6.567a13.28 13.28 0 0 1 6.927 1.956 17.437 17.437 0 0 0 7.048 2.493c8.159.973 16.58-4.093 23.727-14.258 7.276-10.348 12.311-24.68 14.177-40.356 1.841-15.451.409-27.664-4.253-36.3a24.655 24.655 0 0 0 -19.764-13.385 17.691 17.691 0 0 0 -8.431 1.109 54.9 54.9 0 0 1 -38.86 0 17.7 17.7 0 0 0 -8.431-1.109 24.656 24.656 0 0 0 -19.767 13.388c-4.662 8.634-6.093 20.847-4.253 36.3 1.867 15.676 6.9 30.008 14.177 40.356 7.148 10.165 15.571 15.23 23.728 14.258a17.447 17.447 0 0 0 7.049-2.493 13.272 13.272 0 0 1 6.926-1.958z" fill="#2f3a5a"/><path d="m39.024 6.935c-7.548.575-15.126 3.172-20.663 8.334-5.16 4.811-8.228 11.527-9.8 18.4s-1.767 13.988-1.954 21.04c1.6-3.581 5.44-5.677 9.267-6.531s7.8-.724 11.688-1.248c7.3-.985 14.1-4.259 20.354-8.157 4.965-3.1 9.8-6.761 12.72-11.833 2.05-3.564 7.208-15.022 1.7-17.212-6.851-2.728-16.036-3.347-23.312-2.793z" fill="#65b54e"/><path d="m6.607 55.709a.971.971 0 0 1 -.22-.025 1 1 0 0 1 -.78-1c.186-7 .377-14.238 1.978-21.234 1.807-7.9 5.3-14.439 10.095-18.911 5.257-4.9 12.81-7.956 21.268-8.6 8.712-.664 17.592.406 23.762 2.861a4.558 4.558 0 0 1 2.7 2.87c1.926 5.528-3.849 15.668-3.908 15.77-3.211 5.582-8.665 9.443-13.058 12.183-7.677 4.787-14.271 7.424-20.75 8.3-1.585.214-3.194.322-4.75.426a45.856 45.856 0 0 0 -6.853.807c-4.173.931-7.3 3.1-8.571 5.962a1 1 0 0 1 -.913.591zm37.462-47.965c-1.647 0-3.31.062-4.968.188-8.008.61-15.131 3.475-20.058 8.068-4.5 4.2-7.791 10.386-9.509 17.9a91.436 91.436 0 0 0 -1.834 17.463 15.711 15.711 0 0 1 7.956-4.163 47.131 47.131 0 0 1 7.156-.85c1.523-.1 3.1-.208 4.616-.414 6.188-.835 12.53-3.381 19.959-8.013 4.2-2.616 9.393-6.286 12.382-11.483 2.087-3.629 4.954-10.671 3.753-14.115a2.6 2.6 0 0 0 -1.55-1.669c-4.74-1.884-11.188-2.912-17.903-2.912z" fill="#2f3a5a"/><path d="m64.321 11.647a150.258 150.258 0 0 0 -17.075 6.18c-10.028 4.32-21.874 10.784-27.853 19.006" fill="#65b54e"/><path d="m19.392 37.833a.988.988 0 0 1 -.587-.192 1 1 0 0 1 -.221-1.4c6.266-8.615 18.83-15.27 28.267-19.336a152.923 152.923 0 0 1 17.2-6.225 1 1 0 0 1 .537 1.927 150.67 150.67 0 0 0 -16.947 6.135c-9.206 3.97-21.441 10.43-27.441 18.679a1 1 0 0 1 -.808.412z" fill="#2f3a5a"/><path d="m55.716 14.477-1.332 6.372" fill="#65b54e"/><path d="m54.386 21.849a1.019 1.019 0 0 1 -.205-.021 1 1 0 0 1 -.775-1.183l1.331-6.373a1 1 0 1 1 1.957.409l-1.331 6.373a1 1 0 0 1 -.977.795z" fill="#2f3a5a"/><path d="m47.246 17.827-10.488-.164" fill="#65b54e"/><path d="m47.246 18.827h-.016l-10.488-.164a1 1 0 0 1 -.984-1.016.967.967 0 0 1 1.015-.984l10.489.164a1 1 0 0 1 -.016 2z" fill="#2f3a5a"/><path d="m35.704 23.514-2.863 7.835" fill="#65b54e"/><path d="m32.841 32.349a1 1 0 0 1 -.94-1.344l2.864-7.834a1 1 0 0 1 1.879.686l-2.864 7.835a1 1 0 0 1 -.939.657z" fill="#2f3a5a"/><path d="m27.865 28.588-5.73.933" fill="#65b54e"/><path d="m22.134 30.521a1 1 0 0 1 -.16-1.987l5.726-.934a.991.991 0 0 1 1.149.826 1 1 0 0 1 -.827 1.148l-5.73.933a1 1 0 0 1 -.158.014z" fill="#2f3a5a"/></svg>