<svg height="512" viewBox="0 0 64 64" width="512" xmlns="http://www.w3.org/2000/svg"><path d="m24 3h8a12 12 0 0 1 12 12v2a0 0 0 0 1 0 0h-8a12 12 0 0 1 -12-12v-2a0 0 0 0 1 0 0z" fill="#c4f236" transform="matrix(-1 0 0 -1 68 20)"/><path d="m40 6.07v.93a5 5 0 0 1 -5 5h-1a13.92 13.92 0 0 1 -9.55-3.78 12 12 0 0 0 11.55 8.78h8v-2a12 12 0 0 0 -4-8.93z" fill="#a1d51c"/><path d="m31 9a11 11 0 0 1 10.58 8 1 1 0 0 0 1 .73.84.84 0 0 0 .27 0 1 1 0 0 0 .69-1.23 13 13 0 0 0 -12.54-9.5 1 1 0 0 0 0 2z" fill="#7ab92d"/><path d="m55 10-13 12s-3 0-3-1 12-15 12-15z" fill="#c4f236"/><path d="m51.84 10.61a4.25 4.25 0 0 1 -5.43.82c-3.41 4.06-7.41 8.99-7.41 9.57 0 1 3 1 3 1l13-12-1.4-1.4z" fill="#a1d51c"/><path d="m40.83 52.87c7.94-7.94 10.77-21.15 5.33-29.44 1.59-1.93 1.78-4.47.33-5.92s-4-1.26-5.92.33c-8.29-5.44-21.5-2.61-29.44 5.33s-10.76 21.14-5.33 29.44c-1.58 1.92-1.8 4.46-.32 5.91s4 1.26 5.91-.32c8.3 5.43 21.51 2.6 29.44-5.33z" fill="#f9e109"/><path d="m46.5 24c-2.07 6.82-8.5 13.35-17.36 16.77-9.78 3.76-19.82 2.7-25.84-2-.75 5 0 10 2.5 13.85-1.58 1.91-1.8 4.45-.32 5.9s4 1.26 5.91-.32c8.3 5.43 21.51 2.6 29.44-5.33 7.76-7.76 10.62-20.55 5.67-28.87z" fill="#fcbc04"/><path d="m14 41a24.24 24.24 0 0 0 10.69 19.78 28.45 28.45 0 0 0 16.14-7.91 28.44 28.44 0 0 0 7-11.87z" fill="#fcbc04"/><path d="m28.48 41a32.13 32.13 0 0 1 -14.4 1.86 24.44 24.44 0 0 0 10.61 17.92 28.45 28.45 0 0 0 16.14-7.91 28.5 28.5 0 0 0 7-11.87z" fill="#e59730"/><circle cx="9" cy="43" fill="#e59730" r="1"/><circle cx="10" cy="36" fill="#fcbc04" r="1"/><circle cx="16" cy="36" fill="#fcbc04" r="1"/><path d="m31 9a11 11 0 0 1 6.63 2.24 5.06 5.06 0 0 0 1.46-1.38 12.93 12.93 0 0 0 -8.09-2.86 1 1 0 0 0 0 2z" fill="#a1d51c"/><path d="m60 41c0 11-9.85 20-22 20s-22-9-22-20z" fill="#f9e109"/><path d="m49.76 41c-1.59 6.78-11.17 12-22.76 12a36.49 36.49 0 0 1 -7.14-.69 22.64 22.64 0 0 0 18.14 8.69c12.15 0 22-9 22-20z" fill="#fcbc04"/><path d="m38 41h-18c0 3.8 2.24 7.87 5.67 11a18.81 18.81 0 0 0 12.33 5 18.81 18.81 0 0 0 12.33-5c3.43-3.13 5.67-7.2 5.67-11z" fill="#f9ed86"/><g fill="#f9e109"><path d="m45.28 47.47 5 4.49c3.48-3.09 5.72-7.16 5.72-10.96h-6.24a12 12 0 0 1 -4.48 6.47z"/><path d="m38 51.28a35 35 0 0 1 -11 1.72h-.08a18.48 18.48 0 0 0 11.08 4z"/><path d="m38 51.28v5.72a18.81 18.81 0 0 0 12.33-5l-5-4.49a23.41 23.41 0 0 1 -7.33 3.77z"/><path d="m36.49 41-11.49 10.21-.05.06c.24.23.46.47.71.69s.52.43.78.64l10.56-9.37v13.71c.33 0 .66.06 1 .06s.67 0 1-.06v-13.71l10.55 9.37c.26-.21.53-.42.78-.64s.47-.46.71-.69v-.06l-11.53-10.21h-3z"/></g><path d="m39 50.91c-.33.12-.66.26-1 .37l-1 .31v5.35c.33 0 .66.06 1 .06s.67 0 1-.06z" fill="#fcbc04"/><path d="m51 51.21-4.94-4.39c-.25.22-.5.44-.77.65s-.55.4-.83.6l5.1 4.53c.26-.21.53-.42.78-.64s.47-.46.71-.69z" fill="#fcbc04"/></svg>