<svg id="Layer_1_1_" enable-background="new 0 0 64 64" height="512" viewBox="0 0 64 64" width="512" xmlns="http://www.w3.org/2000/svg"><path d="m25 47s7 2 24-5 11-20 11-20c2.262 16.968-35 25-35 25z" fill="#efa500"/><path d="m60 22c-2-15-21.284-9.008-29.142 1.996l-5.858 23.004s37.262-8.032 35-25z" fill="#efbc4a"/><path d="m56.103 52.368-1.103-.368-.56-.28c-.891-.445-1.952-.379-2.78.173l-.862.574c-.424.283-1 .13-1.228-.326-.362-.724-1.023-1.255-1.809-1.451l-2.43-.608c-.22-.054-.446-.082-.673-.082h-2.658c-1.194 0-2.255.764-2.632 1.897-.22.659-.836 1.103-1.53 1.103h-2.388c-.298 0-.595.048-.878.142l-.135.045c-1.376.459-2.166 1.899-1.815 3.305l.378 1.508h25v-3c0-1.194-.764-2.255-1.897-2.632z" fill="#f8e5b4"/><path d="m30.858 23.996c-.357-2.671-1.228-5.248-2.855-7.393-2.623-3.458-6.818-5.603-11.17-5.603-5.739 0-10.823 3.805-12.91 9.076-2.599 6.568.823 12.728 3.658 18.6.809 1.675.679 3.997.435 5.798-.34 2.536-1.858 5.235-.654 7.754 1.068 2.235 3.716 3.381 6.08 2.694 11.24-3.264 15.932-13.23 17.362-24.102.291-2.204.359-4.548.054-6.824z" fill="#efa500"/><path d="m8 3h-3c0 4.418 3.582 8 8 8h3c0-4.418-3.582-8-8-8z" fill="#8bbf63"/><path d="m30.858 23.996c-.357-2.671-1.228-5.248-2.855-7.393-1.955-2.577-4.784-4.422-7.899-5.196 1.905.968 3.596 2.359 4.899 4.076 1.627 2.145 2.497 4.721 2.855 7.393.304 2.276.237 4.62-.053 6.823-1.43 10.872-6.122 20.839-17.362 24.102-.539.156-1.092.206-1.638.181 1.286 1.006 3.023 1.408 4.638.939 11.24-3.264 15.932-13.23 17.362-24.102.29-2.203.358-4.547.053-6.823z" fill="#e69e00"/><path d="m33 58h-5c0 2.209 1.791 4 4 4h26c2.209 0 4-1.791 4-4h-4z" fill="#7a3a1a"/><path d="m17.833 11.021-2-.041c.065-3.107 1.646-8.98 7.167-8.98v2c-4.964 0-5.161 6.734-5.167 7.021z" fill="#8bbf63"/><g fill="#fff"><path d="m43 52h1v2h-1z"/><path d="m47 53h1v2h-1z"/><path d="m53 54h1v2h-1z"/><path d="m37 55h1v2h-1z"/></g><path d="m54.816 23.223c-2.266.516-4.505 1.373-6.637 2.405-.07-.271-.142-.539-.199-.824-.332-1.661-.17-3.212.165-4.51 1.85-.678 3.829-1.152 5.886-1.267.539-.03.969-.455.969-.995v-.005c0-.563-.465-1.03-1.027-1-1.705.089-3.352.397-4.919.852.397-.794.739-1.268.748-1.281l-.802-.598.063.047c-.483-.362-1.17-.22-1.469.304-.332.583-.744 1.413-1.09 2.427-2.095.853-4.005 1.921-5.657 3.019.542-1.344 1.147-2.182 1.16-2.199l-.803-.598.063.047c-.483-.362-1.17-.22-1.469.304-.524.919-1.237 2.459-1.585 4.364-1.451 1.152-2.564 2.195-3.232 2.862-.404.404-.381 1.062.044 1.445l.004.004c.392.353.992.343 1.367-.028.386-.382.94-.906 1.63-1.507.027.555.082 1.121.199 1.706.226 1.133.554 2.154.922 3.081-2.356 1.793-4.161 3.412-5.112 4.303-.411.386-.418 1.034-.019 1.433l.003.003c.38.38.989.396 1.383.03.862-.802 2.494-2.256 4.61-3.887.629 1.182 1.276 2.101 1.753 2.702.373.47 1.068.512 1.493.087l.001-.001c.356-.356.397-.924.083-1.319-.448-.563-1.094-1.478-1.708-2.685 1.62-1.171 3.449-2.371 5.396-3.452.827 2.013 1.85 3.511 2.531 4.369.373.47 1.068.512 1.493.087l.001-.001c.356-.356.397-.924.083-1.319-.605-.762-1.571-2.168-2.33-4.076 2.073-1.026 4.245-1.874 6.422-2.374.528-.121.874-.62.778-1.153-.104-.552-.643-.927-1.192-.802zm-14.003 6.828c-.248-.692-.467-1.44-.628-2.248-.209-1.047-.218-2.048-.115-2.972 1.61-1.222 3.599-2.525 5.85-3.594-.169 1.206-.184 2.541.1 3.959.095.474.207.929.331 1.368-2 1.088-3.868 2.299-5.538 3.487z" fill="#dba11f"/></svg>