<svg height="512" viewBox="0 0 512 512" width="512" xmlns="http://www.w3.org/2000/svg"><g id="Filled_outline" data-name="Filled outline"><path d="m474.884 258.762a50.028 50.028 0 0 1 -1.891-65.189c25.568-31.206 4.764-79.286-34.65-80.081-24-.484-43.748-19.815-45.659-44.706-3.139-40.868-50.54-59.567-78.95-31.144a45.394 45.394 0 0 1 -62.681 1.966c-30.005-26.59-76.237-4.954-77 36.037-.466 24.965-19.053 45.5-42.986 47.486-39.3 3.264-57.277 52.561-29.947 82.108a50.028 50.028 0 0 1 1.891 65.189c-25.568 31.207-4.764 79.287 34.65 80.082 24.005.484 43.748 19.815 45.659 44.706 3.139 40.868 50.54 59.567 78.95 31.144a45.394 45.394 0 0 1 62.681-1.966c30.006 26.59 76.238 4.954 77-36.037.466-24.965 19.053-45.5 42.986-47.486 39.297-3.265 57.277-52.562 29.947-82.109z" fill="#4f657d"/><path d="m152 224v12.393a187.055 187.055 0 0 1 -103.4 167.307 44.5 44.5 0 0 0 -24.6 39.8 44.5 44.5 0 0 0 44.5 44.5h91.5c145.8 0 264-118.2 264-264a136 136 0 0 0 -136-136 136 136 0 0 0 -136 136z" fill="#d0d0d0"/><path d="m287.392 120c-57.387.331-103.392 47.756-103.392 105.144v11.25a218.9 218.9 0 0 1 -32.716 115.164l-.215.348a63.305 63.305 0 0 0 1.384 69.349l.949 1.377c41.951 60.941 133.782 2.282 170.647-34.583a230.481 230.481 0 0 0 67.951-164.049 104.117 104.117 0 0 0 -104.608-104z" fill="#dedede"/><g fill="#ebebeb"><path d="m259.008 407.151-7.863-13.933c4.49-2.534 9.094-5.377 13.683-8.449l8.9 13.294c-4.928 3.298-9.877 6.356-14.72 9.088z"/><path d="m286.316 389.06-9.708-12.719a194.586 194.586 0 0 0 19.157-16.577 192.5 192.5 0 0 0 35.105-47.983l14.224 7.328a204.347 204.347 0 0 1 -58.778 69.951z"/><path d="m252.511 170.991-9.022-13.215a79.506 79.506 0 0 1 17.793-9.111l5.436 15.049a63.407 63.407 0 0 0 -14.207 7.277z"/><path d="m224 225.145h-16a81.557 81.557 0 0 1 20.8-54.481l11.921 10.672a65.582 65.582 0 0 0 -16.721 43.809z"/></g><path d="m151.424 352a2.011 2.011 0 0 0 .057-.2l-15.481-4.045c.269-1.028 2.975-10.314 15.224-19.727 15.1-11.6 37.86-18.6 67.646-20.789 33.729-2.48 54.023-17.866 65.107-30.336 13.337-15 17.48-29.941 17.48-33.685h16c0 8.081-5.732 26.552-21.521 44.314-13.052 14.684-36.814 32.791-75.893 35.664-60.113 4.42-68.543 28.561-68.619 28.804z" fill="#d0d0d0"/><path d="m480.753 253.328a41.834 41.834 0 0 1 -1.574-54.687 56.73 56.73 0 0 0 13.051-36.321 59.1 59.1 0 0 0 -14.665-38.8 53.175 53.175 0 0 0 -39.065-18.028 37.687 37.687 0 0 1 -25.677-10.922 41.263 41.263 0 0 1 -12.166-26.393c-1.729-22.5-15.578-41.2-36.143-48.809a53.049 53.049 0 0 0 -56.444 12.618 37.6 37.6 0 0 1 -26.73 11.224 37.749 37.749 0 0 1 -24.986-9.588 52.722 52.722 0 0 0 -35.354-13.702 55.047 55.047 0 0 0 -37.754 15.38 56.674 56.674 0 0 0 -17.2 40.188 41.534 41.534 0 0 1 -10.62 27.137 37.979 37.979 0 0 1 -25.026 12.532 53.05 53.05 0 0 0 -33.075 15.023l11.175 11.449a37.234 37.234 0 0 1 23.22-10.529 53.923 53.923 0 0 0 35.572-17.736 57.521 57.521 0 0 0 14.756-37.579c.464-24.952 20.169-39.865 38.952-39.865a36.961 36.961 0 0 1 24.749 9.68 53.743 53.743 0 0 0 35.591 13.61 53.5 53.5 0 0 0 38.048-15.91c10.766-10.772 25.56-14.1 39.576-8.922 14.633 5.412 24.5 18.835 25.74 35.031a57.254 57.254 0 0 0 16.925 36.591 53.616 53.616 0 0 0 36.548 15.485c18.7.381 38.053 15.759 38.053 40.832a40.9 40.9 0 0 1 -9.43 26.183 57.9 57.9 0 0 0 2.2 75.688 40.6 40.6 0 0 1 11 27.971 43.056 43.056 0 0 1 -5.64 21.294l13.9 7.926a59.1 59.1 0 0 0 7.74-29.219 57.075 57.075 0 0 0 -15.247-38.832z"/><path d="m444.28 332.9a53.923 53.923 0 0 0 -35.572 17.736 57.521 57.521 0 0 0 -14.756 37.579c-.464 24.955-20.169 39.868-38.952 39.868a35.845 35.845 0 0 1 -12.6-2.293q5.064-4.588 9.933-9.454a270.219 270.219 0 0 0 79.667-192.336c0-79.4-64.6-144-144-144s-144 64.6-144 144v12.394a178.921 178.921 0 0 1 -26.742 94.134c-.757 1.226-1.547 2.428-2.333 3.633a42.135 42.135 0 0 1 -15.155-32.481 40.9 40.9 0 0 1 9.43-26.18 58.021 58.021 0 0 0 -2.2-75.688 40.6 40.6 0 0 1 -11-27.972 43.33 43.33 0 0 1 4.374-18.9l-14.374-7.018a59.4 59.4 0 0 0 -6 25.918 57.08 57.08 0 0 0 15.248 38.834 42.021 42.021 0 0 1 1.573 54.685 56.73 56.73 0 0 0 -13.051 36.321 58.316 58.316 0 0 0 21.811 45.508 178.9 178.9 0 0 1 -60.56 49.358 52.5 52.5 0 0 0 23.479 99.454h91.5a269.931 269.931 0 0 0 169.028-58.873 52.081 52.081 0 0 0 25.972 6.953 55.047 55.047 0 0 0 37.754-15.38 56.674 56.674 0 0 0 17.195-40.188 41.534 41.534 0 0 1 10.62-27.137 37.981 37.981 0 0 1 25.031-12.532 52.9 52.9 0 0 0 35.186-17.2l-11.786-10.818a37.146 37.146 0 0 1 -24.72 12.075zm-375.78 147.1a36.5 36.5 0 0 1 -16.323-69.144 194.907 194.907 0 0 0 78.693-71.916 194.925 194.925 0 0 0 29.13-102.546v-12.394a128 128 0 0 1 256 0 256 256 0 0 1 -256 256z"/><path d="m366.932 144.609a111.48 111.48 0 0 0 -169.724 14.391l13.013 9.309a95.812 95.812 0 0 1 173.779 55.691 222.533 222.533 0 0 1 -65.608 158.392c-14.752 14.753-35.235 29.893-54.791 40.5-24.634 13.361-47.276 19.536-65.468 17.879-16.181-1.48-28.657-8.9-38.142-22.675-.2-.294-.489-.718-.945-1.38a55.363 55.363 0 0 1 -1.184-60.584l.23-.371q2.333-3.772 4.5-7.625c6.388-7.479 23.192-20.087 64.994-23.16 39.08-2.874 62.841-20.981 75.893-35.665 15.79-17.759 21.521-36.23 21.521-44.311h-16c0 3.744-4.143 18.682-17.479 33.686-11.085 12.469-31.379 27.855-65.107 30.335-20.02 1.473-36.849 5.125-50.328 10.878a226.91 226.91 0 0 0 15.914-83.505v-11.249a98.038 98.038 0 0 1 11.072-45.212l-14.182-7.409a114.116 114.116 0 0 0 -12.89 52.621v11.249a210.88 210.88 0 0 1 -26.587 102.532 35.076 35.076 0 0 0 -5.413 9.224 71.354 71.354 0 0 0 1.868 77.639l.938 1.365.011.015c12.175 17.685 28.951 27.623 49.863 29.537q3.783.346 7.611.342c48.858 0 102.782-40.7 125.42-63.342a238.43 238.43 0 0 0 70.289-169.706 111.219 111.219 0 0 0 -33.068-79.391z"/><path d="m259.008 407.151c4.843-2.732 9.8-5.79 14.721-9.088l-8.9-13.294c-4.589 3.072-9.193 5.915-13.683 8.449z"/><path d="m276.608 376.341 9.708 12.719a204.347 204.347 0 0 0 58.778-69.951l-14.224-7.328a192.5 192.5 0 0 1 -35.105 47.983 194.586 194.586 0 0 1 -19.157 16.577z"/><path d="m261.282 148.665a79.506 79.506 0 0 0 -17.793 9.111l9.022 13.215a63.407 63.407 0 0 1 14.207-7.277z"/><path d="m228.8 170.664a81.557 81.557 0 0 0 -20.8 54.481h16a65.582 65.582 0 0 1 16.719-43.809z"/></g></svg>