<svg height="512" viewBox="0 0 42 58" width="512" xmlns="http://www.w3.org/2000/svg"><g id="Page-1" fill="none" fill-rule="evenodd"><g id="020---Overnight-Oats" fill-rule="nonzero" transform="translate(-1)"><path id="Shape" d="m43 30v22c0 3.3137085-2.6862915 6-6 6h-30c-3.3137085 0-6-2.6862915-6-6v-21c-.04189401-1.4649085.67319096-2.8482325 1.89256683-3.6611498 1.21937586-.8129172 2.77132305-.9409479 4.10743317-.3388502 0 0 3-5 9-2 0 0 1-4 6-4 .6194832-.0030721 1.23714.0674213 1.84.21 1.9674398.4230948 3.5559972 1.8703622 4.16 3.79 0 0 4-2 7 1 0 0 7-2 8 4z" fill="#f5efca"/><path id="Shape" d="m43 18v12c-1-6-8-4-8-4-3-3-7-1-7-1-.6040028-1.9196378-2.1925602-3.3669052-4.16-3.79-.60286-.1425787-1.2205168-.2130721-1.84-.21-5 0-6 4-6 4-6-3-9 2-9 2-1.33611012-.6020977-2.88805731-.474067-4.10743317.3388502-1.21937587.8129173-1.93446084 2.1962413-1.89256683 3.6611498v-13c0-3.3137085 2.6862915-6 6-6h30c3.3137085 0 6 2.6862915 6 6z" fill="#67b9cc"/><path id="Rectangle-path" d="m9 8h26v4h-26z" fill="#2980ba"/><path id="Shape" d="m9 0h26c1.1045695 0 2 .8954305 2 2v5c0 .55228475-.4477153 1-1 1h-28c-.55228475 0-1-.44771525-1-1v-5c0-1.1045695.8954305-2 2-2z" fill="#2c3e50"/><path id="Shape" d="m7 17h-1c-.55228475 0-1-.4477153-1-1s.44771525-1 1-1h1c.55228475 0 1 .4477153 1 1s-.44771525 1-1 1z" fill="#9fc9d3"/><path id="Shape" d="m18 17h-7c-.5522847 0-1-.4477153-1-1s.4477153-1 1-1h7c.5522847 0 1 .4477153 1 1s-.4477153 1-1 1z" fill="#9fc9d3"/><path id="Shape" d="m37 2v2h-30v-2c.0032948-1.10320187.89679813-1.9967052 2-2h26c1.1032019.0032948 1.9967052.89679813 2 2z" fill="#35495e"/><path id="Shape" d="m43 18v12c-1-6-8-4-8-4-3-3-7-1-7-1-.6040028-1.9196378-2.1925602-3.3669052-4.16-3.79 2.0894786-3.3798467 4.6069957-6.4754852 7.49-9.21h5.67c3.3137085 0 6 2.6862915 6 6z" fill="#2fa8cc"/><path id="Shape" d="m43 30v22c0 3.3137085-2.6862915 6-6 6h-24.47c1.83-16.94 6.2-28.67 11.31-36.79 1.9674398.4230948 3.5559972 1.8703622 4.16 3.79 0 0 4-2 7 1 0 0 7-2 8 4z" fill="#f9eab0"/><g fill="#fac176"><path id="Shape" d="m13 42c-.5522847 0-1-.4477153-1-1 .0258407-.2744776-.0729079-.5460566-.2690103-.7398336-.1961023-.193777-.4688399-.2892792-.7429897-.2601664-.5485429-.0136215-.9849872-.4643025-.981-1.013.0038438-.5458457.447141-.9864644.993-.987.8026156-.0234737 1.5793921.2850527 2.1471697.8528303s.876304 1.3445541.8528303 2.1471697c0 .5522847-.4477153 1-1 1z"/><path id="Shape" d="m34 36c-.5522847 0-1-.4477153-1-1-.0234737-.8026156.2850527-1.5793921.8528303-2.1471697s1.3445541-.876304 2.1471697-.8528303c.5522847-.0027614 1.0022386.4427153 1.005.995s-.4427153 1.0022386-.995 1.005c-.2739117-.0288437-.5463007.0668224-.742023.2606068-.1957222.1937844-.2940938.4652081-.267977.7393932 0 .5522847-.4477153 1-1 1z"/><path id="Shape" d="m10 52c-.55228475 0-1-.4477153-1-1 .02584069-.2744776-.07290793-.5460566-.26901029-.7398336-.19610235-.193777-.4688399-.2892792-.74298971-.2601664-.54854287-.0136215-.98498717-.4643025-.981-1.013.00384382-.5458457.44714105-.9864644.993-.987.80261558-.0234737 1.5793921.2850527 2.1471697.8528303s.876304 1.3445541.8528303 2.1471697c0 .2652165-.1053568.5195704-.2928932.7071068s-.4418903.2928932-.7071068.2928932z"/><path id="Shape" d="m17 34c-.5522847 0-1-.4477153-1-1 0-2.966 1.918-3 2-3 .515367.000453.9459866.3925055.9946526.9055698.0486661.5130643-.3005618.9790882-.8066526 1.0764302-.1569564.3149673-.2221065.667748-.188 1.018 0 .5522847-.4477153 1-1 1z"/><path id="Shape" d="m26 44c-.5522847 0-1-.4477153-1-1 .0258407-.2744776-.0729079-.5460566-.2690103-.7398336-.1961023-.193777-.4688399-.2892792-.7429897-.2601664-.5485429-.0136215-.9849872-.4643025-.981-1.013.0038438-.5458457.447141-.9864644.993-.987.8026156-.0234737 1.5793921.2850527 2.1471697.8528303s.876304 1.3445541.8528303 2.1471697c0 .2652165-.1053568.5195704-.2928932.7071068s-.4418903.2928932-.7071068.2928932z"/><path id="Shape" d="m26 54c-.548403.0000274-.994516-.4416245-1-.99.0288437-.2739117-.0668224-.5463007-.2606068-.742023-.1937844-.1957222-.4652081-.2940938-.7393932-.267977-.5522847 0-1-.4477153-1-1s.4477153-1 1-1c.8026156-.0234737 1.5793921.2850527 2.1471697.8528303s.876304 1.3445541.8528303 2.1471697c0 .5522847-.4477153 1-1 1z"/><path id="Shape" d="m35 49.993h-.013c-.5458457-.0038438-.9864644-.447141-.987-.993-.0234737-.8026156.2850527-1.5793921.8528303-2.1471697s1.3445541-.876304 2.1471697-.8528303c.5522847 0 1 .4477153 1 1s-.4477153 1-1 1c-.2745709-.0262187-.5463793.0724083-.7402467.2686021s-.2892453.4691593-.2597533.7433979c-.0135016.5434884-.4563526.9779252-1 .981z"/></g></g></g></svg>