<svg height="512" viewBox="0 0 128 128" width="512" xmlns="http://www.w3.org/2000/svg"><path d="m98.812 68.205a15.977 15.977 0 0 0 -18.923-2.01 17.068 17.068 0 0 1 -2.9 1.249c6.3-8 8.319-15.357 8.837-20.4.774-7.551-1.326-14.424-5.765-18.861-3.015-3.015-7.322-4.556-12.437-4.427-7.2.166-13.449 5.215-15.544 12.563a23.3 23.3 0 0 1 -6.042 9.671 23.286 23.286 0 0 1 -9.671 6.042c-7.348 2.1-12.4 8.343-12.563 15.544-.118 5.124 1.412 9.424 4.426 12.438a20.856 20.856 0 0 0 7.094 4.586 23.274 23.274 0 0 0 7.965 11.8c6.334 5.139 15.369 7.855 26.127 7.855 21.774-.005 34.784-12.555 34.784-24.695 0-4.06-1.862-7.988-5.388-11.355zm-19.887 3.395c0 3.189-4.355 5.884-9.509 5.884s-9.508-2.7-9.508-5.884a3.488 3.488 0 0 1 .175-1.061 27.389 27.389 0 0 0 9.333 1.574c.972 0 1.931-.056 2.875-.148.047 0 .092-.007.138-.011a26.126 26.126 0 0 0 6.321-1.415 3.488 3.488 0 0 1 .175 1.061zm-30.413-23.136a28.765 28.765 0 0 0 5.825-8.216 3.779 3.779 0 0 1 1.034.73c2.421 2.42 1.181 7.75-2.707 11.638s-9.217 5.128-11.638 2.708a3.81 3.81 0 0 1 -.73-1.034 28.763 28.763 0 0 0 8.216-5.826zm-17.806 29.075c-2.322-2.322-3.5-5.739-3.4-9.882a13.263 13.263 0 0 1 9.715-12.157 7.3 7.3 0 0 0 1.53 2.3 8.138 8.138 0 0 0 5.9 2.287c3.473 0 7.424-1.728 10.69-4.994 5.409-5.41 6.6-12.7 2.707-16.588a7.289 7.289 0 0 0 -2.3-1.529 13.266 13.266 0 0 1 12.152-9.721c4.146-.081 7.561 1.081 9.882 3.4 7.454 7.454 7.138 23.578-6.133 37.867-.671.052-1.348.087-2.037.087a21.945 21.945 0 0 1 -10.472-2.417 15.978 15.978 0 0 0 -18.923 2.01c-3.523 3.37-5.387 7.298-5.387 11.358 0 .286.014.571.027.856a16.837 16.837 0 0 1 -3.951-2.877zm38.71 23.211c-18.387 0-28.919-8.543-30.926-17.888 0-.015-.006-.031-.01-.046a15.677 15.677 0 0 1 -.35-3.256c0-3.081 1.49-6.133 4.307-8.824a11.818 11.818 0 0 1 8.224-3.226 13.519 13.519 0 0 1 6.233 1.577 7 7 0 0 0 -.486 2.512c0 5.262 5.714 9.384 13.008 9.384s13.009-4.122 13.009-9.383a7.008 7.008 0 0 0 -.49-2.521 12.456 12.456 0 0 1 14.465 1.657c2.818 2.691 4.307 5.743 4.307 8.824-.007 10.416-11.707 21.19-31.291 21.19z"/></svg>