<svg id="Capa_1" enable-background="new 0 0 512 512" height="512" viewBox="0 0 512 512" width="512" xmlns="http://www.w3.org/2000/svg"><g><g><g><g><circle cx="431.276" cy="370.973" fill="#e01152" r="34.361"/></g><g><circle cx="425.622" cy="366.336" fill="#fe255f" r="27.022"/></g><g><circle cx="431.276" cy="357.763" fill="#fc709b" r="14.883"/></g></g><g><path d="m105.428 405.684c-12.646 3.027-24.604 9.373-34.465 18.939-1.73 1.679-4.589.901-5.308-1.4-1.543-4.934-4.307-9.379-8.323-12.862-6.96-6.035-16.24-7.972-25.441-6.215-2.09.399-3.977-1.256-3.844-3.38.7-11.207-3.623-22.595-12.763-30.519-1.53-1.326-3.143-2.489-4.814-3.513-1.305-.8-1.838-2.424-1.297-3.856 4.416-11.699 5.759-24.221 4.116-36.381-.256-1.893 1.221-3.596 3.131-3.611 12.27-.097 24.475-3.202 35.43-9.232 1.341-.738 3.024-.441 4.001.737 1.25 1.509 2.63 2.941 4.16 4.267 9.14 7.924 21.025 10.589 32.02 8.308 2.084-.432 3.989 1.2 3.891 3.326-.434 9.357 2.799 18.268 9.759 24.303 4.017 3.482 8.809 5.588 13.912 6.416 2.38.386 3.555 3.105 2.139 5.056-8.072 11.117-12.658 23.854-13.862 36.801-.128 1.366-1.109 2.497-2.442 2.816z" fill="#0cc166"/><g><path d="m95.919 330.294c-.432 9.355 2.797 18.267 9.761 24.305 4.014 3.48 8.81 5.587 13.912 6.409 2.38.387 3.554 3.107 2.139 5.064-8.072 11.117-12.659 23.85-13.862 36.794-.065.684-.344 1.31-.77 1.801l-93.054-80.678c.573-.661 1.418-1.095 2.375-1.099 12.267-.099 24.476-3.203 35.427-9.236 1.347-.739 3.028-.439 4.001.736 1.252 1.511 2.635 2.94 4.166 4.267 9.136 7.921 21.022 10.59 32.016 8.307 2.085-.431 3.989 1.202 3.889 3.33z" fill="#04a550"/></g></g><g><g><path d="m428.373 77.103c-5.869-6.387-14.146-9.082-22.053-8.101.981-7.907-1.713-16.184-8.101-22.053-9.748-8.957-24.964-8.931-34.683.057-10.737 9.93-10.984 26.692-.74 36.936.023.023.046.046.069.069 3.547 3.521 3.655 9.211.121 12.745l-24.253 24.253 15.58 15.58 24.253-24.253c3.534-3.534 9.225-3.426 12.745.121.023.023.046.046.069.069 10.244 10.244 27.005 9.997 36.935-.74 8.989-9.718 9.015-24.935.058-34.683z" fill="#d8d4c9"/><path d="m428.32 111.782c-9.93 10.74-26.7 10.99-36.94.74-.02-.02-.05-.04-.07-.07-3.52-3.54-9.21-3.65-12.74-.12l-24.26 24.26-15.58-15.58 13.99-13.99c2.43.36 4.91.55 7.44.55 23.68 0 43.48-16.58 48.43-38.75 7.2-.25 14.47 2.5 19.78 8.28 8.96 9.75 8.93 24.97-.05 34.68z" fill="#b5b1a4"/><path d="m301.373 268.942c-41.6 41.6-77.261 34.731-103.492 8.5s-33.1-61.892 8.5-103.492 115.914-73.385 142.146-47.154-5.555 100.546-47.154 142.146z" fill="#7f392c"/></g><path d="m100.242 397.266c-24.175 0-44.249-18.587-46.182-42.685-4.841-60.348 2.014-165.098 104.253-181.202 129.23-20.356 151.264 43.241 248.715 75.558 22.151 7.346 35.358 30.052 30.828 52.944-10.97 55.436-59.599 95.385-116.11 95.385z" fill="#a1412b"/><path d="m437.85 301.882c-5.49 27.72-20.38 51.56-40.97 68.48-20.59 16.91-46.88 26.9-75.13 26.9h-221.51c-24.17 0-44.25-18.58-46.18-42.68-1.04-13-1.54-28.07-.66-43.86 37.54 42.55 92.5 69.39 153.72 69.39 88.19 0 163.37-55.7 192.28-133.83 2.49.91 5.03 1.79 7.63 2.65 22.15 7.35 35.35 30.06 30.82 52.95z" fill="#7f392c"/><path d="m413.25 251.522c-9.52 33.78-32.62 72.37-59.29 99.04-46.91 46.92-87.13 39.17-116.72 9.59-29.58-29.58-37.33-69.8 9.59-116.72 17.16-17.15 39.25-32.83 61.82-44.37 28.53 16.31 56.49 35.98 98.38 49.87 2.16.72 4.24 1.58 6.22 2.59z" fill="#7f392c"/><path d="m437.85 301.882c-5.49 27.72-20.38 51.56-40.97 68.48-11.06 9.08-23.77 16.17-37.54 20.78 29.85-31 48.2-73.15 48.2-119.58 0-7.79-.52-15.46-1.52-22.97.33.12.67.23 1.01.34 22.15 7.35 35.35 30.06 30.82 52.95z" fill="#6d2c23"/><path d="m269.232 164.405c11.394-6.319 22.918-11.283 33.252-14.212 7.327-2.076 11.814-9.449 10.429-16.938-.018-.098-.036-.197-.055-.295-1.587-8.582-10.193-13.969-18.593-11.602-12.813 3.61-26.409 9.424-39.627 16.746-8.197 4.541-10.26 15.41-4.219 22.573.087.104.175.207.262.311 4.576 5.427 12.344 6.86 18.551 3.417z" fill="#a1412b"/><path d="m158.31 173.382c-69.609 10.961-94.997 63.012-102.586 114.168-1.339 9.029 5.723 17.121 14.851 17.121 7.462 0 13.745-5.492 14.843-12.873 1.702-11.44 4.422-22.863 8.572-33.546 12.53-32.25 34.45-49.8 68.99-55.24 7.663-1.207 15.066-2.107 22.161-2.7 7.762-.649 13.762-7.074 13.762-14.863v-.188c0-8.751-7.497-15.579-16.218-14.851-7.686.642-15.792 1.62-24.375 2.972z" fill="#b55434"/><path d="m125.386 182.844c-21.25 9.379-36.555 23.819-47.449 40.876-4.094 6.41-2.533 14.907 3.479 19.566.083.065.167.129.25.194 6.911 5.357 16.902 3.592 21.603-3.782 8.584-13.461 19.842-23.166 34.215-29.471 6.88-3.018 10.392-10.723 8.181-17.903-.029-.095-.059-.191-.088-.286-2.615-8.5-12.056-12.784-20.191-9.194z" fill="#db765a"/><g><g><path d="m494.263 108.05c-6.619-7.204-15.954-10.243-24.871-9.136 1.107-8.918-1.932-18.252-9.136-24.871-10.993-10.102-28.155-10.073-39.115.064-12.109 11.199-12.387 30.103-.834 41.656.026.026.052.052.078.077 4.001 3.97 4.122 10.389.136 14.374l-27.352 27.352 17.571 17.571 27.352-27.352c3.986-3.986 10.404-3.864 14.374.136.026.026.052.052.077.078 11.553 11.553 30.456 11.275 41.656-.834 10.136-10.96 10.165-28.121.064-39.115z" fill="#f1eee0"/><path d="m351.032 324.405c-46.916 46.916-87.134 39.17-116.718 9.586s-37.33-69.802 9.586-116.718 130.728-82.763 160.311-53.18-6.263 113.396-53.179 160.312z" fill="#b55434"/><path d="m351.03 324.402c-46.91 46.92-87.13 39.17-116.72 9.59-1.76-1.76-3.44-3.56-5.04-5.39 9.95 2.82 20.46 4.34 31.32 4.34 63.07 0 114.2-51.14 114.2-114.21 0-23.57-7.14-45.49-19.39-63.68 20.47-3.78 38.16-1.61 48.81 9.04 29.59 29.581-6.26 113.4-53.18 160.31z" fill="#a1412b"/></g><path d="m244.11 320.291c5.134-4.892 6.084-12.706 2.295-18.702-4.054-6.416-6.061-12.807-5.985-19.107.15-12.78 8.69-27.99 24.69-44 21.598-21.591 52.23-40.321 78.564-49.371 8.58-2.948 12.464-12.883 8.234-20.908-.048-.091-.096-.183-.145-.274-3.417-6.482-11.061-9.449-17.99-7.064-31.417 10.813-65.586 32.125-89.873 56.407-38.798 38.798-40.212 73.013-22.815 100.421 5.012 7.897 15.975 9.321 22.743 2.866.094-.089.188-.178.282-.268z" fill="#db765a"/><path d="m281.5 187.02c-6.773 4.443-13.34 9.196-19.565 14.179-6.929 5.546-7.393 15.922-1.067 22.147.075.074.15.147.225.221 5.378 5.29 13.845 5.654 19.737.942 5.474-4.378 11.239-8.544 17.154-12.428 6.676-4.384 8.607-13.32 4.431-20.127-.052-.085-.105-.17-.157-.256-4.371-7.116-13.775-9.259-20.758-4.678z" fill="#f4a698"/><path d="m494.2 147.162c-11.2 12.11-30.1 12.39-41.66.84-.02-.03-.05-.05-.08-.08-3.97-4-10.38-4.12-14.37-.14l-27.35 27.36-17.57-17.58 23.19-23.19c4.68 1.44 9.65 2.22 14.8 2.22 23.2 0 42.74-15.73 48.51-37.11 5.41 1.27 10.52 4.13 14.59 8.57 10.1 10.99 10.07 28.15-.06 39.11z" fill="#d8d4c9"/></g></g><g><g><circle cx="77.304" cy="370.973" fill="#e01152" r="34.361"/></g><g><circle cx="71.65" cy="366.336" fill="#fe255f" r="27.022"/></g><g><circle cx="77.304" cy="357.763" fill="#fc709b" r="14.883"/></g></g><g><path d="m334.622 418.429c-3.027-12.646-9.373-24.604-18.939-34.465-1.679-1.73-.901-4.589 1.4-5.308 4.934-1.543 9.379-4.307 12.862-8.323 6.035-6.96 7.972-16.24 6.215-25.441-.399-2.09 1.256-3.977 3.38-3.844 11.207.7 22.595-3.623 30.519-12.763 1.326-1.53 2.489-3.143 3.513-4.814.8-1.305 2.424-1.838 3.856-1.297 11.699 4.416 24.221 5.759 36.381 4.116 1.893-.256 3.596 1.221 3.611 3.131.097 12.27 3.202 24.475 9.232 35.43.738 1.341.441 3.024-.737 4.001-1.509 1.25-2.941 2.63-4.267 4.16-7.924 9.14-10.589 21.025-8.308 32.02.432 2.084-1.2 3.989-3.326 3.891-9.357-.434-18.268 2.799-24.303 9.759-3.482 4.017-5.588 8.809-6.416 13.912-.386 2.38-3.105 3.555-5.056 2.139-11.117-8.072-23.854-12.658-36.801-13.862-1.366-.128-2.497-1.109-2.816-2.442z" fill="#0cc166"/><g><path d="m410.012 408.92c-9.355-.432-18.267 2.797-24.305 9.761-3.48 4.014-5.587 8.81-6.409 13.912-.387 2.38-3.107 3.554-5.064 2.139-11.117-8.072-23.85-12.659-36.794-13.862-.684-.065-1.31-.344-1.801-.77l80.678-93.054c.661.573 1.095 1.418 1.099 2.375.099 12.267 3.203 24.476 9.236 35.427.739 1.347.439 3.028-.736 4.001-1.511 1.252-2.94 2.635-4.267 4.166-7.921 9.136-10.59 21.022-8.306 32.016.43 2.085-1.203 3.988-3.331 3.889z" fill="#04a550"/></g></g><path d="m432.48 471.751h-352.96c-16.221 0-29.372-13.15-29.372-29.372v-12.086h411.704v12.086c0 16.222-13.15 29.372-29.372 29.372z" fill="#b5b1a4"/><path d="m461.85 430.291v12.09c0 16.22-13.15 29.37-29.37 29.37h-92.64c22.6-6.98 41.73-21.88 54.14-41.46z" fill="#8f8b81"/><path d="m461.85 430.291v12.09c0 16.22-13.15 29.37-29.37 29.37h-49.77c24.31-3.09 44.5-19.38 53.16-41.46z" fill="#706c64"/><path d="m492.88 435.506h-473.76c-10.56 0-19.12-8.56-19.12-19.12 0-10.56 8.56-19.12 19.12-19.12h473.76c10.56 0 19.12 8.56 19.12 19.12 0 10.56-8.56 19.12-19.12 19.12z" fill="#d8d4c9"/><path d="m325.38 397.266h-256.524c-10.56 0-19.12 8.56-19.12 19.12 0 10.56 8.56 19.12 19.12 19.12h256.524c10.56 0 19.12-8.56 19.12-19.12 0-10.56-8.56-19.12-19.12-19.12z" fill="#f1eee0"/><path d="m176.548 397.266h-49.706c-10.56 0-19.12 8.56-19.12 19.12 0 10.56 8.56 19.12 19.12 19.12h49.706c10.56 0 19.12-8.56 19.12-19.12 0-10.56-8.56-19.12-19.12-19.12z" fill="#f9f8f2"/><path d="m248.209 397.266c-10.56 0-19.12 8.56-19.12 19.12 0 10.56 8.56 19.12 19.12 19.12 10.56 0 19.12-8.56 19.12-19.12.001-10.56-8.56-19.12-19.12-19.12z" fill="#f9f8f2"/><path d="m399.665 397.266c-10.56 0-19.12 8.56-19.12 19.12 0 10.56 8.56 19.12 19.12 19.12 10.56 0 19.12-8.56 19.12-19.12 0-10.56-8.56-19.12-19.12-19.12z" fill="#e8e4d8"/></g><path d="m512 416.39c0 5.28-2.14 10.06-5.6 13.52s-8.24 5.6-13.52 5.6h-40.71c17.86-6.98 32.28-20.8 40.06-38.24h.65c10.56 0 19.12 8.56 19.12 19.12z" fill="#b5b1a4"/></g></svg>