<?xml version="1.0" encoding="iso-8859-1"?>
<!-- Generator: Adobe Illustrator 19.0.0, SVG Export Plug-In . SVG Version: 6.00 Build 0)  -->
<svg version="1.1" id="Capa_1" xmlns="http://www.w3.org/2000/svg" xmlns:xlink="http://www.w3.org/1999/xlink" x="0px" y="0px"
	 viewBox="0 0 512.002 512.002" style="enable-background:new 0 0 512.002 512.002;" xml:space="preserve">
<path style="fill:#3BBC56;" d="M393.87,66.625c0,0-54.318-8.38-64.21,44.594c0,0-43.571,27.366-29.235,76.864
	c0,0,18.308,19.427,48.464,8.086c0,0,51.114,23.037,70.305-32.382c11.56-33.381,37.928-45.112,57.07-49.164
	c10.7-2.264,14.907-15.245,7.773-23.534C468.209,72.701,438.861,51.444,393.87,66.625z"/>
<path style="fill:#30AA44;" d="M320.23,191.082c-14.953-51.627,30.492-80.17,30.492-80.17c5.417-29.004,23.599-40.369,39.655-44.626
	c-12.155-0.786-52.344,0.102-60.716,44.934c0,0-43.571,27.366-29.235,76.864c0,0,12.173,12.908,33.012,11.532
	C324.909,196.037,320.23,191.082,320.23,191.082z"/>
<path style="fill:#3BBC56;" d="M141.147,20.305c0,0,63.914,0.784,65.122,63.445c0,0,44.744,39.732,18.824,93.769
	c0,0-24.719,18.781-57.141,0c0,0-63.043,16.644-74.451-50.603c-6.872-40.505-34.873-59.009-56.057-67.319
	c-11.841-4.645-14.183-20.341-4.411-28.485C54.708,13.047,92.443-5.719,141.147,20.305z"/>
<path style="fill:#30AA44;" d="M114.72,125.65c-7.02-41.376-35.623-60.277-57.262-68.767c-12.095-4.745-14.488-20.778-4.506-29.097
	c9.287-7.74,21.462-15.604,36.137-20.168C65.25,8.934,46.184,20.151,33.032,31.112c-9.771,8.144-7.429,23.839,4.411,28.485
	c21.184,8.311,49.186,26.815,56.057,67.319c9.503,56.023,54.838,53.821,69.709,51.526C144.2,175.652,121.23,164.026,114.72,125.65z"
	/>
<path style="fill:#C4356F;" d="M367.818,348.77c0-67.566-56.367-121.968-124.642-118.745
	c-61.198,2.888-110.646,52.779-113.029,113.999c-2.043,52.487,29.964,97.756,75.703,115.548
	c14.185,5.518,25.88,15.999,32.687,29.612l6.437,12.872c1.633,3.265,6.293,3.265,7.926,0c7.982-15.965,14.239-33.038,38.208-42.133
	C335.944,442.91,367.818,399.573,367.818,348.77z"/>
<path style="fill:#AF2B67;" d="M258.538,489.183c-6.807-13.613-18.502-24.094-32.687-29.612
	c-45.739-17.792-77.746-63.061-75.703-115.548c2.328-59.811,49.583-108.799,108.825-113.717c-5.178-0.433-10.452-0.534-15.798-0.282
	c-61.198,2.888-110.646,52.779-113.029,113.999c-2.043,52.487,29.964,97.756,75.703,115.548
	c14.185,5.518,25.88,15.999,32.687,29.612l6.437,12.872c1.633,3.265,6.293,3.265,7.926,0c2.01-4.02,3.911-8.111,6.014-12.126
	L258.538,489.183z"/>
<path d="M26.973,25.351c-14.178,11.817-10.65,34.511,6.475,41.229c20.015,7.853,45.178,24.911,51.401,61.592
	c3.819,22.518,13.479,38.911,28.71,48.723c20.106,12.953,43.618,10.129,51.962,8.552c19.288,10.25,39.214,10.319,56.189,1.99
	c7.582,14.787,12.674,27.383,15.621,35.376c-29.895,2.425-57.92,15.481-79.309,37.057c-64.281,64.84-40.599,173.845,43.851,206.693
	c22.084,8.592,28.152,24.884,35.134,38.85c4.394,8.787,16.948,8.788,21.343-0.001c7.525-15.05,12.896-30.405,34.159-38.475
	c39.985-15.171,69.354-49.123,78.56-90.82c0.893-4.045-1.662-8.049-5.708-8.941c-4.043-0.899-8.048,1.661-8.942,5.707
	c-8.112,36.74-33.993,66.657-69.233,80.029c-26.172,9.93-34.117,29.513-39.51,40.299c-4.987-9.974-13.585-30.21-40.367-40.629
	c-44.274-17.222-72.778-60.731-70.927-108.265c2.275-58.438,51.007-106.906,111.304-106.925
	c58.022-0.018,106.502,43.928,111.037,102.683c0.318,4.13,3.935,7.227,8.056,6.901c4.13-0.318,7.22-3.925,6.901-8.056
	c-2.522-32.693-17.455-62.743-42.044-84.613c-14.45-12.852-31.343-22.039-49.507-27.166c3.314-5.949,9.473-16.281,18.401-28.418
	c8.588,5.668,24.9,12.707,46.962,5.449c31.254,11.246,63.787,1.765,77.531-37.929c10.307-29.764,33.714-40.508,51.536-44.279
	c7.586-1.605,13.599-6.96,16.087-14.322c2.519-7.458,0.956-15.473-4.182-21.443c-11.939-13.871-32.415-30.707-62.158-32.137
	c-4.155-0.211-7.654,2.993-7.853,7.132c-0.199,4.138,2.994,7.654,7.132,7.853c24.419,1.174,41.489,15.297,51.509,26.94
	c3.431,3.986,1.46,10.224-3.64,11.303c-21.606,4.572-50.005,17.661-62.605,54.047c-5.074,14.654-12.976,24.401-23.483,28.971
	c-17.191,7.476-36.482-0.896-36.652-0.972c-1.808-0.815-3.866-0.88-5.723-0.183c-16.634,6.254-28.819,1.621-35.236-2.305
	c26.439-32.268,60.859-59.585,100.9-71.93c3.958-1.22,6.179-5.419,4.958-9.377s-5.419-6.181-9.377-4.958
	c-46.268,14.264-80.804,45.241-102.408,70.039c-1.27-33.61,27.198-52.177,28.565-53.047c1.772-1.113,2.999-2.917,3.383-4.974
	c7.481-40.06,43.567-39.749,54.447-38.7c4.13,0.4,7.788-2.623,8.186-6.747c0.397-4.123-2.623-7.789-6.747-8.186
	c-32.772-3.161-62.083,12.719-70.005,47.821c-24.637,18.254-38.395,47.604-30.682,79.644
	c-13.342,17.593-21.341,32.074-24.125,37.407c-0.377-0.057-0.754-0.114-1.132-0.168c5.559-73.399,18.214-139.23,37.642-195.772
	c1.346-3.917-0.738-8.186-4.655-9.531c-3.918-1.347-8.186,0.738-9.531,4.655c-19.353,56.318-32.111,121.525-37.977,193.982
	c-3.442-9.301-9.433-23.894-18.503-40.945c14.667-35.231,3.655-71.08-20.294-95.58c-1.75-34.01-20.973-50.654-37.061-58.662
	c-14.297-7.117-28.399-8.613-33.439-8.927C100.535-8.564,60.319-2.441,26.973,25.351z M139.781,27.805
	c2.313,0.04,56.681,1.598,57.733,56.089c0.04,2.08,0.957,4.062,2.505,5.452c0.104,0.093,10.433,9.46,17.579,24.724
	c6.86,14.653,8.545,29.528,5.086,44.397c-19.856-32.603-53.61-75.317-104.337-100.727c-3.703-1.854-8.21-0.357-10.065,3.347
	c-1.855,3.703-0.357,8.21,3.347,10.065c44.198,22.14,78.746,60.674,102.942,103.097c-7.72,3.653-24.084,8.384-44.116-3.22
	c-1.735-1.005-3.777-1.263-5.675-0.762c-0.24,0.063-24.199,6.19-43.096-5.984c-11.542-7.436-18.959-20.43-22.044-38.621
	C92.244,82.074,62.543,61.88,38.927,52.615c-6.535-2.563-7.746-11.243-2.349-15.74C88.221-6.168,134.451,27.716,139.781,27.805z"/>
<g>
</g>
<g>
</g>
<g>
</g>
<g>
</g>
<g>
</g>
<g>
</g>
<g>
</g>
<g>
</g>
<g>
</g>
<g>
</g>
<g>
</g>
<g>
</g>
<g>
</g>
<g>
</g>
<g>
</g>
</svg>
