<svg id="Layer_3" enable-background="new 0 0 64 64" height="512" viewBox="0 0 64 64" width="512" xmlns="http://www.w3.org/2000/svg"><g><path d="m55 33-7.652 3.601c-6.156 2.897-12.876 4.399-19.68 4.399-6.376 0-12.684-1.319-18.526-3.875l-6.226-2.724c-.556-.244-.916-.794-.916-1.401 0-.607.36-1.157.916-1.401l6.226-2.724c5.842-2.556 12.15-3.875 18.526-3.875 6.804 0 13.524 1.502 19.68 4.399z" fill="#c1c8d1"/><path d="m46.177 37.132c-2.71 1.184-5.521 2.103-8.393 2.747l.216.121c3.895 1.298 8.105 1.298 12 0z" fill="#e7e4dd"/><path d="m35.151 25.61 4.849-3.75c-3.859-1.327-8.06-1.112-11.773.601l-6.271 2.894c1.89-.236 3.798-.355 5.712-.355 2.514 0 5.017.205 7.483.61z" fill="#d5cec2"/><path d="m25 33h-9.19c-.1.394-.238.776-.41 1.141l.008-.018 9.592 2.877z" fill="#fadfb2"/><path d="m55 33-7.652-3.601c-6.156-2.897-12.876-4.399-19.68-4.399-3.257 0-6.496.344-9.664 1.022l-.004-.022-1.342 2.684c-.433.865-.658 1.82-.658 2.787 0 .522-.065 1.035-.19 1.529z" fill="#758190"/><path d="m11.112 37.933 1.862-1.117c1.877-1.127 3.026-3.156 3.026-5.345 0-.968.225-1.922.658-2.787l1.329-2.659c-3.029.649-5.992 1.602-8.845 2.85l-6.226 2.724c-.556.244-.916.794-.916 1.401 0 .607.36 1.157.916 1.401l6.226 2.724c.651.285 1.308.554 1.97.808z" fill="#e7e4dd"/><path d="m60 33 2 10c-2.649-2.649-4.854-5.708-6.53-9.06l-.47-.94.47-.94c1.676-3.351 3.88-6.41 6.53-9.06z" fill="#d5cec2"/><g><path d="m21 33-.001-1.583c0-.772-.182-1.545-.527-2.236l-.367-.734 1.79-.893.366.733c.483.966.738 2.048.738 3.129v1.583z" fill="#8892a0"/></g><g><path d="m25 33-.001-1.377c0-.97-.155-1.928-.461-2.846l-.487-1.461 1.897-.632.487 1.461c.375 1.123.564 2.293.564 3.479v1.376z" fill="#8892a0"/></g><g><path d="m29 33-.001-1.377c0-.97-.155-1.928-.461-2.846l-.487-1.461 1.897-.632.487 1.461c.375 1.123.564 2.293.564 3.479v1.376z" fill="#8892a0"/></g><g><path d="m33 33-.001-1.377c0-.97-.155-1.928-.461-2.846l-.487-1.461 1.897-.632.487 1.461c.375 1.123.564 2.293.564 3.479v1.376z" fill="#8892a0"/></g><g><path d="m12.5 32.999c-.827 0-1.5-.673-1.5-1.5s.673-1.5 1.5-1.5 1.5.673 1.5 1.5-.673 1.5-1.5 1.5z" fill="#606060"/></g><g><path d="m37 33v-1.052c0-1.186-.19-2.356-.564-3.479l1.897-.633c.442 1.327.667 2.71.667 4.111v1.052z" fill="#8892a0"/></g></g></svg>