<svg id="Capa_1" enable-background="new 0 0 512 512" height="512" viewBox="0 0 512 512" width="512" xmlns="http://www.w3.org/2000/svg"><g><g><path clip-rule="evenodd" d="m127.674 113.742c30.045 22.591 65.787 25.737 79.817 7.058 14.059-18.679 1.077-52.126-28.968-74.689-30.045-22.591-65.758-25.737-79.817-7.058-14.03 18.68-1.048 52.127 28.968 74.689z" fill="#fff3da" fill-rule="evenodd"/></g><g><path clip-rule="evenodd" d="m25.749 225.506c0 37.585 18.934 68.056 42.289 68.056 23.384 0 42.318-30.471 42.318-68.056 0-37.557-18.934-68.028-42.318-68.028-23.355 0-42.289 30.471-42.289 68.028z" fill="#fff3da" fill-rule="evenodd"/></g><g><path clip-rule="evenodd" d="m238.046 251.158c30.045-22.591 65.787-25.737 79.817-7.058 14.059 18.679 1.077 52.126-28.968 74.689-30.045 22.591-65.758 25.737-79.817 7.058-14.03-18.68-1.077-52.127 28.968-74.689zm-121.227 250.823c66.977-.085 127.435-34.241 145.575-113.039 25.736-5.102 52.408-20.947 73.184-45.947 20.805-24.972 31.575-54.082 31.915-80.301 25.708-5.102 52.38-20.947 73.184-45.947 33.304-39.995 28.911-71.684 31.717-101.531 26.502-37.075 36.536-61.366 22.959-105.216-30.527 46.06-29.648 44.473-62.073 43.254-59.693-2.211-117.004 7.823-146.992 55.499-13.152 20.89-22.08 44.643-22.363 67.716-25.736 5.102-52.408 20.947-73.213 45.947-20.776 24.972-31.547 54.082-31.887 80.301-90.333 30.641-120.973 83.901-148.268 172.422 33.616 17.347 70.633 26.786 105.865 26.843h.397zm201.384-307.201c-14.03-18.679-1.077-52.126 28.968-74.717 30.045-22.562 65.787-25.737 79.817-7.058s1.077 52.126-28.968 74.717c-30.045 22.563-65.787 25.737-79.817 7.058zm-195.291 177.495c34.296-15.363 69.84-10.544 79.392 10.799 9.552 21.315-10.487 51.077-44.784 66.44s-69.84 10.544-79.392-10.799c-9.551-21.315 10.488-51.048 44.784-66.44z" fill="#e0ef9b" fill-rule="evenodd"/></g><g><path clip-rule="evenodd" d="m209.078 325.847c14.059 18.679 49.772 15.533 79.817-7.058 30.045-22.562 43.026-56.009 28.968-74.689-14.03-18.679-49.772-15.533-79.817 7.058-30.045 22.562-42.998 56.009-28.968 74.689z" fill="#fff3da" fill-rule="evenodd"/></g><g><path clip-rule="evenodd" d="m78.129 438.716c9.552 21.344 45.095 26.162 79.392 10.799s54.336-45.125 44.784-66.44c-9.552-21.344-45.095-26.162-79.392-10.799-34.297 15.391-54.336 45.124-44.784 66.44z" fill="#fff3da" fill-rule="evenodd"/></g><g><path clip-rule="evenodd" d="m354.37 450.677c14.059 18.708 49.801 15.533 79.817-7.03 30.045-22.591 43.026-56.038 28.968-74.717-14.03-18.679-49.772-15.533-79.789 7.058-30.045 22.563-43.026 56.01-28.996 74.689z" fill="#fff3da" fill-rule="evenodd"/></g><g><path clip-rule="evenodd" d="m318.203 194.78c14.03 18.679 49.772 15.505 79.817-7.058 30.045-22.591 42.998-56.038 28.968-74.717s-49.772-15.505-79.817 7.058c-30.045 22.591-42.998 56.038-28.968 74.717z" fill="#fff3da" fill-rule="evenodd"/></g><g><path d="m188.075 476.676c-5.523 0-10 4.477-10 10s4.477 10 10 10h.057c5.523 0 9.971-4.477 9.971-10s-4.505-10-10.028-10z"/><path d="m504.905 7.043c-1.143-3.69-4.308-6.392-8.132-6.941-3.824-.551-7.621 1.154-9.755 4.374-13.165 19.865-21.111 31.855-27.143 36.28-4.364 3.202-9.021 3.18-23.082 2.627l-3.142-.122c-35.235-1.304-64.037 1.807-88.06 9.513-29.847 9.574-52.646 26.617-67.765 50.652-13.632 21.654-21.676 43.965-23.505 65.027-26.458 7.144-51.531 23.817-71.296 47.567-19.647 23.615-31.769 52.212-33.878 79.493-88.431 32.028-120.555 87.202-148.146 176.679-1.427 4.628.667 9.613 4.971 11.833 35.624 18.381 73.87 27.975 110.341 27.975 10.045 0 19.963-.729 29.645-2.202 5.46-.831 9.213-5.93 8.382-11.39s-5.932-9.213-11.39-8.382c-37.685 5.735-81.082-1.567-120.29-20.063 26.25-82.209 56.376-129.623 139.377-157.777 4.013-1.361 6.732-5.103 6.786-9.34.322-24.846 11.102-51.831 29.575-74.034 18.468-22.192 43.06-37.695 67.471-42.534 4.637-.919 7.997-4.959 8.054-9.686.241-19.636 7.443-41.252 20.829-62.514 23.463-37.301 67.373-53.46 138.152-50.831l3.103.12c15.352.603 25.49 1.002 35.698-6.486 5.981-4.389 11.426-11.083 19.015-22.033 3.323 26.984-6.216 46.231-26.461 74.554-1.026 1.437-1.655 3.12-1.82 4.879-.478 5.089-.757 10.252-1.026 15.245-1.325 24.547-2.694 49.93-28.422 80.826-18.465 22.19-43.047 37.693-67.444 42.535-4.634.919-7.991 4.955-8.052 9.678-.323 24.856-11.112 51.84-29.607 74.04-18.439 22.187-43.02 37.689-67.439 42.53-3.862.766-6.915 3.725-7.799 7.562-6.277 27.218-18.095 49.767-35.127 67.019-3.88 3.931-3.839 10.262.091 14.142 3.931 3.879 10.261 3.838 14.142-.091 18.358-18.597 31.417-42.277 38.868-70.453 26.698-6.935 52.874-24.135 72.637-47.916 19.476-23.376 31.564-51.65 33.846-78.703 26.195-7.162 51.807-24.175 71.255-47.547 29.97-35.99 31.591-66.035 33.021-92.543.22-4.08.431-7.975.738-11.811 27.021-38.266 37.181-65.253 22.784-111.751z"/><path d="m346.92 216.999c17.752 0 38.325-7.178 57.109-21.284 34.972-26.296 48.568-65.264 30.954-88.715-17.611-23.443-58.819-21.216-93.823 5.071-34.971 26.295-48.567 65.263-30.953 88.715 8.16 10.862 21.385 16.213 36.713 16.213zm-21.437-54.497c4.804-12.396 14.64-24.629 27.692-34.443 13.062-9.809 27.549-15.857 40.791-17.03 1.28-.114 2.761-.196 4.362-.196 6.738 0 15.615 1.456 20.663 8.177h.001c6.255 8.327 3.133 20.035.716 26.272-4.805 12.396-14.641 24.629-27.693 34.443-13.062 9.81-27.549 15.857-40.791 17.03-6.663.59-18.776.338-25.025-7.981-6.255-8.327-3.134-20.034-.716-26.272z"/><path d="m283.08 222.192c-16.914 1.494-35.043 8.943-51.039 20.97-16.002 12.017-28.194 27.352-34.331 43.182-6.763 17.447-5.566 33.608 3.378 45.515 8.174 10.861 21.407 16.211 36.733 16.211 17.753 0 38.315-7.179 57.077-21.286 21.016-15.782 35.263-37.206 38.112-57.309 1.706-12.041-.768-22.892-7.153-31.381-8.938-11.901-24.139-17.55-42.777-15.902zm26.787 27.914c.002.002.004.005.006.008 3.174 4.216 4.296 9.786 3.337 16.556-2.088 14.74-13.706 31.647-30.324 44.127-25.137 18.901-55.279 23.041-65.812 9.045-6.255-8.327-3.134-20.032-.716-26.268 4.804-12.392 14.639-24.616 27.698-34.423 13.056-9.817 27.539-15.868 40.783-17.037 1.276-.113 2.753-.194 4.349-.194 6.739-.001 15.625 1.456 20.679 8.186z"/><path d="m211.431 378.99c-6.083-13.593-19.649-22.468-38.197-24.988-16.819-2.284-36.139.964-54.416 9.151-39.921 17.916-61.802 52.903-49.816 79.648 6.083 13.593 19.649 22.468 38.197 24.988 3.512.477 7.132.713 10.83.713 14.009 0 29.125-3.386 43.579-9.86 18.266-8.182 33.551-20.444 43.04-34.526 10.458-15.521 12.867-31.546 6.783-45.126zm-23.368 33.949c-7.429 11.026-19.728 20.775-34.63 27.45-14.911 6.679-30.369 9.373-43.541 7.582-6.627-.9-18.38-3.831-22.638-13.345-7.156-15.97 11.048-40.346 39.746-53.224 11.901-5.331 24.153-8.122 35.31-8.122 2.821 0 5.573.178 8.231.54 6.627.9 18.38 3.831 22.636 13.341 0 .001.001.003.002.004 4.258 9.501-1.378 20.227-5.116 25.774z"/><path d="m121.665 121.735c16.001 12.031 34.129 19.48 51.044 20.974 2.122.187 4.198.28 6.226.28 15.795 0 28.63-5.637 36.551-16.183 6.385-8.489 8.859-19.34 7.153-31.381-2.849-20.103-17.096-41.527-38.106-57.305-34.964-26.29-76.172-28.519-93.822-5.071-17.611 23.446-4.014 62.402 30.954 88.686zm-14.969-76.668c4.225-5.614 11.599-8.311 20.541-8.311 13.361 0 30.22 6.027 45.282 17.352 16.613 12.476 28.23 29.383 30.319 44.123.959 6.77-.164 12.341-3.336 16.557-.002.002-.004.005-.006.007-6.253 8.325-18.366 8.58-25.028 7.992-13.244-1.169-27.728-7.219-40.785-17.037-13.047-9.807-22.88-22.032-27.687-34.424-2.42-6.238-5.545-17.944.7-26.259z"/><path d="m68.038 303.561c29.337 0 52.317-34.286 52.317-78.055 0-43.754-22.981-78.027-52.317-78.027-29.321 0-52.289 34.274-52.289 78.027 0 43.769 22.968 78.055 52.289 78.055zm-21.41-120.874c3.531-5.68 11.007-15.209 21.41-15.209 10.421 0 17.904 9.53 21.436 15.211 7.017 11.285 10.882 26.491 10.882 42.817 0 31.469-14.8 58.056-32.318 58.056-10.404 0-17.88-9.53-21.41-15.211-7.016-11.291-10.88-26.507-10.88-42.845.001-16.325 3.864-31.532 10.88-42.819z"/><path d="m428.375 347.022c-16.914 1.494-35.034 8.944-51.014 20.97-16.003 12.018-28.2 27.352-34.343 43.178-6.774 17.45-5.582 33.612 3.357 45.512 0 0 0 .001.001.001 7.931 10.556 20.772 16.196 36.573 16.196 2.027 0 4.104-.093 6.224-.28 16.908-1.493 35.028-8.936 51.022-20.96 16.004-12.034 28.198-27.377 34.337-43.202 6.77-17.456 5.566-33.623-3.383-45.512-8.939-11.902-24.141-17.551-42.774-15.903zm27.511 54.184c-4.806 12.393-14.647 24.627-27.708 34.448-13.048 9.809-27.525 15.855-40.763 17.024-6.664.586-18.783.331-25.05-8.007-6.252-8.323-3.124-20.028-.703-26.264 4.81-12.392 14.651-24.617 27.718-34.43 13.042-9.815 27.515-15.865 40.755-17.034 6.66-.589 18.772-.332 25.029 8 6.264 8.322 3.141 20.027.722 26.263z"/></g></g></svg>