<svg height="512" viewBox="0 0 64 64" width="512" xmlns="http://www.w3.org/2000/svg"><path d="m35 27v9s2 2.9 2 4a2.006 2.006 0 0 1 -2 2v19h-6v-29a2.006 2.006 0 0 1 -2-2c0-1.1 2-4 2-4v-10h.03a4.966 4.966 0 0 1 -2.03-4 9.821 9.821 0 0 1 1.58-4.07c.35-.58.71-1.15 1.07-1.69 1.2-1.8 2.35-3.24 2.35-3.24a50.119 50.119 0 0 1 3.08 4.38c.36.58.7 1.17.99 1.74a7.213 7.213 0 0 1 .93 2.88 4.966 4.966 0 0 1 -2.03 4h.03v5s2 2.9 2 4a2.006 2.006 0 0 1 -2 2z" fill="#8ec13f"/><path d="m47 36s2 2.9 2 4a2.006 2.006 0 0 1 -2 2v19h-6v-11a2.006 2.006 0 0 1 -2-2c0-1.1 2-4 2-4v-9a2.006 2.006 0 0 1 -2-2c0-1.1 2-4 2-4v-13h.03a4.966 4.966 0 0 1 -2.03-4 9.821 9.821 0 0 1 1.58-4.07c.35-.58.71-1.15 1.07-1.69 1.2-1.8 2.35-3.24 2.35-3.24a50.119 50.119 0 0 1 3.08 4.38c.36.58.7 1.17.99 1.74a7.213 7.213 0 0 1 .93 2.88 4.966 4.966 0 0 1 -2.03 4h.03z" fill="#8ec13f"/><path d="m23 34s2 2.9 2 4a2.006 2.006 0 0 1 -2 2v21h-6v-16a2.006 2.006 0 0 1 -2-2c0-1.1 2-4 2-4v-12a2.006 2.006 0 0 1 -2-2c0-1.1 2-4 2-4v-5h.03a4.966 4.966 0 0 1 -2.03-4 9.821 9.821 0 0 1 1.58-4.07c.35-.58.71-1.15 1.07-1.69 1.2-1.8 2.35-3.24 2.35-3.24a50.119 50.119 0 0 1 3.08 4.38c.36.58.7 1.17.99 1.74a7.213 7.213 0 0 1 .93 2.88 4.966 4.966 0 0 1 -2.03 4h.03z" fill="#8ec13f"/><path d="m34 40h-2c0-1.278 1.522-3.62 2.177-4.568a1.038 1.038 0 0 1 1.646 0c.655.948 2.177 3.29 2.177 4.568h-2a7.443 7.443 0 0 0 -1-2.146 7.457 7.457 0 0 0 -1 2.146z" fill="#c8d952"/><path d="m28 30h-2c0-1.278 1.522-3.62 2.177-4.568a1.038 1.038 0 0 1 1.646 0c.655.948 2.177 3.29 2.177 4.568h-2a7.443 7.443 0 0 0 -1-2.146 7.457 7.457 0 0 0 -1 2.146z" fill="#c8d952"/><path d="m34 25h-2c0-1.278 1.522-3.62 2.177-4.568a1.038 1.038 0 0 1 1.646 0c.655.948 2.177 3.29 2.177 4.568h-2a7.443 7.443 0 0 0 -1-2.146 7.457 7.457 0 0 0 -1 2.146z" fill="#c8d952"/><path d="m42 48a7.433 7.433 0 0 0 -1-2.147 7.457 7.457 0 0 0 -1 2.147h-2c0-1.278 1.522-3.62 2.177-4.568a1.038 1.038 0 0 1 1.646 0c.655.948 2.177 3.29 2.177 4.568z" fill="#c8d952"/><path d="m48 40a7.433 7.433 0 0 0 -1-2.147 7.457 7.457 0 0 0 -1 2.147h-2c0-1.278 1.522-3.62 2.177-4.568a1.038 1.038 0 0 1 1.646 0c.655.948 2.177 3.29 2.177 4.568z" fill="#c8d952"/><path d="m42 33a7.433 7.433 0 0 0 -1-2.147 7.457 7.457 0 0 0 -1 2.147h-2c0-1.278 1.522-3.62 2.177-4.568a1.038 1.038 0 0 1 1.646 0c.655.948 2.177 3.29 2.177 4.568z" fill="#c8d952"/><path d="m18 43a7.433 7.433 0 0 0 -1-2.147 7.457 7.457 0 0 0 -1 2.147h-2c0-1.278 1.522-3.62 2.177-4.568a1.038 1.038 0 0 1 1.646 0c.655.948 2.177 3.29 2.177 4.568z" fill="#c8d952"/><path d="m24 38a7.433 7.433 0 0 0 -1-2.147 7.457 7.457 0 0 0 -1 2.147h-2c0-1.278 1.522-3.62 2.177-4.568a1.038 1.038 0 0 1 1.646 0c.655.948 2.177 3.29 2.177 4.568z" fill="#c8d952"/><path d="m18 25a7.433 7.433 0 0 0 -1-2.147 7.457 7.457 0 0 0 -1 2.147h-2c0-1.278 1.522-3.62 2.177-4.568a1.038 1.038 0 0 1 1.646 0c.655.948 2.177 3.29 2.177 4.568z" fill="#c8d952"/><g fill="#739635"><path d="m17 49h3v2h-3z"/><path d="m17 53h3v2h-3z"/><path d="m20 28h3v2h-3z"/><path d="m29 44h3v2h-3z"/><path d="m32 51h3v2h-3z"/><path d="m41 55h3v2h-3z"/><path d="m44 25h3v2h-3z"/><path d="m41 20h3v2h-3z"/><path d="m36.07 9.12c-.9.57-3.07 2.23-3.07 4.88a1 1 0 0 1 -2 0v-1a6.535 6.535 0 0 0 -2.42-5.07c.35-.58.71-1.15 1.07-1.69a8.67 8.67 0 0 1 2.75 3.59 9.527 9.527 0 0 1 2.68-2.45c.36.58.7 1.17.99 1.74z"/><path d="m24.07 9.12c-.9.57-3.07 2.23-3.07 4.88a1 1 0 0 1 -2 0v-1a6.535 6.535 0 0 0 -2.42-5.07c.35-.58.71-1.15 1.07-1.69a8.67 8.67 0 0 1 2.75 3.59 9.527 9.527 0 0 1 2.68-2.45c.36.58.7 1.17.99 1.74z"/><path d="m48.07 9.12c-.9.57-3.07 2.23-3.07 4.88a1 1 0 0 1 -2 0v-1a6.535 6.535 0 0 0 -2.42-5.07c.35-.58.71-1.15 1.07-1.69a8.67 8.67 0 0 1 2.75 3.59 9.527 9.527 0 0 1 2.68-2.45c.36.58.7 1.17.99 1.74z"/></g></svg>