<svg id="Capa_1" enable-background="new 0 0 512 512" height="512" viewBox="0 0 512 512" width="512" xmlns="http://www.w3.org/2000/svg"><g><g><g><path d="m300.194 116.9h-221.77c-4.96 0-8.98-4.02-8.98-8.98v-17.114c0-4.96 4.02-8.98 8.98-8.98h221.77c4.96 0 8.98 4.02 8.98 8.98v17.114c0 4.96-4.02 8.98-8.98 8.98z" fill="#c5d3dd"/></g><g><path d="m309.174 90.811v17.105c0 4.963-4.024 8.987-8.977 8.987h-19.971c4.953 0 8.977-4.024 8.977-8.987v-17.105c0-4.963-4.024-8.987-8.977-8.987h19.971c4.953 0 8.977 4.024 8.977 8.987z" fill="#b6c4cf"/></g><g><path d="m296.833 81.826h-215.048v-62.258c0-6.671 5.408-12.079 12.079-12.079h190.891c6.671 0 12.079 5.408 12.079 12.079v62.258z" fill="#8d9ca8"/></g><g><path d="m296.832 19.564v62.259h-19.971v-62.259c0-6.67-5.402-12.072-12.082-12.072h19.971c6.68 0 12.082 5.402 12.082 12.072z" fill="#7a8c98"/></g><g><path d="m105.928 116.9h166.763v45.776h-166.763z" fill="#eaf9fa"/></g><g><path d="m252.002 116.9h20.689v45.776h-20.689z" fill="#dcf5f8"/></g><g><path d="m272.691 162.676h-83.381-83.381l-33.062 29.345c-10.681 9.48-16.793 23.078-16.793 37.359v243.954c0 17.219 13.959 31.178 31.178 31.178h102.058 102.058c17.219 0 31.178-13.959 31.178-31.178v-243.955c0-14.281-6.112-27.879-16.793-37.359z" fill="#d4f2f6"/></g><g><path d="m322.545 229.379v243.955c0 17.217-13.957 31.175-31.175 31.175h-20.69c17.215 0 31.175-13.96 31.175-31.175v-243.955c0-12.265-5.279-21.06-13.3-30.79-2.448-2.97-5.091-5.778-7.871-8.44l-28.687-27.473h20.69l33.062 29.347c10.685 9.476 16.796 23.077 16.796 37.356z" fill="#a6e7f0"/></g><g><path d="m56.073 260.951h266.472v182.947h-266.472z" fill="#6bd9e7"/></g><g><path d="m301.855 260.951h20.69v182.947h-20.69z" fill="#2ed1e2"/></g></g><g><path d="m376.732 398.674c-2.999-15.268-21.995-20.686-32.597-9.298-4.336 4.658-9.044 11.118-13.821 20.075-9.121 17.103-14.506 35.983-15.78 55.323-.667 10.13-.076 18.102 1.151 24.346 2.999 15.268 21.995 20.686 32.597 9.298 4.336-4.658 9.044-11.118 13.821-20.075 9.121-17.102 14.506-35.982 15.78-55.323.667-10.129.076-18.101-1.151-24.346z" fill="#fece85"/></g><g><path d="m377.883 423.017c-1.278 19.342-6.66 38.224-15.777 55.329-4.783 8.957-9.486 15.417-13.82 20.071-7.559 8.118-19.372 7.699-26.621 1.268 2.297-.999 4.463-2.496 6.361-4.533 4.334-4.653 9.047-11.114 13.82-20.071 9.127-17.105 14.509-35.988 15.787-55.329.669-10.125.07-18.104-1.158-24.345-.859-4.394-3.045-7.968-5.981-10.564 10.524-4.593 23.775 1.298 26.242 13.83 1.226 6.25 1.816 14.219 1.147 24.344z" fill="#fdb441"/></g><g><path d="m454.003 441.565c6.777-14.006-5.151-29.752-20.469-27.019-6.265 1.118-13.91 3.452-23.111 7.742-17.567 8.19-33.217 20.046-45.857 34.74-6.62 7.696-10.937 14.424-13.709 20.152-6.777 14.006 5.151 29.752 20.469 27.019 6.265-1.118 13.91-3.452 23.111-7.742 17.567-8.19 33.217-20.046 45.856-34.74 6.621-7.696 10.938-14.424 13.71-20.152z" fill="#fe9901"/></g><g><path d="m454.002 441.57c-2.776 5.722-7.09 12.452-13.71 20.151-12.642 14.689-28.289 26.551-45.853 34.739-9.207 4.284-16.845 6.62-23.116 7.739-11.314 2.017-20.78-6.051-22.218-16.047 2.806.899 5.902 1.148 9.157.569 6.261-1.118 13.91-3.445 23.106-7.739 17.575-8.188 33.222-20.041 45.863-34.739 6.62-7.699 10.934-14.429 13.7-20.151 1.767-3.665 2.267-7.439 1.757-10.974 10.385 3.305 16.656 15.418 11.314 26.452z" fill="#fb8801"/></g><g><path d="m177.545 398.766c25.393 10.505 54.194 7.913 78.061-5.708 20.365-11.623 29.306-26.934 32.829-35.04 1.553-3.572 1.553-7.615 0-11.187-3.523-8.106-12.464-23.417-32.829-35.04-23.867-13.621-52.668-16.213-78.061-5.708-12.219 5.055-25.033 13.622-35.603 27.997-2.111 2.872-6.422 2.91-8.504.016-6.297-8.755-17.484-17.832-37.195-20.148-3.6-.423-6.841 2.247-7.091 5.863-.575 8.29.272 22.886 11.296 32.614-11.025 9.728-11.871 24.324-11.296 32.614.251 3.616 3.492 6.286 7.091 5.863 19.711-2.317 30.897-11.393 37.195-20.148 2.081-2.894 6.392-2.855 8.504.016 10.57 14.375 23.384 22.941 35.603 27.996z" fill="#fe9901"/></g><g><path d="m288.433 358.021c-3.525 8.098-12.462 23.416-32.822 35.039-23.875 13.62-52.673 16.206-78.066 5.702-12.222-5.053-25.033-13.62-35.598-27.989-2.117-2.876-6.431-2.916-8.508-.02-6.301 8.757-17.485 17.834-37.196 20.151-3.595.419-6.84-2.247-7.09-5.862-.08-1.178-.14-2.476-.14-3.864 0-4.114.469-9.057 2.037-14 1.318 1.298 3.192 1.725 5.192 1.778 19.627.513 31.668-7.474 37.969-16.232 2.077-2.896 5.956-2.477 8.508.01 13.899 13.547 27.117 21.932 39.34 26.984 25.393 10.505 49.676 5.024 73.551-8.606 16.456-9.396 25.453-21.199 30.156-29.657 1.118 2.007 1.987 3.824 2.666 5.372 1.559 3.575 1.559 7.619.001 11.194z" fill="#fb8801"/></g><g><path d="m288.432 358.018c-3.523 8.108-12.458 23.419-32.823 35.041-10.1 5.768-21.087 9.561-32.327 11.213-11.188-14.293-17.86-32.292-17.86-51.848s6.672-37.555 17.86-51.849c11.24 1.653 22.227 5.446 32.327 11.214 20.365 11.622 29.3 26.933 32.823 35.041 1.557 3.576 1.557 7.612 0 11.188z" fill="#fece85"/></g><g><path d="m288.433 358.021c-.051.117-.102.234-.154.35-3.11 7.015-7.544 13.439-12.758 19.052-3.966 4.27-8.416 8.081-13.199 11.408-3.557 2.474-7.333 4.7-11.193 6.631-2.94 1.47-5.975 2.78-9.058 3.948-5.554 2.104-11.273 3.713-17.135 4.593-.549.1-1.108.19-1.667.26-4.543-5.812-8.338-12.232-11.244-19.112 14.789-.619 29.257-5.861 43.587-14.039 16.456-9.396 25.453-21.199 30.156-29.657 1.118 2.007 1.987 3.824 2.666 5.372 1.557 3.575 1.557 7.619-.001 11.194z" fill="#fdb441"/></g><g><path d="m458.023 417.256c-6.046-7.981-15.936-11.844-25.805-10.082-7.631 1.361-16.029 4.162-24.96 8.327-7.789 3.631-15.272 8.002-22.323 12.995.17-1.659.312-3.321.421-4.982.648-9.835.218-18.678-1.275-26.282-1.933-9.84-9.114-17.658-18.742-20.404-9.627-2.744-19.853.107-26.685 7.446-2.962 3.181-5.841 6.888-8.62 11.048v-165.943c0-16.409-7.039-32.068-19.311-42.96l-30.544-27.11v-34.92h20.014c9.081 0 16.469-7.388 16.469-16.469v-17.114c0-7.653-5.255-14.084-12.34-15.924v-55.314c.001-10.79-8.778-19.568-19.567-19.568h-190.891c-10.79 0-19.568 8.778-19.568 19.568v55.314c-7.086 1.839-12.341 8.271-12.341 15.924v17.114c0 9.081 7.388 16.469 16.469 16.469h20.014v34.92l-30.543 27.11c-12.272 10.892-19.311 26.551-19.311 42.96v243.954c0 21.321 17.346 38.667 38.667 38.667h204.116c8.971 0 17.224-3.085 23.789-8.233 3.194 3.353 7.268 5.874 11.922 7.201 2.421.691 4.88 1.027 7.314 1.027 6.073 0 11.982-2.103 16.749-6.02 4.715 3.885 10.627 6.015 16.777 6.015 1.564 0 3.144-.138 4.723-.42 7.63-1.361 16.028-4.162 24.96-8.327 10.601-4.942 20.594-11.18 29.702-18.541 3.217-2.6 3.717-7.315 1.117-10.532-2.6-3.218-7.317-3.717-10.532-1.117-8.162 6.597-17.117 12.187-26.616 16.615-7.756 3.616-14.909 6.024-21.262 7.157-4.368.78-8.566-.859-11.235-4.382s-3.109-8.01-1.177-12.003c2.811-5.809 7.065-12.044 12.646-18.53 11.865-13.793 26.852-25.148 43.343-32.836 7.755-3.615 14.908-6.023 21.262-7.157 4.367-.779 8.567.859 11.235 4.382 2.669 3.523 3.109 8.01 1.177 12.003-1.694 3.501-3.936 7.194-6.662 10.974-2.419 3.354-1.661 8.036 1.694 10.455 3.354 2.419 8.035 1.66 10.454-1.694 3.234-4.484 5.924-8.928 7.996-13.211 4.368-9.026 3.326-19.59-2.72-27.57zm-368.749-397.688c0-2.531 2.059-4.59 4.59-4.59h190.89c2.531 0 4.59 2.059 4.59 4.59v54.769h-200.07zm-10.85 89.843c-.822 0-1.491-.669-1.491-1.491v-17.114c0-.822.669-1.49 1.491-1.49h221.77c.822 0 1.491.668 1.491 1.49v17.114c0 .822-.669 1.491-1.491 1.491zm186.777 14.979v30.797h-151.784v-30.797zm43.027 365.557c-4.297 4.364-10.266 7.075-16.86 7.075h-204.117c-13.062 0-23.689-10.627-23.689-23.689v-21.946h244.956c-.678 4.282-1.174 8.586-1.458 12.896-.63 9.574-.232 18.198 1.168 25.664zm6.828-236.485h-184.639c-4.136 0-7.489 3.353-7.489 7.489s3.353 7.489 7.489 7.489h184.639v157.184c-1.254 3.549-2.371 7.148-3.348 10.784h-248.146v-167.967h31.81c4.136 0 7.489-3.353 7.489-7.489s-3.353-7.489-7.489-7.489h-31.81v-24.083c0-12.13 5.203-23.706 14.275-31.757l30.934-27.457h161.075l30.934 27.457c9.072 8.052 14.275 19.627 14.275 31.757v24.082zm55.355 169.066c-.457 6.933-1.51 13.85-3.094 20.652-2.939 2.872-5.758 5.859-8.428 8.964-6.426 7.471-11.396 14.797-14.772 21.774-3.014 6.229-3.449 13.189-1.445 19.528-3.017 3.146-7.296 4.313-11.485 3.119-4.25-1.213-7.298-4.535-8.153-8.887-1.244-6.331-1.589-13.87-1.027-22.41 1.196-18.155 6.354-36.237 14.915-52.292 4.027-7.551 8.298-13.774 12.695-18.497 2.252-2.418 5.235-3.709 8.367-3.709 1.073 0 2.163.152 3.247.461 4.25 1.212 7.298 4.534 8.153 8.886 1.244 6.332 1.589 13.872 1.027 22.411z"/><path d="m243.548 350.678c4.136 0 7.489-3.353 7.489-7.489v-7.688c0-4.136-3.353-7.489-7.489-7.489s-7.489 3.353-7.489 7.489v7.688c0 4.136 3.353 7.489 7.489 7.489z"/><path d="m86.651 309.608c-2.899 2.404-4.71 5.934-4.97 9.684-.552 7.964.044 21.823 8.6 33.132-8.558 11.31-9.153 25.167-8.6 33.131.259 3.751 2.071 7.281 4.969 9.685 2.904 2.409 6.721 3.537 10.467 3.099 21.193-2.491 33.59-12.216 40.558-20.803 9.861 12.602 22.298 22.066 37.006 28.15 11.466 4.744 23.573 7.094 35.731 7.094 12.225 0 24.5-2.387 36.229-7.096.03-.012.06-.024.091-.036 20.914-8.373 39.526-23.833 48.572-44.646 2.369-5.452 2.369-11.705-.001-17.156-4.792-11.024-12.692-20.955-21.845-28.707-7.758-6.572-15.923-11.403-25.192-15.306-23.382-9.844-50.067-10.399-73.585-.67-14.709 6.085-27.146 15.548-37.006 28.151-6.969-8.588-19.366-18.313-40.558-20.803-3.747-.439-7.561.688-10.466 3.097zm139.905-.863c.173-.248 3.682.828 4.1.935 16.185 4.122 31.313 12.882 42.017 25.851 4.594 5.566 7.339 10.716 8.893 14.292.581 1.338.661 3.045.255 4.484-.796 2.809-2.603 5.601-4.133 8.056-8.165 13.105-20.459 22.561-34.931 28.723-.051.022-.102.042-.153.064-5.191 2.189-10.554 3.847-16.048 4.954-8.942-12.849-13.644-27.858-13.644-43.679-.001-15.822 4.702-30.831 13.644-43.68zm-99.198 29.724c2.358 3.278 6.183 5.248 10.231 5.27h.066c4.059 0 7.913-1.949 10.32-5.222 8.482-11.536 19.395-20.12 32.433-25.514 9.464-3.915 19.462-5.879 29.524-5.939-7.871 13.744-11.999 29.195-11.999 45.36 0 16.166 4.128 31.617 12 45.362-10.062-.059-20.061-2.024-29.525-5.939-13.038-5.394-23.95-13.978-32.432-25.513-2.407-3.274-6.261-5.223-10.32-5.223-.022 0-.044 0-.066 0-4.048.021-7.872 1.991-10.231 5.27-6.752 9.388-17.112 15.082-30.803 16.934-.299-6.792.651-18.041 8.848-25.274 1.611-1.422 2.534-3.467 2.534-5.615s-.923-4.194-2.534-5.615c-8.197-7.233-9.147-18.479-8.848-25.273 13.69 1.85 24.05 7.543 30.802 16.931z"/></g></g></svg>