<svg id="Capa_1" enable-background="new 0 0 510.068 510.068" height="512" viewBox="0 0 510.068 510.068" width="512" xmlns="http://www.w3.org/2000/svg" xmlns:xlink="http://www.w3.org/1999/xlink"><linearGradient id="SVGID_1_" gradientUnits="userSpaceOnUse" x1="2.111" x2="488.096" y1="255.034" y2="255.034"><stop offset="0" stop-color="#f8f6f7"/><stop offset=".1788" stop-color="#f8f6f7"/><stop offset="1" stop-color="#e7e6f5"/></linearGradient><linearGradient id="lg1"><stop offset="0" stop-color="#f8f6f7"/><stop offset="1" stop-color="#d1ceeb"/></linearGradient><linearGradient id="SVGID_2_" gradientUnits="userSpaceOnUse" x1="15.034" x2="391.005" xlink:href="#lg1" y1="283.023" y2="283.023"/><linearGradient id="SVGID_3_" gradientUnits="userSpaceOnUse" x1="-33.888" x2="539.18" xlink:href="#lg1" y1="488.223" y2="488.223"/><linearGradient id="SVGID_4_" gradientUnits="userSpaceOnUse" x1="-33.888" x2="539.18" xlink:href="#lg1" y1="236.3" y2="236.3"/><linearGradient id="lg2"><stop offset="0" stop-color="#fef056"/><stop offset=".5213" stop-color="#f4d902"/><stop offset="1" stop-color="#fe9738"/></linearGradient><linearGradient id="SVGID_5_" gradientUnits="userSpaceOnUse" x1="122.105" x2="422.225" xlink:href="#lg2" y1="257.626" y2="257.626"/><linearGradient id="SVGID_6_" gradientUnits="userSpaceOnUse" x1="59.108" x2="414.793" xlink:href="#lg2" y1="257.626" y2="257.626"/><g><path d="m505.264 276.205c-13.17-52.562-51.261-92.308-98.512-109.795-35.728-13.223-65.649-38.983-82.971-72.913-28.113-55.065-85.155-92.899-151.092-93.457-94.51-.799-171.286 74.133-172.67 168.637-.436 29.739 6.713 57.769 19.636 82.283 17.833 33.828 23.134 73.103 12.743 109.905-2.99 10.591-4.529 21.79-4.389 33.37.762 62.98 51.917 114.542 114.889 115.775 24.822.486 47.928-6.743 67.084-19.452 32.499-21.562 72.461-28.919 110.679-21.138 22.737 4.63 46.859 4.299 70.867-1.893 84.264-21.735 134.887-106.909 113.736-191.322z" fill="url(#SVGID_1_)"/><circle cx="228.438" cy="283.023" fill="url(#SVGID_2_)" r="124.637"/><g><path d="m169.962 490.559c-13.251 8.792-28.396 14.956-44.688 17.763 5.746.996 11.631 1.572 17.625 1.689 24.822.486 47.928-6.743 67.084-19.452 18.422-12.222 39.243-19.875 60.784-22.799-35.15-4.744-71.095 3.088-100.805 22.799z" fill="url(#SVGID_3_)"/><path d="m505.264 276.205c-13.17-52.562-51.261-92.308-98.512-109.795-35.728-13.223-65.649-38.983-82.971-72.913-28.113-55.065-85.155-92.899-151.092-93.457-7.298-.062-14.49.331-21.551 1.146 58.008 6.732 107.171 42.458 132.622 92.31 17.323 33.93 47.243 59.691 82.971 72.913 47.251 17.487 85.342 57.233 98.512 109.795 21.151 84.413-29.471 169.588-113.736 191.323-6.521 1.682-13.05 2.917-19.559 3.752 19.356 2.491 39.506 1.426 59.579-3.752 84.265-21.735 134.888-106.909 113.737-191.322z" fill="url(#SVGID_4_)"/></g><circle cx="253.449" cy="257.626" fill="url(#SVGID_5_)" r="124.637"/><path d="m253.449 132.988c-6.812 0-13.494.555-20.01 1.606 59.321 9.575 104.627 61.008 104.627 123.031s-45.306 113.456-104.627 123.031c6.516 1.052 13.198 1.607 20.01 1.607 68.835 0 124.637-55.802 124.637-124.637 0-68.836-55.802-124.638-124.637-124.638z" fill="url(#SVGID_6_)"/></g></svg>