<svg width="24" height="32" viewBox="0 0 24 32" fill="none" xmlns="http://www.w3.org/2000/svg">
<path d="M8.19641 2.18478C7.49851 2.8887 5.5 5.21373 5.5 6.0182C5.5 7.12435 8.50448 6.62399 10 5.01504C12 3.5103 13.1919 3.5103 14 4.01188C15.2961 4.81636 15.9731 6.0182 15.9731 7.51442C15.9731 10.3301 16.3719 11.034 17.9671 11.034C20.7587 11.034 20.8584 4.21908 17.9671 1.50399C15.5743 -0.708315 10.0907 0.27416 8.19641 2.18478Z" fill="#1C9941"/>
<path d="M10.8 9.72989C10.6 12.4384 9.9 13.2409 8.8 13.0403C7.7 12.7394 6 14.0435 9.3 14.846C11.6 17.3539 11.3 24.7773 9 24.2757C7.9 23.9747 7.9 24.376 9.3 25.8807C11.6 28.3886 11.4 29.9937 8.8 31.0972C7 31.7994 7.7 32 12 32C16.7 32 17.2 31.7994 15.3 30.8965C13.5 30.094 13 28.8902 13 26.282C13 23.9747 13.8 21.8681 15.3 20.263C18.5 18.0561 17.2 17.1533 15.3 17.5545C13.5 17.8555 13.5 17.9558 13.2 12.2378C12.9 5.41631 11.3 3.81125 10.8 9.72989Z" fill="#404A46"/>
<path d="M2.07697 10.5324C-0.221468 12.2378 1.42027 16.0498 4.53959 16.0498C6.01715 16.0498 6.3455 15.3476 5.85298 13.9431C5.19628 12.4384 5.85298 11.2346 7.82307 10.4321C10.7782 9.12799 10.7782 9.02767 7.49472 9.02767C5.68881 9.02767 3.22619 9.72988 2.07697 10.5324Z" fill="#1C9941"/>
<path d="M16.4268 15.1673C17.65 15.6781 18.7374 17.3128 18.7374 18.7431C18.7374 20.6842 19.417 21.2972 21.048 20.9907C24.0381 20.5821 24.9896 17.5171 22.8149 15.576C21.8635 14.7586 19.5529 14.0435 17.5141 14.0435C14.5239 14.1456 14.2521 14.2478 16.4268 15.1673Z" fill="#1C9941"/>
<path d="M1.19251 21.5693C-0.342078 22.7748 -0.342078 23.6789 0.88559 25.5876C3.34093 29.0031 7.17739 28.9027 6.10318 25.3867C5.64281 23.5784 6.25664 22.3729 8.09814 21.3684C10.8604 20.1629 10.7069 20.0624 7.02393 20.0624C4.87551 20.0624 2.26672 20.7656 1.19251 21.5693Z" fill="#1C9941"/>
</svg>
