<svg width="210" height="57" viewBox="0 0 210 57" fill="none" xmlns="http://www.w3.org/2000/svg">
<path d="M8.19641 3.18478C7.49851 3.8887 5.5 6.21373 5.5 7.0182C5.5 8.12435 8.50448 7.62399 10 6.01504C12 4.5103 13.1919 4.5103 14 5.01188C15.2961 5.81636 15.9731 7.0182 15.9731 8.51442C15.9731 11.3301 16.3719 12.034 17.9671 12.034C20.7587 12.034 20.8584 5.21908 17.9671 2.50399C15.5743 0.291685 10.0907 1.27416 8.19641 3.18478Z" fill="#1C9941"/>
<path d="M10.8 10.7299C10.6 13.4384 9.9 14.2409 8.8 14.0403C7.7 13.7394 6 15.0435 9.3 15.846C11.6 18.3539 11.3 25.7773 9 25.2757C7.9 24.9747 7.9 25.376 9.3 26.8807C11.6 29.3886 11.4 30.9937 8.8 32.0972C7 32.7994 7.7 33 12 33C16.7 33 17.2 32.7994 15.3 31.8965C13.5 31.094 13 29.8902 13 27.282C13 24.9747 13.8 22.8681 15.3 21.263C18.5 19.0561 17.2 18.1533 15.3 18.5545C13.5 18.8555 13.5 18.9558 13.2 13.2378C12.9 6.41631 11.3 4.81125 10.8 10.7299Z" fill="#404A46"/>
<path d="M2.07697 11.5324C-0.221468 13.2378 1.42027 17.0498 4.53959 17.0498C6.01715 17.0498 6.3455 16.3476 5.85298 14.9431C5.19628 13.4384 5.85298 12.2346 7.82307 11.4321C10.7782 10.128 10.7782 10.0277 7.49472 10.0277C5.68881 10.0277 3.22619 10.7299 2.07697 11.5324Z" fill="#1C9941"/>
<path d="M16.4268 16.1673C17.65 16.6781 18.7374 18.3128 18.7374 19.7431C18.7374 21.6842 19.417 22.2972 21.048 21.9907C24.0381 21.5821 24.9896 18.5171 22.8149 16.576C21.8635 15.7586 19.5529 15.0435 17.5141 15.0435C14.5239 15.1456 14.2521 15.2478 16.4268 16.1673Z" fill="#1C9941"/>
<path d="M1.19251 22.5693C-0.342078 23.7748 -0.342078 24.6789 0.88559 26.5876C3.34093 30.0031 7.17739 29.9027 6.10318 26.3867C5.64281 24.5784 6.25664 23.3729 8.09814 22.3684C10.8604 21.1629 10.7069 21.0624 7.02393 21.0624C4.87551 21.0624 2.26672 21.7656 1.19251 22.5693Z" fill="#1C9941"/>
<path d="M30.6875 27.5625V9.51562C30.6875 8.57812 30.901 7.875 31.3281 7.40625C31.7552 6.9375 32.3073 6.70312 32.9844 6.70312C33.6823 6.70312 34.2448 6.9375 34.6719 7.40625C35.1094 7.86458 35.3281 8.56771 35.3281 9.51562V27.5625C35.3281 28.5104 35.1094 29.2188 34.6719 29.6875C34.2448 30.1562 33.6823 30.3906 32.9844 30.3906C32.3177 30.3906 31.7656 30.1562 31.3281 29.6875C30.901 29.2083 30.6875 28.5 30.6875 27.5625ZM55.7019 22.0312V27.7031C55.7019 28.599 55.4987 29.2708 55.0925 29.7188C54.6862 30.1667 54.1498 30.3906 53.4831 30.3906C52.8373 30.3906 52.3112 30.1667 51.905 29.7188C51.5092 29.2708 51.3112 28.599 51.3112 27.7031V20.9062C51.3112 19.8333 51.2748 19 51.2019 18.4062C51.129 17.8125 50.931 17.3281 50.6081 16.9531C50.2852 16.5677 49.7748 16.375 49.0769 16.375C47.681 16.375 46.7592 16.8542 46.3112 17.8125C45.8737 18.7708 45.655 20.1458 45.655 21.9375V27.7031C45.655 28.5885 45.4519 29.2604 45.0456 29.7188C44.6498 30.1667 44.1237 30.3906 43.4675 30.3906C42.8217 30.3906 42.2904 30.1667 41.8737 29.7188C41.4675 29.2604 41.2644 28.5885 41.2644 27.7031V15.5C41.2644 14.6979 41.4467 14.0885 41.8112 13.6719C42.1862 13.2552 42.6758 13.0469 43.28 13.0469C43.8633 13.0469 44.3477 13.2448 44.7331 13.6406C45.129 14.026 45.3269 14.5625 45.3269 15.25V15.6562C46.0665 14.7708 46.8581 14.1198 47.7019 13.7031C48.5456 13.2865 49.4831 13.0781 50.5144 13.0781C51.5873 13.0781 52.5092 13.2917 53.28 13.7188C54.0508 14.1458 54.6862 14.7917 55.1862 15.6562C55.905 14.7812 56.6758 14.1354 57.4987 13.7188C58.3217 13.2917 59.2331 13.0781 60.2331 13.0781C61.3998 13.0781 62.405 13.3073 63.2487 13.7656C64.0925 14.224 64.7227 14.8802 65.1394 15.7344C65.504 16.5052 65.6862 17.7188 65.6862 19.375V27.7031C65.6862 28.599 65.4831 29.2708 65.0769 29.7188C64.6706 30.1667 64.1342 30.3906 63.4675 30.3906C62.8217 30.3906 62.2904 30.1667 61.8737 29.7188C61.4675 29.2604 61.2644 28.5885 61.2644 27.7031V20.5312C61.2644 19.6146 61.2227 18.8802 61.1394 18.3281C61.0665 17.776 60.8581 17.3125 60.5144 16.9375C60.1706 16.5625 59.6498 16.375 58.9519 16.375C58.3894 16.375 57.8529 16.5417 57.3425 16.875C56.8425 17.2083 56.4519 17.6562 56.1706 18.2188C55.8581 18.9375 55.7019 20.2083 55.7019 22.0312ZM81.7475 27.9844V27.4375C81.2371 28.0833 80.7006 28.625 80.1381 29.0625C79.5756 29.5 78.961 29.8229 78.2944 30.0312C77.6277 30.25 76.8673 30.3594 76.0131 30.3594C74.9819 30.3594 74.0548 30.1458 73.2319 29.7188C72.4194 29.2917 71.7892 28.7031 71.3413 27.9531C70.81 27.0469 70.5444 25.7448 70.5444 24.0469V15.5938C70.5444 14.7396 70.7371 14.1042 71.1225 13.6875C71.5079 13.2604 72.0183 13.0469 72.6538 13.0469C73.2996 13.0469 73.8204 13.2604 74.2163 13.6875C74.6121 14.1146 74.81 14.75 74.81 15.5938V22.4219C74.81 23.4115 74.8933 24.2448 75.06 24.9219C75.2267 25.5885 75.5235 26.1146 75.9506 26.5C76.3881 26.875 76.9767 27.0625 77.7163 27.0625C78.435 27.0625 79.1121 26.849 79.7475 26.4219C80.3829 25.9948 80.8465 25.4375 81.1381 24.75C81.3777 24.1458 81.4975 22.8229 81.4975 20.7812V15.5938C81.4975 14.75 81.6954 14.1146 82.0913 13.6875C82.4871 13.2604 83.0027 13.0469 83.6381 13.0469C84.2735 13.0469 84.784 13.2604 85.1694 13.6875C85.5548 14.1042 85.7475 14.7396 85.7475 15.5938V27.9531C85.7475 28.7656 85.56 29.375 85.185 29.7812C84.8204 30.1875 84.3465 30.3906 83.7631 30.3906C83.1798 30.3906 82.6954 30.1823 82.31 29.7656C81.935 29.3385 81.7475 28.7448 81.7475 27.9844ZM95.1681 15.4062V15.9219C95.9181 14.9323 96.7358 14.2083 97.6213 13.75C98.5171 13.2812 99.5431 13.0469 100.699 13.0469C101.824 13.0469 102.83 13.2917 103.715 13.7812C104.6 14.2708 105.262 14.9635 105.699 15.8594C105.981 16.3802 106.163 16.9427 106.246 17.5469C106.33 18.151 106.371 18.9219 106.371 19.8594V27.7969C106.371 28.651 106.173 29.2969 105.778 29.7344C105.392 30.1719 104.887 30.3906 104.262 30.3906C103.626 30.3906 103.111 30.1667 102.715 29.7188C102.319 29.2708 102.121 28.6302 102.121 27.7969V20.6875C102.121 19.2812 101.923 18.2083 101.528 17.4688C101.142 16.7188 100.366 16.3438 99.1994 16.3438C98.439 16.3438 97.7463 16.5729 97.1213 17.0312C96.4963 17.4792 96.0379 18.099 95.7463 18.8906C95.5379 19.526 95.4338 20.7135 95.4338 22.4531V27.7969C95.4338 28.6615 95.2306 29.3125 94.8244 29.75C94.4285 30.1771 93.9129 30.3906 93.2775 30.3906C92.6629 30.3906 92.1577 30.1667 91.7619 29.7188C91.366 29.2708 91.1681 28.6302 91.1681 27.7969V15.4688C91.1681 14.6562 91.3452 14.0521 91.6994 13.6562C92.0535 13.25 92.5379 13.0469 93.1525 13.0469C93.5275 13.0469 93.866 13.1354 94.1681 13.3125C94.4702 13.4896 94.7098 13.7552 94.8869 14.1094C95.0744 14.4635 95.1681 14.8958 95.1681 15.4062ZM127.886 21.7188C127.886 22.9896 127.688 24.1615 127.292 25.2344C126.896 26.3073 126.323 27.2292 125.573 28C124.823 28.7708 123.927 29.3646 122.886 29.7812C121.844 30.1875 120.672 30.3906 119.37 30.3906C118.078 30.3906 116.917 30.1823 115.886 29.7656C114.854 29.349 113.959 28.7552 113.198 27.9844C112.448 27.2031 111.875 26.2865 111.479 25.2344C111.094 24.1719 110.901 23 110.901 21.7188C110.901 20.4271 111.099 19.2448 111.495 18.1719C111.891 17.099 112.459 16.1823 113.198 15.4219C113.938 14.6615 114.834 14.0781 115.886 13.6719C116.938 13.2552 118.099 13.0469 119.37 13.0469C120.662 13.0469 121.834 13.2552 122.886 13.6719C123.938 14.0885 124.839 14.6823 125.589 15.4531C126.339 16.224 126.906 17.1406 127.292 18.2031C127.688 19.2656 127.886 20.4375 127.886 21.7188ZM123.604 21.7188C123.604 19.9792 123.219 18.625 122.448 17.6562C121.688 16.6875 120.662 16.2031 119.37 16.2031C118.537 16.2031 117.802 16.4219 117.167 16.8594C116.531 17.2865 116.042 17.9219 115.698 18.7656C115.354 19.6094 115.183 20.5938 115.183 21.7188C115.183 22.8333 115.349 23.8073 115.683 24.6406C116.026 25.474 116.511 26.1146 117.136 26.5625C117.771 27 118.516 27.2188 119.37 27.2188C120.662 27.2188 121.688 26.7344 122.448 25.7656C123.219 24.7865 123.604 23.4375 123.604 21.7188ZM136.478 15.4375V15.9531C137.28 14.9635 138.114 14.2396 138.978 13.7812C139.843 13.3125 140.822 13.0781 141.916 13.0781C143.228 13.0781 144.436 13.4167 145.541 14.0938C146.645 14.7708 147.515 15.7604 148.15 17.0625C148.796 18.3646 149.119 19.9062 149.119 21.6875C149.119 23 148.931 24.2083 148.556 25.3125C148.192 26.4062 147.686 27.3281 147.041 28.0781C146.395 28.8177 145.629 29.3906 144.744 29.7969C143.869 30.1927 142.926 30.3906 141.916 30.3906C140.697 30.3906 139.671 30.1458 138.838 29.6562C138.015 29.1667 137.228 28.4479 136.478 27.5V33.9062C136.478 35.7812 135.796 36.7188 134.431 36.7188C133.629 36.7188 133.098 36.474 132.838 35.9844C132.577 35.5052 132.447 34.8021 132.447 33.875V15.4688C132.447 14.6562 132.624 14.0521 132.978 13.6562C133.332 13.25 133.817 13.0469 134.431 13.0469C135.035 13.0469 135.525 13.2552 135.9 13.6719C136.285 14.0781 136.478 14.6667 136.478 15.4375ZM144.838 21.6406C144.838 20.5156 144.666 19.5521 144.322 18.75C143.978 17.9375 143.499 17.3177 142.884 16.8906C142.28 16.4531 141.608 16.2344 140.869 16.2344C139.692 16.2344 138.697 16.6979 137.884 17.625C137.082 18.5521 136.681 19.9167 136.681 21.7188C136.681 23.4167 137.082 24.7396 137.884 25.6875C138.686 26.625 139.681 27.0938 140.869 27.0938C141.577 27.0938 142.233 26.8906 142.838 26.4844C143.442 26.0677 143.926 25.4479 144.291 24.625C144.655 23.8021 144.838 22.8073 144.838 21.6406ZM153.821 27.7969V9.29688C153.821 8.44271 154.008 7.79688 154.383 7.35938C154.769 6.92188 155.284 6.70312 155.93 6.70312C156.576 6.70312 157.097 6.92188 157.493 7.35938C157.888 7.78646 158.086 8.43229 158.086 9.29688V27.7969C158.086 28.6615 157.883 29.3125 157.477 29.75C157.081 30.1771 156.565 30.3906 155.93 30.3906C155.305 30.3906 154.795 30.1667 154.399 29.7188C154.013 29.2708 153.821 28.6302 153.821 27.7969ZM174.569 27.9844C173.538 28.7865 172.538 29.3906 171.569 29.7969C170.611 30.1927 169.533 30.3906 168.335 30.3906C167.241 30.3906 166.278 30.1771 165.444 29.75C164.621 29.3125 163.986 28.724 163.538 27.9844C163.09 27.2448 162.866 26.4427 162.866 25.5781C162.866 24.4115 163.236 23.4167 163.976 22.5938C164.715 21.7708 165.731 21.2188 167.023 20.9375C167.293 20.875 167.965 20.7344 169.038 20.5156C170.111 20.2969 171.028 20.099 171.788 19.9219C172.559 19.7344 173.392 19.5104 174.288 19.25C174.236 18.125 174.007 17.3021 173.601 16.7812C173.205 16.25 172.377 15.9844 171.116 15.9844C170.033 15.9844 169.215 16.1354 168.663 16.4375C168.121 16.7396 167.653 17.1927 167.257 17.7969C166.871 18.401 166.595 18.8021 166.429 19C166.273 19.1875 165.929 19.2812 165.398 19.2812C164.918 19.2812 164.502 19.1302 164.148 18.8281C163.804 18.5156 163.632 18.1198 163.632 17.6406C163.632 16.8906 163.898 16.1615 164.429 15.4531C164.96 14.7448 165.788 14.1615 166.913 13.7031C168.038 13.2448 169.439 13.0156 171.116 13.0156C172.991 13.0156 174.465 13.2396 175.538 13.6875C176.611 14.125 177.366 14.8229 177.804 15.7812C178.252 16.7396 178.476 18.0104 178.476 19.5938C178.476 20.5938 178.47 21.4427 178.46 22.1406C178.46 22.8385 178.455 23.6146 178.444 24.4688C178.444 25.2708 178.575 26.1094 178.835 26.9844C179.106 27.849 179.241 28.4062 179.241 28.6562C179.241 29.0938 179.033 29.4948 178.616 29.8594C178.21 30.2135 177.746 30.3906 177.226 30.3906C176.788 30.3906 176.356 30.1875 175.929 29.7812C175.502 29.3646 175.049 28.7656 174.569 27.9844ZM174.288 21.8125C173.663 22.0417 172.752 22.2865 171.554 22.5469C170.366 22.7969 169.543 22.9844 169.085 23.1094C168.627 23.224 168.189 23.4583 167.773 23.8125C167.356 24.1562 167.148 24.6406 167.148 25.2656C167.148 25.9115 167.392 26.4635 167.882 26.9219C168.371 27.3698 169.012 27.5938 169.804 27.5938C170.648 27.5938 171.424 27.4115 172.132 27.0469C172.851 26.6719 173.377 26.1927 173.71 25.6094C174.095 24.9635 174.288 23.901 174.288 22.4219V21.8125ZM187.974 15.4062V15.9219C188.724 14.9323 189.542 14.2083 190.428 13.75C191.323 13.2812 192.349 13.0469 193.506 13.0469C194.631 13.0469 195.636 13.2917 196.521 13.7812C197.407 14.2708 198.068 14.9635 198.506 15.8594C198.787 16.3802 198.969 16.9427 199.053 17.5469C199.136 18.151 199.178 18.9219 199.178 19.8594V27.7969C199.178 28.651 198.98 29.2969 198.584 29.7344C198.198 30.1719 197.693 30.3906 197.068 30.3906C196.433 30.3906 195.917 30.1667 195.521 29.7188C195.125 29.2708 194.928 28.6302 194.928 27.7969V20.6875C194.928 19.2812 194.73 18.2083 194.334 17.4688C193.948 16.7188 193.172 16.3438 192.006 16.3438C191.245 16.3438 190.553 16.5729 189.928 17.0312C189.303 17.4792 188.844 18.099 188.553 18.8906C188.344 19.526 188.24 20.7135 188.24 22.4531V27.7969C188.24 28.6615 188.037 29.3125 187.631 29.75C187.235 30.1771 186.719 30.3906 186.084 30.3906C185.469 30.3906 184.964 30.1667 184.568 29.7188C184.172 29.2708 183.974 28.6302 183.974 27.7969V15.4688C183.974 14.6562 184.151 14.0521 184.506 13.6562C184.86 13.25 185.344 13.0469 185.959 13.0469C186.334 13.0469 186.672 13.1354 186.974 13.3125C187.276 13.4896 187.516 13.7552 187.693 14.1094C187.881 14.4635 187.974 14.8958 187.974 15.4062Z" fill="#1C9941"/>
<path d="M34.6719 7.40625L34.1544 7.87769L34.1599 7.8837L34.1655 7.88958L34.6719 7.40625ZM34.6719 29.6875L34.1601 29.2098L34.1544 29.2161L34.6719 29.6875ZM31.3281 29.6875L30.8056 30.1533L30.8109 30.1593L30.8164 30.1651L31.3281 29.6875ZM31.3875 27.5625V9.51562H29.9875V27.5625H31.3875ZM31.3875 9.51562C31.3875 8.67073 31.5813 8.16769 31.8456 7.87769L30.8107 6.93481C30.2207 7.58231 29.9875 8.48552 29.9875 9.51562H31.3875ZM31.8456 7.87769C32.1302 7.56526 32.4892 7.40312 32.9844 7.40312V6.00313C32.1253 6.00313 31.3802 6.30974 30.8107 6.93481L31.8456 7.87769ZM32.9844 7.40312C33.5074 7.40312 33.8742 7.5701 34.1544 7.87769L35.1893 6.93481C34.6154 6.3049 33.8572 6.00313 32.9844 6.00313V7.40312ZM34.1655 7.88958C34.4291 8.1657 34.6281 8.66001 34.6281 9.51562H36.0281C36.0281 8.47541 35.7897 7.56347 35.1782 6.92292L34.1655 7.88958ZM34.6281 9.51562V27.5625H36.0281V9.51562H34.6281ZM34.6281 27.5625C34.6281 28.4165 34.4297 28.921 34.1601 29.2099L35.1836 30.1651C35.789 29.5165 36.0281 28.6043 36.0281 27.5625H34.6281ZM34.1544 29.2161C33.8742 29.5237 33.5074 29.6906 32.9844 29.6906V31.0906C33.8572 31.0906 34.6154 30.7888 35.1893 30.1589L34.1544 29.2161ZM32.9844 29.6906C32.503 29.6906 32.1392 29.5305 31.8399 29.2099L30.8164 30.1651C31.3921 30.782 32.1324 31.0906 32.9844 31.0906V29.6906ZM31.8507 29.2217C31.5807 28.9189 31.3875 28.4059 31.3875 27.5625H29.9875C29.9875 28.5941 30.2213 29.4978 30.8056 30.1533L31.8507 29.2217ZM51.905 29.7188L51.3804 30.1823L51.3865 30.189L51.905 29.7188ZM50.6081 16.9531L50.0715 17.4027L50.0777 17.4099L50.6081 16.9531ZM46.3112 17.8125L45.6771 17.5161L45.6745 17.5218L46.3112 17.8125ZM45.0456 29.7188L44.5218 29.2544L44.5211 29.2552L45.0456 29.7188ZM41.8737 29.7188L41.3499 30.1831L41.3555 30.1894L41.3612 30.1955L41.8737 29.7188ZM41.8112 13.6719L41.2909 13.2036L41.2844 13.2109L41.8112 13.6719ZM44.7331 13.6406L44.2316 14.129L44.2381 14.1356L44.2448 14.1422L44.7331 13.6406ZM45.3269 15.6562H44.6269V17.5862L45.8641 16.105L45.3269 15.6562ZM47.7019 13.7031L48.0118 14.3308L47.7019 13.7031ZM53.28 13.7188L53.6192 13.1065L53.28 13.7188ZM55.1862 15.6562L54.5803 16.0067L55.086 16.8811L55.7272 16.1006L55.1862 15.6562ZM57.4987 13.7188L57.815 14.3433L57.8212 14.3401L57.4987 13.7188ZM63.2487 13.7656L63.5829 13.1505L63.2487 13.7656ZM65.1394 15.7344L65.7722 15.4351L65.7685 15.4275L65.1394 15.7344ZM61.8737 29.7188L61.3499 30.1831L61.3555 30.1894L61.3612 30.1955L61.8737 29.7188ZM61.1394 18.3281L60.4453 18.4198L60.4472 18.4326L61.1394 18.3281ZM57.3425 16.875L56.9597 16.2889L56.9542 16.2926L57.3425 16.875ZM56.1706 18.2188L55.5445 17.9057L55.5361 17.9225L55.5287 17.9396L56.1706 18.2188ZM55.0019 22.0312V27.7031H56.4019V22.0312H55.0019ZM55.0019 27.7031C55.0019 28.507 54.8181 28.9793 54.574 29.2485L55.611 30.189C56.1794 29.5624 56.4019 28.6909 56.4019 27.7031H55.0019ZM54.574 29.2485C54.3149 29.5342 53.9749 29.6906 53.4831 29.6906V31.0906C54.3247 31.0906 55.0576 30.7992 55.611 30.189L54.574 29.2485ZM53.4831 29.6906C53.0197 29.6906 52.6872 29.5393 52.4235 29.2485L51.3865 30.189C51.9353 30.7941 52.6549 31.0906 53.4831 31.0906V29.6906ZM52.4295 29.2552C52.1916 28.986 52.0112 28.5109 52.0112 27.7031H50.6112C50.6112 28.687 50.8267 29.5557 51.3805 30.1823L52.4295 29.2552ZM52.0112 27.7031V20.9062H50.6112V27.7031H52.0112ZM52.0112 20.9062C52.0112 19.8234 51.9747 18.9568 51.8967 18.3209L50.5071 18.4916C50.5748 19.0432 50.6112 19.8433 50.6112 20.9062H52.0112ZM51.8967 18.3209C51.8104 17.6189 51.5691 16.9964 51.1386 16.4964L50.0777 17.4099C50.2929 17.6599 50.4475 18.0061 50.5071 18.4916L51.8967 18.3209ZM51.1447 16.5036C50.6428 15.9045 49.8977 15.675 49.0769 15.675V17.075C49.6519 17.075 49.9276 17.2309 50.0716 17.4027L51.1447 16.5036ZM49.0769 15.675C47.5125 15.675 46.2782 16.23 45.6771 17.5161L46.9454 18.1089C47.2401 17.4783 47.8496 17.075 49.0769 17.075V15.675ZM45.6745 17.5218C45.1759 18.614 44.955 20.1063 44.955 21.9375H46.355C46.355 20.1854 46.5716 18.9277 46.948 18.1032L45.6745 17.5218ZM44.955 21.9375V27.7031H46.355V21.9375H44.955ZM44.955 27.7031C44.955 28.4926 44.773 28.971 44.5218 29.2544L45.5695 30.1831C46.1307 29.5499 46.355 28.6845 46.355 27.7031H44.955ZM44.5211 29.2552C44.2721 29.537 43.9451 29.6906 43.4675 29.6906V31.0906C44.3024 31.0906 45.0275 30.7963 45.5702 30.1823L44.5211 29.2552ZM43.4675 29.6906C43.0039 29.6906 42.6624 29.5389 42.3863 29.242L41.3612 30.1955C41.9184 30.7945 42.6394 31.0906 43.4675 31.0906V29.6906ZM42.3976 29.2544C42.1463 28.971 41.9644 28.4926 41.9644 27.7031H40.5644C40.5644 28.6845 40.7887 29.5499 41.3499 30.1831L42.3976 29.2544ZM41.9644 27.7031V15.5H40.5644V27.7031H41.9644ZM41.9644 15.5C41.9644 14.7927 42.1261 14.3751 42.3381 14.1328L41.2844 13.2109C40.7672 13.802 40.5644 14.6031 40.5644 15.5H41.9644ZM42.3316 14.1402C42.5626 13.8834 42.8569 13.7469 43.28 13.7469V12.3469C42.4947 12.3469 41.8099 12.627 41.2909 13.2036L42.3316 14.1402ZM43.28 13.7469C43.6862 13.7469 43.9859 13.8767 44.2316 14.129L45.2347 13.1523C44.7095 12.6129 44.0404 12.3469 43.28 12.3469V13.7469ZM44.2448 14.1422C44.4738 14.3651 44.6269 14.7023 44.6269 15.25H46.0269C46.0269 14.4227 45.7841 13.687 45.2215 13.1391L44.2448 14.1422ZM44.6269 15.25V15.6562H46.0269V15.25H44.6269ZM45.8641 16.105C46.555 15.2779 47.2729 14.6957 48.0118 14.3308L47.3919 13.0755C46.4434 13.5439 45.5779 14.2638 44.7896 15.2075L45.8641 16.105ZM48.0118 14.3308C48.7502 13.9661 49.5802 13.7781 50.5144 13.7781V12.3781C49.3861 12.3781 48.341 12.6068 47.3919 13.0755L48.0118 14.3308ZM50.5144 13.7781C51.4942 13.7781 52.2941 13.9727 52.9408 14.331L53.6192 13.1065C52.7243 12.6106 51.6803 12.3781 50.5144 12.3781V13.7781ZM52.9408 14.331C53.5864 14.6888 54.1352 15.237 54.5803 16.0067L55.7922 15.3058C55.2373 14.3463 54.5153 13.6029 53.6192 13.1065L52.9408 14.331ZM55.7272 16.1006C56.398 15.2839 57.096 14.7073 57.815 14.3433L57.1825 13.0942C56.2557 13.5635 55.412 14.2786 54.6453 15.2119L55.7272 16.1006ZM57.8212 14.3401C58.5368 13.9687 59.3363 13.7781 60.2331 13.7781V12.3781C59.1299 12.3781 58.1066 12.6146 57.1763 13.0974L57.8212 14.3401ZM60.2331 13.7781C61.308 13.7781 62.1933 13.9889 62.9146 14.3807L63.5829 13.1505C62.6167 12.6257 61.4916 12.3781 60.2331 12.3781V13.7781ZM62.9146 14.3807C63.6318 14.7703 64.1581 15.3195 64.5102 16.0413L65.7685 15.4275C65.2873 14.4409 64.5532 13.6776 63.5829 13.1505L62.9146 14.3807ZM64.5066 16.0337C64.8023 16.6588 64.9862 17.7427 64.9862 19.375H66.3862C66.3862 17.6948 66.2057 16.3516 65.7722 15.4351L64.5066 16.0337ZM64.9862 19.375V27.7031H66.3862V19.375H64.9862ZM64.9862 27.7031C64.9862 28.507 64.8025 28.9793 64.5584 29.2485L65.5954 30.189C66.1638 29.5624 66.3862 28.6909 66.3862 27.7031H64.9862ZM64.5584 29.2485C64.2993 29.5342 63.9592 29.6906 63.4675 29.6906V31.0906C64.3091 31.0906 65.042 30.7992 65.5954 30.189L64.5584 29.2485ZM63.4675 29.6906C63.0039 29.6906 62.6624 29.5389 62.3863 29.242L61.3612 30.1955C61.9184 30.7945 62.6394 31.0906 63.4675 31.0906V29.6906ZM62.3976 29.2544C62.1463 28.971 61.9644 28.4926 61.9644 27.7031H60.5644C60.5644 28.6845 60.7887 29.5499 61.3499 30.1831L62.3976 29.2544ZM61.9644 27.7031V20.5312H60.5644V27.7031H61.9644ZM61.9644 20.5312C61.9644 19.5987 61.9223 18.8251 61.8315 18.2236L60.4472 18.4326C60.5231 18.9353 60.5644 19.6304 60.5644 20.5312H61.9644ZM61.8333 18.2365C61.7435 17.5562 61.4804 16.9554 61.0304 16.4645L59.9984 17.4105C60.2359 17.6696 60.3894 17.9959 60.4454 18.4198L61.8333 18.2365ZM61.0304 16.4645C60.5103 15.8972 59.7703 15.675 58.9519 15.675V17.075C59.5292 17.075 59.8309 17.2278 59.9984 17.4105L61.0304 16.4645ZM58.9519 15.675C58.242 15.675 57.574 15.8877 56.9597 16.2889L57.7253 17.4611C58.1318 17.1956 58.5367 17.075 58.9519 17.075V15.675ZM56.9542 16.2926C56.3481 16.6967 55.8776 17.2395 55.5445 17.9057L56.7967 18.5318C57.0261 18.073 57.3369 17.72 57.7308 17.4574L56.9542 16.2926ZM55.5287 17.9396C55.1527 18.8043 55.0019 20.2067 55.0019 22.0312H56.4019C56.4019 20.2099 56.5635 19.0707 56.8126 18.4979L55.5287 17.9396ZM81.7475 27.4375H82.4475V25.4229L81.1983 27.0035L81.7475 27.4375ZM78.2944 30.0312L78.0856 29.363L78.0761 29.3661L78.2944 30.0312ZM73.2319 29.7188L72.9062 30.3384L72.9094 30.3401L73.2319 29.7188ZM71.3413 27.9531L70.7373 28.3071L70.7403 28.312L71.3413 27.9531ZM71.1225 13.6875L71.6364 14.1629L71.6422 14.1565L71.1225 13.6875ZM74.2163 13.6875L74.7297 13.2117L74.2163 13.6875ZM75.06 24.9219L74.3803 25.0892L74.3809 25.0916L75.06 24.9219ZM75.9506 26.5L75.4817 27.0197L75.4883 27.0257L75.4951 27.0315L75.9506 26.5ZM79.7475 26.4219L79.357 25.8409L79.7475 26.4219ZM81.1381 24.75L81.7825 25.0234L81.7858 25.0157L81.7888 25.008L81.1381 24.75ZM82.0913 13.6875L81.5779 13.2117L82.0913 13.6875ZM85.1694 13.6875L84.6497 14.1565L84.6555 14.1628L85.1694 13.6875ZM85.185 29.7812L84.6706 29.3064L84.664 29.3137L85.185 29.7812ZM82.31 29.7656L81.784 30.2275L81.79 30.2343L81.7961 30.241L82.31 29.7656ZM82.4475 27.9844V27.4375H81.0475V27.9844H82.4475ZM81.1983 27.0035C80.7175 27.6118 80.2202 28.1119 79.7084 28.51L80.5679 29.615C81.1811 29.1381 81.7566 28.5549 82.2967 27.8715L81.1983 27.0035ZM79.7084 28.51C79.2106 28.8971 78.6706 29.1803 78.0856 29.3631L78.5032 30.6994C79.2515 30.4655 79.9406 30.1029 80.5679 29.615L79.7084 28.51ZM78.0761 29.3661C77.4933 29.5574 76.8087 29.6594 76.0131 29.6594V31.0594C76.9259 31.0594 77.7621 30.9426 78.5126 30.6964L78.0761 29.3661ZM76.0131 29.6594C75.0813 29.6594 74.2669 29.4672 73.5543 29.0974L72.9094 30.3401C73.8427 30.8244 74.8824 31.0594 76.0131 31.0594V29.6594ZM73.5576 29.0991C72.853 28.7288 72.3207 28.2279 71.9422 27.5942L70.7403 28.312C71.2576 29.1783 71.9857 29.8545 72.9062 30.3384L73.5576 29.0991ZM71.9451 27.5991C71.5044 26.8472 71.2444 25.6893 71.2444 24.0469H69.8444C69.8444 25.8002 70.1156 27.2465 70.7374 28.3071L71.9451 27.5991ZM71.2444 24.0469V15.5938H69.8444V24.0469H71.2444ZM71.2444 15.5938C71.2444 14.829 71.4188 14.3981 71.6364 14.1628L70.6086 13.2122C70.0554 13.8103 69.8444 14.6502 69.8444 15.5938H71.2444ZM71.6422 14.1565C71.8801 13.8928 72.1933 13.7469 72.6538 13.7469V12.3469C71.8433 12.3469 71.1357 12.628 70.6028 13.2185L71.6422 14.1565ZM72.6538 13.7469C73.1283 13.7469 73.4547 13.8956 73.7029 14.1633L74.7297 13.2117C74.1861 12.6252 73.4709 12.3469 72.6538 12.3469V13.7469ZM73.7029 14.1633C73.9343 14.4131 74.11 14.848 74.11 15.5938H75.51C75.51 14.652 75.2898 13.8161 74.7297 13.2117L73.7029 14.1633ZM74.11 15.5938V22.4219H75.51V15.5938H74.11ZM74.11 22.4219C74.11 23.4464 74.1958 24.3398 74.3803 25.0892L75.7397 24.7546C75.5908 24.1497 75.51 23.3765 75.51 22.4219H74.11ZM74.3809 25.0916C74.5746 25.8665 74.9326 26.5242 75.4817 27.0197L76.4196 25.9803C76.1145 25.705 75.8787 25.3105 75.7391 24.7521L74.3809 25.0916ZM75.4951 27.0315C76.092 27.5431 76.8581 27.7625 77.7163 27.7625V26.3625C77.0953 26.3625 76.6843 26.2069 76.4062 25.9685L75.4951 27.0315ZM77.7163 27.7625C78.5833 27.7625 79.395 27.5022 80.138 27.0028L79.357 25.8409C78.8291 26.1957 78.2867 26.3625 77.7163 26.3625V27.7625ZM80.138 27.0028C80.8831 26.502 81.4364 25.8392 81.7825 25.0234L80.4937 24.4766C80.2565 25.0358 79.8828 25.4875 79.357 25.8409L80.138 27.0028ZM81.7888 25.008C81.9476 24.6076 82.0438 24.0416 82.1048 23.3678C82.1673 22.6774 82.1975 21.8133 82.1975 20.7812H80.7975C80.7975 21.7909 80.7678 22.609 80.7105 23.2416C80.6517 23.8906 80.5682 24.2883 80.4874 24.492L81.7888 25.008ZM82.1975 20.7812V15.5938H80.7975V20.7812H82.1975ZM82.1975 15.5938C82.1975 14.848 82.3732 14.4131 82.6047 14.1633L81.5779 13.2117C81.0177 13.8161 80.7975 14.652 80.7975 15.5938H82.1975ZM82.6047 14.1633C82.8551 13.8931 83.1778 13.7469 83.6381 13.7469V12.3469C82.8276 12.3469 82.119 12.6277 81.5779 13.2117L82.6047 14.1633ZM83.6381 13.7469C84.0985 13.7469 84.4117 13.8928 84.6497 14.1565L85.6891 13.2185C85.1562 12.628 84.4485 12.3469 83.6381 12.3469V13.7469ZM84.6555 14.1628C84.8731 14.3981 85.0475 14.829 85.0475 15.5938H86.4475C86.4475 14.6502 86.2365 13.8103 85.6832 13.2122L84.6555 14.1628ZM85.0475 15.5938V27.9531H86.4475V15.5938H85.0475ZM85.0475 27.9531C85.0475 28.671 84.8807 29.0789 84.6706 29.3065L85.6994 30.256C86.2393 29.6711 86.4475 28.8602 86.4475 27.9531H85.0475ZM84.664 29.3137C84.4422 29.5609 84.1631 29.6906 83.7631 29.6906V31.0906C84.5299 31.0906 85.1987 30.8141 85.706 30.2488L84.664 29.3137ZM83.7631 29.6906C83.3688 29.6906 83.0727 29.5593 82.8239 29.2903L81.7961 30.241C82.3181 30.8053 82.9908 31.0906 83.7631 31.0906V29.6906ZM82.836 29.3038C82.6064 29.0422 82.4475 28.633 82.4475 27.9844H81.0475C81.0475 28.8566 81.2636 29.6349 81.784 30.2275L82.836 29.3038ZM95.1681 15.9219H94.4681V18.0044L95.726 16.3447L95.1681 15.9219ZM97.6213 13.75L97.943 14.3717L97.9458 14.3702L97.6213 13.75ZM103.715 13.7812L104.054 13.1687L103.715 13.7812ZM105.699 15.8594L105.07 16.1666L105.077 16.1794L105.083 16.192L105.699 15.8594ZM105.778 29.7344L105.258 29.2647L105.252 29.2717L105.778 29.7344ZM101.528 17.4688L100.905 17.7887L100.91 17.7991L101.528 17.4688ZM97.1213 17.0312L97.529 17.6003L97.5352 17.5957L97.1213 17.0312ZM95.7463 18.8906L95.0894 18.6486L95.085 18.6605L95.0811 18.6725L95.7463 18.8906ZM94.8244 29.75L94.3114 29.2737L94.311 29.2742L94.8244 29.75ZM91.6994 13.6562L92.2211 14.123L92.227 14.1162L91.6994 13.6562ZM94.8869 14.1094L94.2608 14.4224L94.2644 14.4297L94.2682 14.4369L94.8869 14.1094ZM94.4681 15.4062V15.9219H95.8681V15.4062H94.4681ZM95.726 16.3447C96.4281 15.4183 97.17 14.7718 97.943 14.3716L97.2995 13.1284C96.3017 13.6448 95.4081 14.4463 94.6102 15.4991L95.726 16.3447ZM97.9458 14.3702C98.7279 13.961 99.6398 13.7469 100.699 13.7469V12.3469C99.4464 12.3469 98.3063 12.6015 97.2967 13.1298L97.9458 14.3702ZM100.699 13.7469C101.719 13.7469 102.606 13.9678 103.376 14.3938L104.054 13.1687C103.053 12.6155 101.929 12.3469 100.699 12.3469V13.7469ZM103.376 14.3938C104.138 14.815 104.697 15.402 105.07 16.1666L106.328 15.5522C105.827 14.5251 105.063 13.7267 104.054 13.1687L103.376 14.3938ZM105.083 16.192C105.324 16.6369 105.481 17.1188 105.553 17.6425L106.94 17.4512C106.845 16.7666 106.638 16.1236 106.315 15.5268L105.083 16.192ZM105.553 17.6425C105.63 18.203 105.671 18.9388 105.671 19.8594H107.071C107.071 18.9049 107.029 18.0991 106.94 17.4512L105.553 17.6425ZM105.671 19.8594V27.7969H107.071V19.8594H105.671ZM105.671 27.7969C105.671 28.5542 105.495 29.0033 105.258 29.2647L106.297 30.204C106.852 29.5904 107.071 28.7479 107.071 27.7969H105.671ZM105.252 29.2717C105.01 29.5465 104.702 29.6906 104.262 29.6906V31.0906C105.072 31.0906 105.774 30.7973 106.303 30.1971L105.252 29.2717ZM104.262 29.6906C103.813 29.6906 103.493 29.5424 103.24 29.2552L102.19 30.1823C102.728 30.791 103.44 31.0906 104.262 31.0906V29.6906ZM103.24 29.2552C102.994 28.9779 102.821 28.5266 102.821 27.7969H101.421C101.421 28.7338 101.644 29.5637 102.19 30.1823L103.24 29.2552ZM102.821 27.7969V20.6875H101.421V27.7969H102.821ZM102.821 20.6875C102.821 19.2346 102.62 18.0265 102.145 17.1384L100.91 17.7991C101.227 18.3902 101.421 19.3279 101.421 20.6875H102.821ZM102.15 17.1488C101.6 16.078 100.513 15.6438 99.1994 15.6438V17.0437C100.219 17.0437 100.684 17.3595 100.905 17.7887L102.15 17.1488ZM99.1994 15.6438C98.287 15.6438 97.4499 15.9222 96.7073 16.4668L97.5352 17.5957C98.0426 17.2236 98.5909 17.0437 99.1994 17.0437V15.6438ZM96.7135 16.4623C95.9636 16.9997 95.4246 17.7388 95.0894 18.6486L96.4031 19.1326C96.6512 18.4591 97.0289 17.9586 97.529 17.6002L96.7135 16.4623ZM95.0811 18.6725C94.8334 19.4279 94.7338 20.7213 94.7338 22.4531H96.1338C96.1338 20.7058 96.2424 19.6242 96.4114 19.1087L95.0811 18.6725ZM94.7338 22.4531V27.7969H96.1338V22.4531H94.7338ZM94.7338 27.7969C94.7338 28.5632 94.553 29.0135 94.3114 29.2737L95.3373 30.2263C95.9083 29.6115 96.1338 28.7597 96.1338 27.7969H94.7338ZM94.311 29.2742C94.0605 29.5444 93.7379 29.6906 93.2775 29.6906V31.0906C94.088 31.0906 94.7966 30.8098 95.3378 30.2258L94.311 29.2742ZM93.2775 29.6906C92.8571 29.6906 92.5452 29.548 92.2864 29.2552L91.2373 30.1823C91.7703 30.7853 92.4687 31.0906 93.2775 31.0906V29.6906ZM92.2864 29.2552C92.0414 28.9779 91.8681 28.5266 91.8681 27.7969H90.4681C90.4681 28.7338 90.6907 29.5637 91.2373 30.1823L92.2864 29.2552ZM91.8681 27.7969V15.4688H90.4681V27.7969H91.8681ZM91.8681 15.4688C91.8681 14.7405 92.0293 14.3373 92.221 14.123L91.1777 13.1895C90.6611 13.7668 90.4681 14.572 90.4681 15.4688H91.8681ZM92.227 14.1162C92.4288 13.8848 92.7086 13.7469 93.1525 13.7469V12.3469C92.3672 12.3469 91.6783 12.6152 91.1717 13.1963L92.227 14.1162ZM93.1525 13.7469C93.4122 13.7469 93.627 13.8067 93.8141 13.9164L94.5221 12.7086C94.1051 12.4641 93.6428 12.3469 93.1525 12.3469V13.7469ZM93.8141 13.9164C93.9844 14.0162 94.1361 14.1732 94.2608 14.4224L95.513 13.7963C95.2834 13.3373 94.956 12.9629 94.5221 12.7086L93.8141 13.9164ZM94.2682 14.4369C94.3897 14.6663 94.4681 14.9795 94.4681 15.4062H95.8681C95.8681 14.8121 95.7591 14.2608 95.5055 13.7819L94.2682 14.4369ZM122.886 29.7812L123.14 30.4334L123.146 30.4312L122.886 29.7812ZM113.198 27.9844L112.693 28.4692L112.7 28.476L113.198 27.9844ZM111.479 25.2344L110.821 25.4731L110.824 25.4809L111.479 25.2344ZM115.886 13.6719L116.138 14.3249L116.143 14.3227L115.886 13.6719ZM122.886 13.6719L122.628 14.3227L122.886 13.6719ZM127.292 18.2031L126.634 18.4418L126.636 18.4475L127.292 18.2031ZM122.448 17.6562L121.897 18.0885L121.9 18.0921L122.448 17.6562ZM117.167 16.8594L117.557 17.4404L117.564 17.4359L117.167 16.8594ZM115.683 24.6406L115.033 24.9006L115.035 24.9076L115.683 24.6406ZM117.136 26.5625L116.728 27.1316L116.739 27.1391L117.136 26.5625ZM122.448 25.7656L121.898 25.3326L121.897 25.3334L122.448 25.7656ZM127.186 21.7188C127.186 22.9161 126.999 24.0049 126.635 24.9921L127.949 25.4767C128.376 24.318 128.586 23.0631 128.586 21.7188H127.186ZM126.635 24.9921C126.271 25.979 125.749 26.8156 125.071 27.5119L126.075 28.4881C126.897 27.6427 127.521 26.6356 127.949 25.4767L126.635 24.9921ZM125.071 27.5119C124.393 28.2094 123.58 28.7494 122.626 29.1313L123.146 30.4312C124.274 29.9797 125.254 29.3323 126.075 28.4881L125.071 27.5119ZM122.631 29.1291C121.683 29.499 120.599 29.6906 119.37 29.6906V31.0906C120.745 31.0906 122.005 30.876 123.14 30.4334L122.631 29.1291ZM119.37 29.6906C118.154 29.6906 117.083 29.4946 116.148 29.1166L115.623 30.4147C116.75 30.87 118.003 31.0906 119.37 31.0906V29.6906ZM116.148 29.1166C115.203 28.7347 114.388 28.1937 113.696 27.4928L112.7 28.476C113.529 29.3167 114.506 29.9632 115.623 30.4147L116.148 29.1166ZM113.703 27.4996C113.021 26.7894 112.498 25.9546 112.135 24.9879L110.824 25.4809C111.252 26.6183 111.875 27.6169 112.693 28.4691L113.703 27.4996ZM112.137 24.9957C111.783 24.0192 111.601 22.9294 111.601 21.7188H110.201C110.201 23.0706 110.405 24.3246 110.821 25.4731L112.137 24.9957ZM111.601 21.7188C111.601 20.4992 111.788 19.4001 112.152 18.4142L110.838 17.9296C110.41 19.0894 110.201 20.355 110.201 21.7188H111.601ZM112.152 18.4142C112.516 17.4258 113.034 16.5948 113.7 15.9099L112.696 14.9338C111.883 15.7698 111.265 16.7721 110.838 17.9296L112.152 18.4142ZM113.7 15.9099C114.365 15.2264 115.174 14.6971 116.138 14.3249L115.633 13.0189C114.493 13.4591 113.511 14.0966 112.696 14.9338L113.7 15.9099ZM116.143 14.3227C117.104 13.9423 118.177 13.7469 119.37 13.7469V12.3469C118.022 12.3469 116.771 12.5681 115.628 13.0211L116.143 14.3227ZM119.37 13.7469C120.586 13.7469 121.669 13.9428 122.628 14.3227L123.143 13.0211C121.998 12.5676 120.738 12.3469 119.37 12.3469V13.7469ZM122.628 14.3227C123.593 14.7049 124.41 15.245 125.087 15.9413L126.09 14.965C125.268 14.1196 124.282 13.4722 123.143 13.0211L122.628 14.3227ZM125.087 15.9413C125.764 16.6374 126.28 17.4678 126.634 18.4418L127.95 17.9644C127.532 16.8135 126.913 15.8105 126.09 14.965L125.087 15.9413ZM126.636 18.4475C126.999 19.4223 127.186 20.5102 127.186 21.7188H128.586C128.586 20.3648 128.376 19.1089 127.948 17.9587L126.636 18.4475ZM124.304 21.7188C124.304 19.8838 123.898 18.3547 122.996 17.2204L121.9 18.0921C122.54 18.8953 122.904 20.0745 122.904 21.7188H124.304ZM122.999 17.224C122.098 16.0769 120.864 15.5031 119.37 15.5031V16.9031C120.459 16.9031 121.277 17.2981 121.897 18.0885L122.999 17.224ZM119.37 15.5031C118.407 15.5031 117.532 15.7584 116.77 16.2828L117.564 17.4359C118.073 17.0853 118.666 16.9031 119.37 16.9031V15.5031ZM116.776 16.2784C116.005 16.7969 115.436 17.5538 115.05 18.5015L116.346 19.0297C116.648 18.2899 117.058 17.776 117.557 17.4403L116.776 16.2784ZM115.05 18.5015C114.665 19.4463 114.483 20.5238 114.483 21.7188H115.883C115.883 20.6637 116.044 19.7725 116.346 19.0297L115.05 18.5015ZM114.483 21.7188C114.483 22.9016 114.659 23.9672 115.033 24.9006L116.332 24.3807C116.039 23.6473 115.883 22.7651 115.883 21.7188H114.483ZM115.035 24.9076C115.42 25.8408 115.979 26.5949 116.728 27.1315L117.543 25.9935C117.042 25.6342 116.632 25.1071 116.33 24.3737L115.035 24.9076ZM116.739 27.1391C117.503 27.6655 118.39 27.9187 119.37 27.9187V26.5188C118.642 26.5188 118.039 26.3345 117.533 25.9859L116.739 27.1391ZM119.37 27.9187C120.864 27.9187 122.098 27.345 122.999 26.1978L121.897 25.3334C121.277 26.1238 120.459 26.5188 119.37 26.5188V27.9187ZM122.998 26.1986C123.897 25.0567 124.304 23.5358 124.304 21.7188H122.904C122.904 23.3392 122.541 24.5163 121.898 25.3326L122.998 26.1986ZM136.478 15.9531H135.778V17.9285L137.022 16.3939L136.478 15.9531ZM138.978 13.7812L139.306 14.3997L139.312 14.3966L138.978 13.7812ZM148.15 17.0625L147.521 17.3695L147.523 17.3735L148.15 17.0625ZM148.556 25.3125L147.893 25.0874L147.892 25.0911L148.556 25.3125ZM147.041 28.0781L147.568 28.5386L147.571 28.5349L147.041 28.0781ZM144.744 29.7969L145.032 30.4347L145.036 30.4331L144.744 29.7969ZM138.838 29.6562L138.48 30.2578L138.483 30.2598L138.838 29.6562ZM136.478 27.5L137.027 27.0657L135.778 25.4871V27.5H136.478ZM132.838 35.9844L133.456 35.6556L133.453 35.6501L132.838 35.9844ZM132.978 13.6562L133.5 14.123L133.506 14.1162L132.978 13.6562ZM135.9 13.6719L135.38 14.1402L135.386 14.147L135.392 14.1537L135.9 13.6719ZM144.322 18.75L143.677 19.0228L143.678 19.0257L144.322 18.75ZM142.884 16.8906L142.474 17.4577L142.485 17.4655L142.884 16.8906ZM137.884 17.625L137.358 17.1636L137.355 17.167L137.884 17.625ZM137.884 25.6875L137.35 26.1397L137.352 26.1426L137.884 25.6875ZM142.838 26.4844L143.228 27.0653L143.235 27.0606L142.838 26.4844ZM135.778 15.4375V15.9531H137.178V15.4375H135.778ZM137.022 16.3939C137.782 15.4564 138.546 14.8028 139.306 14.3997L138.65 13.1628C137.681 13.6764 136.779 14.4707 135.934 15.5124L137.022 16.3939ZM139.312 14.3966C140.063 13.9894 140.925 13.7781 141.916 13.7781V12.3781C140.719 12.3781 139.623 12.6356 138.644 13.1659L139.312 14.3966ZM141.916 13.7781C143.101 13.7781 144.182 14.0819 145.175 14.6905L145.907 13.497C144.691 12.7515 143.355 12.3781 141.916 12.3781V13.7781ZM145.175 14.6905C146.152 15.2899 146.937 16.1724 147.521 17.3695L148.779 16.7555C148.092 15.3484 147.137 14.2517 145.907 13.497L145.175 14.6905ZM147.523 17.3735C148.111 18.5596 148.419 19.9902 148.419 21.6875H149.819C149.819 19.8223 149.48 18.1696 148.777 16.7515L147.523 17.3735ZM148.419 21.6875C148.419 22.9329 148.241 24.0642 147.893 25.0874L149.219 25.5376C149.622 24.3525 149.819 23.0671 149.819 21.6875H148.419ZM147.892 25.0911C147.552 26.1125 147.088 26.9508 146.51 27.6214L147.571 28.5349C148.285 27.7055 148.832 26.7 149.22 25.5339L147.892 25.0911ZM146.513 27.6177C145.932 28.2833 145.247 28.796 144.452 29.1606L145.036 30.4331C146.012 29.9852 146.857 29.3521 147.568 28.5386L146.513 27.6177ZM144.455 29.1591C143.676 29.5118 142.832 29.6906 141.916 29.6906V31.0906C143.02 31.0906 144.062 30.8736 145.032 30.4347L144.455 29.1591ZM141.916 29.6906C140.789 29.6906 139.893 29.4646 139.192 29.0527L138.483 30.2598C139.448 30.827 140.604 31.0906 141.916 31.0906V29.6906ZM139.195 29.0547C138.462 28.6185 137.737 27.9635 137.027 27.0657L135.929 27.9343C136.719 28.9323 137.567 29.7148 138.48 30.2578L139.195 29.0547ZM135.778 27.5V33.9062H137.178V27.5H135.778ZM135.778 33.9062C135.778 34.7796 135.615 35.3082 135.4 35.6037C135.215 35.8579 134.935 36.0188 134.431 36.0188V37.4187C135.292 37.4187 136.035 37.1109 136.532 36.4275C137 35.7855 137.178 34.9079 137.178 33.9062H135.778ZM134.431 36.0188C133.759 36.0188 133.544 35.8215 133.456 35.6556L132.219 36.3131C132.652 37.1264 133.5 37.4187 134.431 37.4187V36.0188ZM133.453 35.6501C133.274 35.322 133.147 34.7568 133.147 33.875H131.747C131.747 34.8473 131.88 35.6884 132.222 36.3186L133.453 35.6501ZM133.147 33.875V15.4688H131.747V33.875H133.147ZM133.147 15.4688C133.147 14.7405 133.308 14.3373 133.5 14.123L132.456 13.1895C131.94 13.7668 131.747 14.572 131.747 15.4688H133.147ZM133.506 14.1162C133.708 13.8848 133.987 13.7469 134.431 13.7469V12.3469C133.646 12.3469 132.957 12.6152 132.45 13.1963L133.506 14.1162ZM134.431 13.7469C134.854 13.7469 135.149 13.8834 135.38 14.1402L136.42 13.2036C135.901 12.627 135.217 12.3469 134.431 12.3469V13.7469ZM135.392 14.1537C135.614 14.3875 135.778 14.7776 135.778 15.4375H137.178C137.178 14.5558 136.957 13.7687 136.408 13.1901L135.392 14.1537ZM145.538 21.6406C145.538 20.4471 145.355 19.3847 144.965 18.4743L143.678 19.0257C143.976 19.7194 144.138 20.5842 144.138 21.6406H145.538ZM144.967 18.4773C144.581 17.565 144.025 16.831 143.284 16.3158L142.485 17.4655C142.973 17.8044 143.376 18.31 143.677 19.0227L144.967 18.4773ZM143.295 16.3237C142.572 15.8005 141.757 15.5344 140.869 15.5344V16.9344C141.46 16.9344 141.988 17.1058 142.474 17.4576L143.295 16.3237ZM140.869 15.5344C139.479 15.5344 138.296 16.093 137.358 17.1636L138.411 18.0864C139.098 17.3028 139.904 16.9344 140.869 16.9344V15.5344ZM137.355 17.167C136.401 18.2695 135.981 19.8256 135.981 21.7188H137.381C137.381 20.0078 137.763 18.8347 138.414 18.083L137.355 17.167ZM135.981 21.7188C135.981 23.5214 136.407 25.0256 137.35 26.1397L138.419 25.2353C137.757 24.4535 137.381 23.3119 137.381 21.7188H135.981ZM137.352 26.1426C138.282 27.2286 139.468 27.7937 140.869 27.7937V26.3938C139.895 26.3938 139.091 26.0214 138.416 25.2324L137.352 26.1426ZM140.869 27.7937C141.72 27.7937 142.512 27.5469 143.228 27.0653L142.447 25.9035C141.955 26.2344 141.434 26.3938 140.869 26.3938V27.7937ZM143.235 27.0606C143.967 26.5556 144.526 25.8228 144.931 24.9085L143.651 24.3415C143.327 25.073 142.916 25.5798 142.44 25.9081L143.235 27.0606ZM144.931 24.9085C145.345 23.9741 145.538 22.8772 145.538 21.6406H144.138C144.138 22.7373 143.966 23.6301 143.651 24.3415L144.931 24.9085ZM154.383 7.35938L153.858 6.89661L153.852 6.90382L154.383 7.35938ZM157.493 7.35938L156.973 7.82905L156.979 7.83521L157.493 7.35938ZM157.477 29.75L156.964 29.2737L156.963 29.2742L157.477 29.75ZM154.399 29.7188L153.868 30.1754L153.874 30.1823L154.399 29.7188ZM154.521 27.7969V9.29688H153.121V27.7969H154.521ZM154.521 9.29688C154.521 8.53153 154.69 8.07664 154.915 7.81493L153.852 6.90382C153.326 7.51711 153.121 8.35388 153.121 9.29688H154.521ZM154.908 7.8221C155.146 7.55272 155.461 7.40312 155.93 7.40312V6.00313C155.107 6.00313 154.391 6.29103 153.858 6.89665L154.908 7.8221ZM155.93 7.40312C156.399 7.40312 156.724 7.55303 156.973 7.82901L158.012 6.88974C157.47 6.29072 156.753 6.00313 155.93 6.00313V7.40312ZM156.979 7.83521C157.208 8.08225 157.386 8.52483 157.386 9.29688H158.786C158.786 8.33975 158.569 7.49067 158.006 6.88354L156.979 7.83521ZM157.386 9.29688V27.7969H158.786V9.29688H157.386ZM157.386 27.7969C157.386 28.5632 157.205 29.0135 156.964 29.2737L157.99 30.2263C158.561 29.6115 158.786 28.7597 158.786 27.7969H157.386ZM156.963 29.2742C156.713 29.5444 156.39 29.6906 155.93 29.6906V31.0906C156.74 31.0906 157.449 30.8098 157.99 30.2258L156.963 29.2742ZM155.93 29.6906C155.495 29.6906 155.18 29.5452 154.923 29.2552L153.874 30.1823C154.41 30.7882 155.115 31.0906 155.93 31.0906V29.6906ZM154.929 29.2622C154.691 28.9848 154.521 28.5307 154.521 27.7969H153.121C153.121 28.7297 153.336 29.5569 153.868 30.1753L154.929 29.2622ZM174.569 27.9844L175.166 27.6184L174.757 26.9516L174.14 27.4318L174.569 27.9844ZM171.569 29.7969L171.837 30.4439L171.84 30.4424L171.569 29.7969ZM165.444 29.75L165.116 30.3681L165.125 30.373L165.444 29.75ZM163.976 22.5938L163.455 22.1258L163.455 22.1258L163.976 22.5938ZM167.023 20.9375L167.171 21.6215L167.18 21.6196L167.023 20.9375ZM171.788 19.9219L171.947 20.6037L171.954 20.602L171.788 19.9219ZM174.288 19.25L174.484 19.9222L175.013 19.7683L174.987 19.2176L174.288 19.25ZM173.601 16.7812L173.039 17.1995L173.044 17.2057L173.049 17.2118L173.601 16.7812ZM168.663 16.4375L168.327 15.8234L168.322 15.8261L168.663 16.4375ZM167.257 17.7969L166.671 17.4132L166.667 17.4204L167.257 17.7969ZM166.429 19L165.893 18.5491L165.891 18.5519L166.429 19ZM164.148 18.8281L163.677 19.3461L163.685 19.3535L163.693 19.3607L164.148 18.8281ZM166.913 13.7031L166.649 13.0549L166.913 13.7031ZM175.538 13.6875L175.268 14.3335L175.274 14.3357L175.538 13.6875ZM177.804 15.7812L177.167 16.072L177.17 16.0776L177.804 15.7812ZM178.46 22.1406L177.76 22.1302V22.1406H178.46ZM178.444 24.4688L177.744 24.4602V24.4688H178.444ZM178.835 26.9844L178.164 27.1841L178.167 27.1936L178.835 26.9844ZM178.616 29.8594L179.076 30.387L179.077 30.3862L178.616 29.8594ZM175.929 29.7812L175.44 30.2823L175.446 30.2884L175.929 29.7812ZM174.288 21.8125H174.988V20.8103L174.047 21.1553L174.288 21.8125ZM171.554 22.5469L171.698 23.2319L171.702 23.2309L171.554 22.5469ZM169.085 23.1094L169.255 23.7885L169.262 23.7867L169.269 23.7847L169.085 23.1094ZM167.773 23.8125L168.218 24.3525L168.226 24.3459L167.773 23.8125ZM167.882 26.9219L167.403 27.4329L167.409 27.4383L167.882 26.9219ZM172.132 27.0469L172.452 27.6693L172.456 27.6675L172.132 27.0469ZM173.71 25.6094L173.109 25.2506L173.102 25.2621L173.71 25.6094ZM174.14 27.4318C173.146 28.2048 172.199 28.7739 171.299 29.1513L171.84 30.4424C172.878 30.0073 173.93 29.3681 174.999 28.5369L174.14 27.4318ZM171.302 29.1499C170.441 29.5057 169.455 29.6906 168.335 29.6906V31.0906C169.611 31.0906 170.781 30.8797 171.837 30.4439L171.302 29.1499ZM168.335 29.6906C167.334 29.6906 166.483 29.4956 165.764 29.127L165.125 30.373C166.073 30.8585 167.149 31.0906 168.335 31.0906V29.6906ZM165.773 29.1319C165.053 28.7489 164.514 28.245 164.137 27.6218L162.939 28.347C163.458 29.2029 164.19 29.8761 165.116 30.3681L165.773 29.1319ZM164.137 27.6218C163.755 26.9915 163.566 26.3148 163.566 25.5781H162.166C162.166 26.5706 162.425 27.4981 162.939 28.347L164.137 27.6218ZM163.566 25.5781C163.566 24.5739 163.879 23.7486 164.496 23.0617L163.455 22.1258C162.593 23.0847 162.166 24.249 162.166 25.5781H163.566ZM164.496 23.0617C165.12 22.3679 165.995 21.8777 167.171 21.6215L166.874 20.2535C165.467 20.5598 164.311 21.1737 163.455 22.1258L164.496 23.0617ZM167.18 21.6196C167.44 21.5595 168.102 21.4209 169.178 21.2015L168.898 19.8297C167.829 20.0478 167.147 20.1905 166.865 20.2554L167.18 21.6196ZM169.178 21.2015C170.255 20.9819 171.178 20.7826 171.947 20.6036L171.629 19.2401C170.877 19.4153 169.967 19.6118 168.898 19.8297L169.178 21.2015ZM171.954 20.602C172.736 20.4117 173.579 20.185 174.484 19.9222L174.093 18.5778C173.205 18.8358 172.382 19.057 171.623 19.2417L171.954 20.602ZM174.987 19.2176C174.933 18.0392 174.691 17.0414 174.153 16.3507L173.049 17.2118C173.322 17.5628 173.539 18.2108 173.589 19.2824L174.987 19.2176ZM174.162 16.363C173.553 15.5453 172.412 15.2844 171.116 15.2844V16.6844C172.342 16.6844 172.857 16.9547 173.039 17.1995L174.162 16.363ZM171.116 15.2844C169.989 15.2844 169.032 15.4378 168.327 15.8234L168.999 17.0516C169.399 16.833 170.077 16.6844 171.116 16.6844V15.2844ZM168.322 15.8261C167.667 16.1917 167.119 16.7301 166.671 17.4133L167.842 18.1805C168.187 17.6553 168.576 17.2875 169.004 17.0489L168.322 15.8261ZM166.667 17.4204C166.279 18.0288 166.026 18.3918 165.893 18.5491L166.964 19.4509C167.165 19.2124 167.464 18.7733 167.847 18.1733L166.667 17.4204ZM165.891 18.5519C165.938 18.4954 165.964 18.5099 165.87 18.5356C165.779 18.5602 165.628 18.5813 165.398 18.5813V19.9812C165.698 19.9812 165.984 19.9554 166.238 19.8863C166.488 19.8182 166.763 19.6921 166.967 19.4481L165.891 18.5519ZM165.398 18.5813C165.08 18.5813 164.825 18.4861 164.602 18.2955L163.693 19.3607C164.178 19.7743 164.757 19.9812 165.398 19.9812V18.5813ZM164.618 18.3102C164.426 18.135 164.332 17.9296 164.332 17.6406H162.932C162.932 18.31 163.182 18.8963 163.677 19.3461L164.618 18.3102ZM164.332 17.6406C164.332 17.0681 164.531 16.4829 164.989 15.8731L163.869 15.0331C163.264 15.84 162.932 16.7131 162.932 17.6406H164.332ZM164.989 15.8731C165.421 15.2973 166.128 14.779 167.177 14.3514L166.649 13.0549C165.449 13.544 164.499 14.1923 163.869 15.0331L164.989 15.8731ZM167.177 14.3514C168.193 13.9376 169.498 13.7156 171.116 13.7156V12.3156C169.381 12.3156 167.883 12.552 166.649 13.0549L167.177 14.3514ZM171.116 13.7156C172.949 13.7156 174.317 13.9364 175.268 14.3335L175.808 13.0415C174.613 12.5428 173.034 12.3156 171.116 12.3156V13.7156ZM175.274 14.3357C176.2 14.7132 176.811 15.2927 177.167 16.072L178.441 15.4905C177.921 14.3531 177.023 13.5368 175.802 13.0393L175.274 14.3357ZM177.17 16.0776C177.558 16.9087 177.776 18.0664 177.776 19.5938H179.176C179.176 17.9544 178.945 16.5704 178.438 15.4849L177.17 16.0776ZM177.776 19.5938C177.776 20.5916 177.77 21.4369 177.76 22.1302L179.16 22.1511C179.17 21.4485 179.176 20.5959 179.176 19.5938H177.776ZM177.76 22.1406C177.76 22.8352 177.755 23.6083 177.744 24.4602L179.144 24.4773C179.155 23.6209 179.16 22.8419 179.16 22.1406H177.76ZM177.744 24.4688C177.744 25.347 177.887 26.253 178.164 27.1841L179.506 26.7847C179.262 25.9657 179.144 25.1946 179.144 24.4688H177.744ZM178.167 27.1936C178.3 27.6187 178.397 27.9581 178.459 28.2161C178.491 28.345 178.512 28.4477 178.526 28.5269C178.532 28.5662 178.536 28.597 178.539 28.6202C178.54 28.6317 178.54 28.6404 178.541 28.6468C178.541 28.6499 178.541 28.6523 178.541 28.6539C178.541 28.6555 178.541 28.6563 178.541 28.6562H179.941C179.941 28.4401 179.888 28.1669 179.82 27.8855C179.747 27.5862 179.641 27.2147 179.503 26.7751L178.167 27.1936ZM178.541 28.6562C178.541 28.8407 178.463 29.063 178.155 29.3326L179.077 30.3862C179.602 29.9266 179.941 29.3468 179.941 28.6562H178.541ZM178.156 29.3317C177.873 29.579 177.571 29.6906 177.226 29.6906V31.0906C177.922 31.0906 178.547 30.8481 179.076 30.387L178.156 29.3317ZM177.226 29.6906C177.023 29.6906 176.754 29.6004 176.411 29.2741L175.446 30.2884C175.957 30.7746 176.554 31.0906 177.226 31.0906V29.6906ZM176.418 29.2802C176.048 28.9194 175.629 28.3736 175.166 27.6184L173.973 28.3504C174.468 29.1576 174.956 29.8098 175.44 30.2823L176.418 29.2802ZM174.047 21.1553C173.468 21.3678 172.593 21.6046 171.405 21.8629L171.702 23.2309C172.91 22.9683 173.859 22.7155 174.529 22.4697L174.047 21.1553ZM171.41 21.8619C170.223 22.1117 169.381 22.303 168.901 22.434L169.269 23.7847C169.705 23.6658 170.51 23.482 171.698 23.2319L171.41 21.8619ZM168.915 22.4303C168.337 22.5748 167.805 22.8662 167.319 23.2791L168.226 24.3459C168.573 24.0505 168.916 23.8731 169.255 23.7885L168.915 22.4303ZM167.327 23.2725C166.723 23.771 166.448 24.4684 166.448 25.2656H167.848C167.848 24.8129 167.989 24.5415 168.218 24.3525L167.327 23.2725ZM166.448 25.2656C166.448 26.1134 166.779 26.8479 167.403 27.4329L168.36 26.4109C168.006 26.0791 167.848 25.7096 167.848 25.2656H166.448ZM167.409 27.4383C168.052 28.0264 168.873 28.2937 169.804 28.2937V26.8938C169.151 26.8938 168.691 26.7132 168.354 26.4054L167.409 27.4383ZM169.804 28.2937C170.752 28.2937 171.639 28.0879 172.452 27.6693L171.812 26.4245C171.208 26.7351 170.543 26.8938 169.804 26.8938V28.2937ZM172.456 27.6675C173.269 27.2434 173.905 26.6785 174.318 25.9567L173.102 25.2621C172.848 25.7069 172.433 26.1004 171.808 26.4263L172.456 27.6675ZM174.311 25.9681C174.798 25.1515 174.988 23.9266 174.988 22.4219H173.588C173.588 23.8755 173.392 24.7756 173.109 25.2507L174.311 25.9681ZM174.988 22.4219V21.8125H173.588V22.4219H174.988ZM187.974 15.9219H187.274V18.0044L188.532 16.3447L187.974 15.9219ZM190.428 13.75L190.749 14.3717L190.752 14.3702L190.428 13.75ZM196.521 13.7812L196.86 13.1687L196.521 13.7812ZM198.506 15.8594L197.877 16.1666L197.883 16.1794L197.89 16.192L198.506 15.8594ZM198.584 29.7344L198.065 29.2647L198.059 29.2717L198.584 29.7344ZM194.334 17.4688L193.711 17.7887L193.717 17.7991L194.334 17.4688ZM189.928 17.0312L190.335 17.6003L190.341 17.5957L189.928 17.0312ZM188.553 18.8906L187.896 18.6486L187.891 18.6605L187.887 18.6725L188.553 18.8906ZM187.631 29.75L187.118 29.2737L187.117 29.2742L187.631 29.75ZM184.506 13.6562L185.027 14.123L185.033 14.1162L184.506 13.6562ZM187.693 14.1094L187.067 14.4224L187.071 14.4297L187.074 14.4369L187.693 14.1094ZM187.274 15.4062V15.9219H188.674V15.4062H187.274ZM188.532 16.3447C189.234 15.4183 189.976 14.7718 190.749 14.3716L190.106 13.1284C189.108 13.6448 188.214 14.4463 187.417 15.4991L188.532 16.3447ZM190.752 14.3702C191.534 13.961 192.446 13.7469 193.506 13.7469V12.3469C192.253 12.3469 191.113 12.6015 190.103 13.1298L190.752 14.3702ZM193.506 13.7469C194.526 13.7469 195.412 13.9678 196.183 14.3938L196.86 13.1687C195.86 12.6155 194.736 12.3469 193.506 12.3469V13.7469ZM196.183 14.3938C196.944 14.815 197.503 15.402 197.877 16.1666L199.135 15.5522C198.633 14.5251 197.869 13.7267 196.86 13.1687L196.183 14.3938ZM197.89 16.192C198.13 16.6369 198.287 17.1188 198.359 17.6425L199.746 17.4512C199.652 16.7666 199.444 16.1236 199.122 15.5268L197.89 16.192ZM198.359 17.6425C198.436 18.203 198.478 18.9388 198.478 19.8594H199.878C199.878 18.9049 199.835 18.0991 199.746 17.4512L198.359 17.6425ZM198.478 19.8594V27.7969H199.878V19.8594H198.478ZM198.478 27.7969C198.478 28.5542 198.301 29.0033 198.065 29.2647L199.103 30.204C199.658 29.5904 199.878 28.7479 199.878 27.7969H198.478ZM198.059 29.2717C197.816 29.5465 197.508 29.6906 197.068 29.6906V31.0906C197.878 31.0906 198.58 30.7973 199.109 30.1971L198.059 29.2717ZM197.068 29.6906C196.619 29.6906 196.3 29.5424 196.046 29.2552L194.997 30.1823C195.535 30.791 196.246 31.0906 197.068 31.0906V29.6906ZM196.046 29.2552C195.801 28.9779 195.628 28.5266 195.628 27.7969H194.228C194.228 28.7338 194.45 29.5637 194.997 30.1823L196.046 29.2552ZM195.628 27.7969V20.6875H194.228V27.7969H195.628ZM195.628 20.6875C195.628 19.2346 195.426 18.0265 194.951 17.1384L193.717 17.7991C194.033 18.3902 194.228 19.3279 194.228 20.6875H195.628ZM194.956 17.1488C194.406 16.078 193.319 15.6438 192.006 15.6438V17.0437C193.025 17.0437 193.491 17.3595 193.711 17.7887L194.956 17.1488ZM192.006 15.6438C191.093 15.6438 190.256 15.9222 189.514 16.4668L190.341 17.5957C190.849 17.2236 191.397 17.0437 192.006 17.0437V15.6438ZM189.52 16.4623C188.77 16.9997 188.231 17.7388 187.896 18.6486L189.209 19.1326C189.457 18.4591 189.835 17.9586 190.335 17.6002L189.52 16.4623ZM187.887 18.6725C187.64 19.4279 187.54 20.7213 187.54 22.4531H188.94C188.94 20.7058 189.049 19.6242 189.218 19.1087L187.887 18.6725ZM187.54 22.4531V27.7969H188.94V22.4531H187.54ZM187.54 27.7969C187.54 28.5632 187.359 29.0135 187.118 29.2737L188.144 30.2263C188.715 29.6115 188.94 28.7597 188.94 27.7969H187.54ZM187.117 29.2742C186.867 29.5444 186.544 29.6906 186.084 29.6906V31.0906C186.894 31.0906 187.603 30.8098 188.144 30.2258L187.117 29.2742ZM186.084 29.6906C185.663 29.6906 185.351 29.548 185.093 29.2552L184.044 30.1823C184.577 30.7853 185.275 31.0906 186.084 31.0906V29.6906ZM185.093 29.2552C184.848 28.9779 184.674 28.5266 184.674 27.7969H183.274C183.274 28.7338 183.497 29.5637 184.044 30.1823L185.093 29.2552ZM184.674 27.7969V15.4688H183.274V27.7969H184.674ZM184.674 15.4688C184.674 14.7405 184.836 14.3373 185.027 14.123L183.984 13.1895C183.467 13.7668 183.274 14.572 183.274 15.4688H184.674ZM185.033 14.1162C185.235 13.8848 185.515 13.7469 185.959 13.7469V12.3469C185.173 12.3469 184.485 12.6152 183.978 13.1963L185.033 14.1162ZM185.959 13.7469C186.218 13.7469 186.433 13.8067 186.62 13.9164L187.328 12.7086C186.911 12.4641 186.449 12.3469 185.959 12.3469V13.7469ZM186.62 13.9164C186.791 14.0162 186.942 14.1732 187.067 14.4224L188.319 13.7963C188.09 13.3373 187.762 12.9629 187.328 12.7086L186.62 13.9164ZM187.074 14.4369C187.196 14.6663 187.274 14.9795 187.274 15.4062H188.674C188.674 14.8121 188.565 14.2608 188.312 13.7819L187.074 14.4369Z" fill="#1C9941"/>
<path d="M10.42 39.436L13.426 39.4C15.118 39.4 16.402 39.664 17.278 40.192C18.166 40.72 18.61 41.638 18.61 42.946C18.61 44.242 18.094 45.262 17.062 46.006C16.03 46.738 14.722 47.104 13.138 47.104C12.706 47.104 12.28 47.062 11.86 46.978V49.336C11.86 50.224 11.98 50.98 12.22 51.604V52H8.944V51.604C9.184 50.92 9.304 50.08 9.304 49.084V42.622C9.304 41.422 9.202 40.48 8.998 39.796V39.4C9.814 39.424 10.288 39.436 10.42 39.436ZM15.91 43.126C15.91 42.214 15.712 41.56 15.316 41.164C14.92 40.768 14.284 40.57 13.408 40.57C12.544 40.57 12.04 40.576 11.896 40.588C11.872 40.948 11.86 41.944 11.86 43.576V45.88C12.244 45.988 12.664 46.042 13.12 46.042C14.032 46.042 14.722 45.784 15.19 45.268C15.67 44.752 15.91 44.038 15.91 43.126ZM31.1131 38.968C31.0651 39.544 31.0411 40.228 31.0411 41.02C31.0411 41.812 31.0471 42.298 31.0591 42.478V48.994C31.0591 50.11 31.1551 50.98 31.3471 51.604L31.3651 52H28.4491V51.604C28.6411 50.98 28.7371 50.11 28.7371 48.994V41.92C28.7371 40.888 28.4671 40.114 27.9271 39.598V39.202L30.8971 38.572L31.1131 38.968ZM46.1949 48.4C45.7629 48.244 45.2829 48.166 44.7549 48.166C44.2389 48.166 43.8429 48.262 43.5669 48.454C43.3869 48.682 43.2969 48.982 43.2969 49.354C43.2969 50.29 43.7049 50.758 44.5209 50.758C45.1929 50.758 45.7509 50.482 46.1949 49.93V48.4ZM43.7829 52.324C43.0269 52.324 42.3609 52.096 41.7849 51.64C41.2089 51.184 40.9209 50.524 40.9209 49.66C40.9209 47.992 42.1389 47.158 44.5749 47.158L46.1769 47.23V46.132C46.1769 45.508 46.0209 45.004 45.7089 44.62C45.3969 44.236 44.9169 44.044 44.2689 44.044C44.1249 44.044 43.9389 44.122 43.7109 44.278C43.4829 44.422 43.2909 44.572 43.1349 44.728C42.6429 45.196 42.2469 45.58 41.9469 45.88C41.3469 45.172 41.0229 44.458 40.9749 43.738C42.5109 43.258 43.8069 43.018 44.8629 43.018C45.9189 43.018 46.8009 43.264 47.5089 43.756C48.2169 44.248 48.5709 45.022 48.5709 46.078V48.904C48.5709 49.444 48.6609 49.96 48.8409 50.452C49.0209 50.944 49.2429 51.274 49.5069 51.442L49.5429 51.838L46.9689 52.378C46.7769 52.018 46.5969 51.514 46.4289 50.866C46.1169 51.202 45.8649 51.454 45.6729 51.622C45.4809 51.778 45.2109 51.934 44.8629 52.09C44.5269 52.246 44.1669 52.324 43.7829 52.324ZM65.0005 43.018C65.9005 43.018 66.5965 43.3 67.0885 43.864C67.5805 44.416 67.8265 45.22 67.8265 46.276V48.562C67.8265 49.75 68.0065 50.764 68.3665 51.604V52H65.1985V51.604C65.4025 51.04 65.5045 50.23 65.5045 49.174V46.924C65.5045 46.228 65.4205 45.718 65.2525 45.394C65.0845 45.058 64.7245 44.89 64.1725 44.89C63.6205 44.89 62.9185 45.142 62.0665 45.646V48.598C62.0665 49.858 62.2405 50.86 62.5885 51.604V52H59.4385V51.604C59.6425 50.992 59.7445 50.14 59.7445 49.048V46.636C59.7445 45.208 59.3845 44.314 58.6645 43.954V43.558L61.5805 43L61.7785 43.342C61.8745 43.63 61.9405 44.014 61.9765 44.494C62.5885 44.002 63.1165 43.636 63.5605 43.396C64.0165 43.144 64.4965 43.018 65.0005 43.018ZM92.7779 39.094C92.8859 39.19 92.9579 39.394 92.9939 39.706C93.0419 40.018 93.0659 40.258 93.0659 40.426C93.0659 40.594 93.0539 40.744 93.0299 40.876L92.8679 41.02C92.3399 41.176 91.6499 41.284 90.7979 41.344L90.5999 41.254C90.5039 41.098 90.4259 40.84 90.3659 40.48C90.3179 40.12 90.2939 39.874 90.2939 39.742C90.2939 39.598 90.2939 39.502 90.2939 39.454L90.4559 39.31C91.1039 39.094 91.7459 38.986 92.3819 38.986H92.5799L92.7779 39.094ZM93.1199 44.926V48.778C93.1199 49.918 93.2939 50.86 93.6419 51.604V52H90.4919V51.604C90.6959 50.992 90.7979 50.182 90.7979 49.174V46.51C90.7979 45.85 90.6959 45.304 90.4919 44.872C90.2879 44.428 90.0299 44.122 89.7179 43.954V43.558L93.0119 42.946L93.2279 43.306C93.1559 43.582 93.1199 44.122 93.1199 44.926ZM107.24 50.83C107.924 50.83 108.266 50.5 108.266 49.84C108.266 49.228 107.684 48.766 106.52 48.454C106.04 48.322 105.56 48.172 105.08 48.004C104.6 47.836 104.192 47.566 103.856 47.194C103.52 46.822 103.352 46.348 103.352 45.772C103.352 44.944 103.724 44.302 104.468 43.846C105.212 43.378 106.118 43.144 107.186 43.144C108.254 43.144 109.37 43.402 110.534 43.918C110.474 44.446 110.15 45.082 109.562 45.826C109.082 45.346 108.584 44.98 108.068 44.728C107.552 44.476 107.102 44.35 106.718 44.35C106.334 44.35 106.04 44.392 105.836 44.476C105.656 44.632 105.566 44.89 105.566 45.25C105.566 45.598 105.734 45.868 106.07 46.06C106.418 46.252 106.838 46.408 107.33 46.528C107.822 46.636 108.314 46.774 108.806 46.942C109.298 47.11 109.712 47.398 110.048 47.806C110.396 48.202 110.57 48.724 110.57 49.372C110.57 50.308 110.204 51.016 109.472 51.496C108.752 51.964 107.792 52.198 106.592 52.198C105.392 52.198 104.246 51.856 103.154 51.172C103.202 50.452 103.472 49.786 103.964 49.174C105.152 50.278 106.244 50.83 107.24 50.83ZM123.114 48.616C123.114 49.972 123.264 50.968 123.564 51.604V52H120.486V51.604C120.69 50.944 120.792 50.074 120.792 48.994V41.92C120.792 40.888 120.522 40.114 119.982 39.598V39.202L122.952 38.572L123.168 38.968C123.132 39.304 123.114 40.48 123.114 42.496V44.476C123.738 43.984 124.278 43.618 124.734 43.378C125.19 43.138 125.682 43.018 126.21 43.018C127.17 43.018 127.908 43.3 128.424 43.864C128.94 44.416 129.198 45.22 129.198 46.276V48.562C129.198 49.75 129.378 50.764 129.738 51.604V52H126.57V51.604C126.774 51.04 126.876 50.23 126.876 49.174V46.924C126.876 46.216 126.78 45.7 126.588 45.376C126.408 45.052 126.012 44.89 125.4 44.89C124.8 44.89 124.038 45.142 123.114 45.646V48.616ZM143.211 52H140.061V51.604C140.265 50.956 140.367 50.152 140.367 49.192V46.51C140.367 45.982 140.265 45.472 140.061 44.98C139.869 44.476 139.635 44.146 139.359 43.99V43.594L141.897 43L142.077 43.252C142.149 43.36 142.257 43.606 142.401 43.99C143.181 43.342 143.997 43.018 144.849 43.018C145.269 43.018 145.659 43.102 146.019 43.27C146.019 43.33 146.019 43.384 146.019 43.432C146.019 44.188 145.869 44.944 145.569 45.7C144.933 45.256 144.249 45.034 143.517 45.034C143.289 45.034 143.013 45.07 142.689 45.142V48.688C142.689 49.84 142.863 50.812 143.211 51.604V52ZM159.719 48.4C159.287 48.244 158.807 48.166 158.279 48.166C157.763 48.166 157.367 48.262 157.091 48.454C156.911 48.682 156.821 48.982 156.821 49.354C156.821 50.29 157.229 50.758 158.045 50.758C158.717 50.758 159.275 50.482 159.719 49.93V48.4ZM157.307 52.324C156.551 52.324 155.885 52.096 155.309 51.64C154.733 51.184 154.445 50.524 154.445 49.66C154.445 47.992 155.663 47.158 158.099 47.158L159.701 47.23V46.132C159.701 45.508 159.545 45.004 159.233 44.62C158.921 44.236 158.441 44.044 157.793 44.044C157.649 44.044 157.463 44.122 157.235 44.278C157.007 44.422 156.815 44.572 156.659 44.728C156.167 45.196 155.771 45.58 155.471 45.88C154.871 45.172 154.547 44.458 154.499 43.738C156.035 43.258 157.331 43.018 158.387 43.018C159.443 43.018 160.325 43.264 161.033 43.756C161.741 44.248 162.095 45.022 162.095 46.078V48.904C162.095 49.444 162.185 49.96 162.365 50.452C162.545 50.944 162.767 51.274 163.031 51.442L163.067 51.838L160.493 52.378C160.301 52.018 160.121 51.514 159.953 50.866C159.641 51.202 159.389 51.454 159.197 51.622C159.005 51.778 158.735 51.934 158.387 52.09C158.051 52.246 157.691 52.324 157.307 52.324ZM178.524 43.018C179.424 43.018 180.12 43.3 180.612 43.864C181.104 44.416 181.35 45.22 181.35 46.276V48.562C181.35 49.75 181.53 50.764 181.89 51.604V52H178.722V51.604C178.926 51.04 179.028 50.23 179.028 49.174V46.924C179.028 46.228 178.944 45.718 178.776 45.394C178.608 45.058 178.248 44.89 177.696 44.89C177.144 44.89 176.442 45.142 175.59 45.646V48.598C175.59 49.858 175.764 50.86 176.112 51.604V52H172.962V51.604C173.166 50.992 173.268 50.14 173.268 49.048V46.636C173.268 45.208 172.908 44.314 172.188 43.954V43.558L175.104 43L175.302 43.342C175.398 43.63 175.464 44.014 175.5 44.494C176.112 44.002 176.64 43.636 177.084 43.396C177.54 43.144 178.02 43.018 178.524 43.018ZM195.455 52.342C194.411 52.342 193.475 51.952 192.647 51.172C191.819 50.392 191.405 49.342 191.405 48.022C191.405 46.69 191.843 45.526 192.719 44.53C193.595 43.522 194.729 43.018 196.121 43.018C197.297 43.018 198.173 43.396 198.749 44.152C199.325 44.908 199.613 45.952 199.613 47.284L198.929 47.986H193.997C194.009 48.85 194.237 49.516 194.681 49.984C195.137 50.452 195.677 50.686 196.301 50.686C196.937 50.686 197.891 50.356 199.163 49.696L199.613 50.38C199.385 50.596 199.127 50.818 198.839 51.046C198.551 51.274 198.065 51.55 197.381 51.874C196.709 52.186 196.067 52.342 195.455 52.342ZM195.707 44.17C195.263 44.17 194.909 44.26 194.645 44.44C194.453 44.74 194.303 45.136 194.195 45.628C194.087 46.12 194.027 46.558 194.015 46.942L197.165 46.762C197.165 45.034 196.679 44.17 195.707 44.17Z" fill="#404A46" fill-opacity="0.9"/>
</svg>
