<svg width="270" height="73" viewBox="0 0 270 73" fill="none" xmlns="http://www.w3.org/2000/svg">
<path d="M10.1724 2.36685C9.30622 3.22244 6.82593 6.04847 6.82593 7.02629C6.82593 8.37079 10.5547 7.76261 12.4108 5.80697C14.8929 3.97799 16.3721 3.97799 17.375 4.58765C18.9836 5.56547 19.8238 7.02629 19.8238 8.84491C19.8238 12.2673 20.3187 13.1229 22.2985 13.1229C25.7631 13.1229 25.8869 4.8395 22.2985 1.53936C19.3288 -1.14965 12.5234 0.0445272 10.1724 2.36685Z" fill="#41B883"/>
<path d="M13.4036 11.5378C13.1554 14.8299 12.2866 15.8054 10.9214 15.5615C9.55627 15.1957 7.44645 16.7808 11.542 17.7563C14.3964 20.8046 14.0241 29.8275 11.1697 29.2179C9.80448 28.8521 9.80448 29.3398 11.542 31.1688C14.3964 34.2171 14.1482 36.168 10.9214 37.5092C8.68752 38.3628 9.55627 38.6066 14.8929 38.6066C20.7259 38.6066 21.3464 38.3628 18.9884 37.2654C16.7545 36.2899 16.1339 34.8267 16.1339 31.6565C16.1339 28.8521 17.1268 26.2915 18.9884 24.3406C22.9598 21.6581 21.3464 20.5607 18.9884 21.0484C16.7545 21.4142 16.7545 21.5362 16.3822 14.5861C16.0098 6.29469 14.0241 4.34378 13.4036 11.5378Z" fill="#404A46"/>
<path d="M2.57769 12.5132C-0.27484 14.5861 1.76268 19.2195 5.63397 19.2195C7.46773 19.2195 7.87524 18.3659 7.26398 16.6589C6.44898 14.8299 7.26398 13.3667 9.70901 12.3913C13.3765 10.8062 13.3765 10.6842 9.3015 10.6842C7.06023 10.6842 4.00395 11.5378 2.57769 12.5132Z" fill="#41B883"/>
<path d="M20.3868 18.1468C21.905 18.7677 23.2544 20.7546 23.2544 22.4931C23.2544 24.8525 24.0978 25.5976 26.122 25.2251C29.8331 24.7284 31.0139 21.003 28.3149 18.6435C27.1341 17.6501 24.2665 16.7808 21.7363 16.7808C18.0252 16.905 17.6879 17.0292 20.3868 18.1468Z" fill="#41B883"/>
<path d="M1.47999 25.9283C-0.424543 27.3935 -0.424543 28.4925 1.09908 30.8125C4.14633 34.964 8.90766 34.8419 7.57449 30.5682C7.00313 28.3704 7.76494 26.9051 10.0504 25.6841C13.4785 24.2188 13.2881 24.0967 8.7172 24.0967C6.05086 24.0967 2.81316 24.9515 1.47999 25.9283Z" fill="#41B883"/>
<path d="M39.9395 30.334V10.5952C39.9395 9.56982 40.173 8.80078 40.6401 8.28809C41.1073 7.77539 41.7111 7.51904 42.4517 7.51904C43.215 7.51904 43.8302 7.77539 44.2974 8.28809C44.7759 8.78939 45.0151 9.55843 45.0151 10.5952V30.334C45.0151 31.3708 44.7759 32.1455 44.2974 32.6582C43.8302 33.1709 43.215 33.4272 42.4517 33.4272C41.7225 33.4272 41.1187 33.1709 40.6401 32.6582C40.173 32.1341 39.9395 31.3594 39.9395 30.334ZM67.2989 24.2842V30.4878C67.2989 31.4676 67.0768 32.2025 66.6324 32.6924C66.1881 33.1823 65.6013 33.4272 64.8722 33.4272C64.1658 33.4272 63.5904 33.1823 63.1461 32.6924C62.7132 32.2025 62.4967 31.4676 62.4967 30.4878V23.0537C62.4967 21.8802 62.4568 20.9688 62.3771 20.3193C62.2973 19.6699 62.0808 19.1401 61.7276 18.73C61.3744 18.3084 60.8162 18.0977 60.0528 18.0977C58.5261 18.0977 57.5178 18.6217 57.0279 19.6699C56.5494 20.7181 56.3102 22.222 56.3102 24.1816V30.4878C56.3102 31.4562 56.088 32.1911 55.6437 32.6924C55.2107 33.1823 54.6354 33.4272 53.9176 33.4272C53.2112 33.4272 52.6301 33.1823 52.1744 32.6924C51.7301 32.1911 51.5079 31.4562 51.5079 30.4878V17.1406C51.5079 16.2633 51.7073 15.5968 52.1061 15.1411C52.5162 14.6854 53.0517 14.4575 53.7125 14.4575C54.3505 14.4575 54.8803 14.674 55.3019 15.1069C55.7348 15.5285 55.9513 16.1152 55.9513 16.8672V17.3115C56.7602 16.3431 57.6261 15.631 58.5489 15.1753C59.4718 14.7196 60.4972 14.4917 61.6251 14.4917C62.7986 14.4917 63.8069 14.7253 64.65 15.1924C65.4931 15.6595 66.1881 16.3659 66.735 17.3115C67.5211 16.3545 68.3642 15.6481 69.2643 15.1924C70.1643 14.7253 71.1612 14.4917 72.255 14.4917C73.531 14.4917 74.6305 14.7424 75.5533 15.2437C76.4762 15.745 77.1655 16.4627 77.6212 17.397C78.02 18.2401 78.2193 19.5674 78.2193 21.3789V30.4878C78.2193 31.4676 77.9972 32.2025 77.5528 32.6924C77.1085 33.1823 76.5217 33.4272 75.7926 33.4272C75.0862 33.4272 74.5051 33.1823 74.0494 32.6924C73.6051 32.1911 73.3829 31.4562 73.3829 30.4878V22.6436C73.3829 21.641 73.3373 20.8377 73.2462 20.2339C73.1664 19.63 72.9386 19.123 72.5626 18.7129C72.1866 18.3027 71.617 18.0977 70.8536 18.0977C70.2384 18.0977 69.6516 18.2799 69.0934 18.6445C68.5465 19.0091 68.1192 19.499 67.8116 20.1143C67.4698 20.9004 67.2989 22.2904 67.2989 24.2842ZM95.7863 30.7954V30.1973C95.2281 30.9036 94.6413 31.4961 94.0261 31.9746C93.4108 32.4531 92.7386 32.8063 92.0095 33.0342C91.2803 33.2734 90.4486 33.3931 89.5144 33.3931C88.3864 33.3931 87.3724 33.1595 86.4724 32.6924C85.5837 32.2253 84.8944 31.5815 84.4045 30.7612C83.8234 29.77 83.5329 28.3459 83.5329 26.4888V17.2432C83.5329 16.3089 83.7437 15.6139 84.1652 15.1582C84.5868 14.6911 85.1451 14.4575 85.84 14.4575C86.5464 14.4575 87.1161 14.6911 87.549 15.1582C87.982 15.6253 88.1984 16.3203 88.1984 17.2432V24.7114C88.1984 25.7938 88.2896 26.7052 88.4719 27.4458C88.6542 28.175 88.9789 28.7503 89.446 29.1719C89.9245 29.582 90.5682 29.7871 91.3771 29.7871C92.1633 29.7871 92.9038 29.5535 93.5988 29.0864C94.2938 28.6193 94.8008 28.0098 95.1198 27.2578C95.3819 26.597 95.5129 25.1501 95.5129 22.917V17.2432C95.5129 16.3203 95.7294 15.6253 96.1623 15.1582C96.5952 14.6911 97.1592 14.4575 97.8542 14.4575C98.5492 14.4575 99.1075 14.6911 99.529 15.1582C99.9506 15.6139 100.161 16.3089 100.161 17.2432V30.7612C100.161 31.6499 99.9562 32.3164 99.5461 32.7607C99.1473 33.2051 98.6289 33.4272 97.9909 33.4272C97.3529 33.4272 96.8231 33.1994 96.4016 32.7437C95.9914 32.2765 95.7863 31.6271 95.7863 30.7954ZM110.465 17.0381V17.6021C111.285 16.5197 112.18 15.7279 113.148 15.2266C114.128 14.7139 115.25 14.4575 116.515 14.4575C117.745 14.4575 118.845 14.7253 119.813 15.2607C120.782 15.7962 121.505 16.5539 121.984 17.5337C122.291 18.1034 122.491 18.7186 122.582 19.3794C122.673 20.0402 122.719 20.8833 122.719 21.9087V30.5903C122.719 31.5246 122.502 32.231 122.069 32.7095C121.648 33.188 121.095 33.4272 120.411 33.4272C119.716 33.4272 119.152 33.1823 118.72 32.6924C118.287 32.2025 118.07 31.5018 118.07 30.5903V22.8145C118.07 21.2764 117.854 20.1029 117.421 19.2939C116.999 18.4736 116.15 18.0635 114.874 18.0635C114.043 18.0635 113.285 18.3141 112.601 18.8154C111.918 19.3053 111.416 19.9832 111.097 20.8491C110.87 21.5441 110.756 22.8429 110.756 24.7456V30.5903C110.756 31.536 110.533 32.248 110.089 32.7266C109.656 33.1937 109.092 33.4272 108.397 33.4272C107.725 33.4272 107.172 33.1823 106.74 32.6924C106.307 32.2025 106.09 31.5018 106.09 30.5903V17.1064C106.09 16.2178 106.284 15.557 106.671 15.124C107.059 14.6797 107.588 14.4575 108.261 14.4575C108.671 14.4575 109.041 14.5544 109.371 14.748C109.702 14.9417 109.964 15.2323 110.158 15.6196C110.363 16.007 110.465 16.4798 110.465 17.0381ZM146.25 23.9424C146.25 25.3324 146.033 26.6141 145.6 27.7876C145.168 28.9611 144.541 29.9694 143.721 30.8125C142.9 31.6556 141.92 32.305 140.781 32.7607C139.642 33.2051 138.36 33.4272 136.936 33.4272C135.523 33.4272 134.253 33.1994 133.125 32.7437C131.997 32.2879 131.017 31.6385 130.185 30.7954C129.365 29.9409 128.739 28.9383 128.306 27.7876C127.884 26.6255 127.673 25.3438 127.673 23.9424C127.673 22.5296 127.89 21.2365 128.323 20.063C128.756 18.8895 129.377 17.8869 130.185 17.0552C130.994 16.2235 131.974 15.5854 133.125 15.1411C134.276 14.6854 135.546 14.4575 136.936 14.4575C138.349 14.4575 139.63 14.6854 140.781 15.1411C141.932 15.5968 142.917 16.2463 143.738 17.0894C144.558 17.9325 145.179 18.9351 145.6 20.0972C146.033 21.2593 146.25 22.541 146.25 23.9424ZM141.567 23.9424C141.567 22.0397 141.146 20.5586 140.303 19.499C139.471 18.4395 138.349 17.9097 136.936 17.9097C136.024 17.9097 135.221 18.1489 134.526 18.6274C133.831 19.0946 133.296 19.7896 132.92 20.7124C132.544 21.6353 132.356 22.7119 132.356 23.9424C132.356 25.1615 132.538 26.2267 132.903 27.1382C133.279 28.0496 133.808 28.7503 134.492 29.2402C135.187 29.7188 136.002 29.958 136.936 29.958C138.349 29.958 139.471 29.4282 140.303 28.3687C141.146 27.2977 141.567 25.8223 141.567 23.9424ZM155.648 17.0723V17.6362C156.525 16.5539 157.437 15.762 158.382 15.2607C159.328 14.748 160.399 14.4917 161.595 14.4917C163.031 14.4917 164.352 14.862 165.56 15.6025C166.768 16.3431 167.719 17.4255 168.414 18.8496C169.12 20.2738 169.474 21.96 169.474 23.9082C169.474 25.3438 169.269 26.6654 168.858 27.873C168.46 29.0693 167.907 30.0776 167.201 30.8979C166.494 31.7069 165.657 32.3335 164.688 32.7778C163.731 33.2108 162.7 33.4272 161.595 33.4272C160.262 33.4272 159.14 33.1595 158.229 32.624C157.328 32.0885 156.468 31.3024 155.648 30.2656V37.2725C155.648 39.3232 154.902 40.3486 153.409 40.3486C152.532 40.3486 151.951 40.0809 151.666 39.5454C151.381 39.0213 151.239 38.2523 151.239 37.2383V17.1064C151.239 16.2178 151.432 15.557 151.82 15.124C152.207 14.6797 152.737 14.4575 153.409 14.4575C154.07 14.4575 154.605 14.6854 155.016 15.1411C155.437 15.5854 155.648 16.2292 155.648 17.0723ZM164.791 23.8569C164.791 22.6265 164.603 21.5726 164.227 20.6953C163.851 19.8066 163.327 19.1287 162.655 18.6616C161.994 18.1831 161.259 17.9438 160.45 17.9438C159.163 17.9438 158.075 18.4508 157.186 19.4648C156.309 20.4788 155.87 21.9714 155.87 23.9424C155.87 25.7995 156.309 27.2464 157.186 28.2832C158.063 29.3086 159.151 29.8213 160.45 29.8213C161.225 29.8213 161.943 29.5991 162.604 29.1548C163.264 28.6991 163.794 28.0212 164.193 27.1211C164.592 26.221 164.791 25.133 164.791 23.8569ZM174.616 30.5903V10.356C174.616 9.42171 174.821 8.71533 175.232 8.23682C175.653 7.7583 176.217 7.51904 176.923 7.51904C177.63 7.51904 178.199 7.7583 178.632 8.23682C179.065 8.70394 179.282 9.41032 179.282 10.356V30.5903C179.282 31.536 179.06 32.248 178.615 32.7266C178.182 33.1937 177.618 33.4272 176.923 33.4272C176.24 33.4272 175.682 33.1823 175.249 32.6924C174.827 32.2025 174.616 31.5018 174.616 30.5903ZM197.31 30.7954C196.182 31.6727 195.089 32.3335 194.029 32.7778C192.981 33.2108 191.802 33.4272 190.491 33.4272C189.295 33.4272 188.241 33.1937 187.33 32.7266C186.43 32.248 185.735 31.6043 185.245 30.7954C184.755 29.9865 184.51 29.1092 184.51 28.1636C184.51 26.8875 184.914 25.7995 185.723 24.8994C186.532 23.9993 187.643 23.3955 189.056 23.0879C189.352 23.0195 190.087 22.8657 191.26 22.6265C192.434 22.3872 193.437 22.1707 194.268 21.9771C195.111 21.772 196.023 21.527 197.003 21.2422C196.946 20.0117 196.695 19.1117 196.251 18.542C195.818 17.9609 194.912 17.6704 193.533 17.6704C192.349 17.6704 191.454 17.8356 190.85 18.166C190.258 18.4964 189.745 18.992 189.312 19.6528C188.891 20.3136 188.589 20.7523 188.406 20.9688C188.236 21.1738 187.86 21.2764 187.279 21.2764C186.754 21.2764 186.299 21.1112 185.911 20.7808C185.535 20.439 185.347 20.006 185.347 19.4819C185.347 18.6616 185.638 17.8641 186.219 17.0894C186.8 16.3146 187.706 15.6766 188.936 15.1753C190.167 14.674 191.699 14.4233 193.533 14.4233C195.584 14.4233 197.196 14.6683 198.37 15.1582C199.543 15.6367 200.369 16.4001 200.848 17.4482C201.338 18.4964 201.583 19.8864 201.583 21.6182C201.583 22.7119 201.577 23.6405 201.566 24.4038C201.566 25.1672 201.56 26.016 201.549 26.9502C201.549 27.8275 201.691 28.7446 201.976 29.7017C202.272 30.6473 202.42 31.2568 202.42 31.5303C202.42 32.0088 202.192 32.4474 201.737 32.8462C201.292 33.2336 200.785 33.4272 200.216 33.4272C199.737 33.4272 199.264 33.2051 198.797 32.7607C198.33 32.305 197.834 31.6499 197.31 30.7954ZM197.003 24.0449C196.319 24.2956 195.322 24.5633 194.012 24.8481C192.713 25.1216 191.813 25.3267 191.312 25.4634C190.81 25.5887 190.332 25.8451 189.876 26.2324C189.42 26.6084 189.193 27.1382 189.193 27.8218C189.193 28.5282 189.46 29.132 189.996 29.6333C190.531 30.1232 191.232 30.3682 192.098 30.3682C193.021 30.3682 193.87 30.1688 194.644 29.77C195.43 29.3599 196.006 28.8358 196.37 28.1978C196.792 27.4914 197.003 26.3293 197.003 24.7114V24.0449ZM211.972 17.0381V17.6021C212.792 16.5197 213.687 15.7279 214.655 15.2266C215.635 14.7139 216.757 14.4575 218.022 14.4575C219.252 14.4575 220.352 14.7253 221.32 15.2607C222.289 15.7962 223.012 16.5539 223.491 17.5337C223.798 18.1034 223.998 18.7186 224.089 19.3794C224.18 20.0402 224.225 20.8833 224.225 21.9087V30.5903C224.225 31.5246 224.009 32.231 223.576 32.7095C223.154 33.188 222.602 33.4272 221.918 33.4272C221.223 33.4272 220.659 33.1823 220.226 32.6924C219.793 32.2025 219.577 31.5018 219.577 30.5903V22.8145C219.577 21.2764 219.36 20.1029 218.928 19.2939C218.506 18.4736 217.657 18.0635 216.381 18.0635C215.549 18.0635 214.792 18.3141 214.108 18.8154C213.425 19.3053 212.923 19.9832 212.604 20.8491C212.376 21.5441 212.262 22.8429 212.262 24.7456V30.5903C212.262 31.536 212.04 32.248 211.596 32.7266C211.163 33.1937 210.599 33.4272 209.904 33.4272C209.232 33.4272 208.679 33.1823 208.246 32.6924C207.813 32.2025 207.597 31.5018 207.597 30.5903V17.1064C207.597 16.2178 207.791 15.557 208.178 15.124C208.565 14.6797 209.095 14.4575 209.767 14.4575C210.178 14.4575 210.548 14.5544 210.878 14.748C211.209 14.9417 211.471 15.2323 211.664 15.6196C211.869 16.007 211.972 16.4798 211.972 17.0381Z" fill="#41B883"/>
<path d="M44.2974 8.28809L43.7799 8.75953L43.7854 8.76554L43.791 8.77142L44.2974 8.28809ZM44.2974 32.6582L43.7856 32.1805L43.7799 32.1868L44.2974 32.6582ZM40.6401 32.6582L40.1176 33.124L40.1229 33.13L40.1284 33.1358L40.6401 32.6582ZM40.6395 30.334V10.5952H39.2395V30.334H40.6395ZM40.6395 10.5952C40.6395 9.66243 40.8533 9.09347 41.1576 8.75953L40.1227 7.81664C39.4927 8.50809 39.2395 9.47722 39.2395 10.5952H40.6395ZM41.1576 8.75953C41.4823 8.40315 41.893 8.21904 42.4517 8.21904V6.81904C41.5292 6.81904 40.7322 7.14763 40.1227 7.81664L41.1576 8.75953ZM42.4517 8.21904C43.0401 8.21904 43.4596 8.40799 43.7799 8.75953L44.8148 7.81664C44.2009 7.14279 43.3899 6.81904 42.4517 6.81904V8.21904ZM43.791 8.77142C44.0956 9.0905 44.3151 9.65073 44.3151 10.5952H45.7151C45.7151 9.46613 45.4562 8.48827 44.8037 7.80475L43.791 8.77142ZM44.3151 10.5952V30.334H45.7151V10.5952H44.3151ZM44.3151 30.334C44.3151 31.2769 44.0962 31.8478 43.7856 32.1806L44.8091 33.1358C45.4555 32.4432 45.7151 31.4646 45.7151 30.334H44.3151ZM43.7799 32.1868C43.4596 32.5383 43.0401 32.7272 42.4517 32.7272V34.1272C43.3899 34.1272 44.2009 33.8035 44.8148 33.1296L43.7799 32.1868ZM42.4517 32.7272C41.9078 32.7272 41.4922 32.5452 41.1519 32.1806L40.1284 33.1358C40.7451 33.7966 41.5372 34.1272 42.4517 34.1272V32.7272ZM41.1627 32.1924C40.8527 31.8447 40.6395 31.2653 40.6395 30.334H39.2395C39.2395 31.4535 39.4933 32.4236 40.1176 33.124L41.1627 32.1924ZM63.1461 32.6924L62.6215 33.156L62.6276 33.1627L63.1461 32.6924ZM61.7276 18.73L61.191 19.1796L61.1972 19.1867L61.7276 18.73ZM57.0279 19.6699L56.3938 19.3735L56.3911 19.3792L57.0279 19.6699ZM55.6437 32.6924L55.1198 32.2281L55.1191 32.2288L55.6437 32.6924ZM52.1744 32.6924L51.6506 33.1567L51.6562 33.163L51.6619 33.1692L52.1744 32.6924ZM52.1061 15.1411L51.5857 14.6728L51.5793 14.6802L52.1061 15.1411ZM55.3019 15.1069L54.8003 15.5953L54.8068 15.602L54.8135 15.6085L55.3019 15.1069ZM55.9513 17.3115H55.2513V19.2415L56.4885 17.7603L55.9513 17.3115ZM58.5489 15.1753L58.8589 15.8029L58.5489 15.1753ZM64.65 15.1924L64.9892 14.5801L64.65 15.1924ZM66.735 17.3115L66.129 17.662L66.6347 18.5364L67.2759 17.7558L66.735 17.3115ZM69.2643 15.1924L69.5805 15.8169L69.5867 15.8137L69.2643 15.1924ZM75.5533 15.2437L75.8875 14.6285L75.5533 15.2437ZM77.6212 17.397L78.254 17.0977L78.2503 17.0901L77.6212 17.397ZM74.0494 32.6924L73.5256 33.1567L73.5312 33.163L73.5369 33.1692L74.0494 32.6924ZM73.2462 20.2339L72.5521 20.3256L72.554 20.3384L73.2462 20.2339ZM69.0934 18.6445L68.7106 18.0584L68.7051 18.0621L69.0934 18.6445ZM67.8116 20.1143L67.1855 19.8012L67.1771 19.818L67.1697 19.8351L67.8116 20.1143ZM66.5989 24.2842V30.4878H67.9989V24.2842H66.5989ZM66.5989 30.4878C66.5989 31.3757 66.3961 31.911 66.1139 32.2221L67.1509 33.1627C67.7574 32.494 67.9989 31.5595 67.9989 30.4878H66.5989ZM66.1139 32.2221C65.8167 32.5498 65.4264 32.7272 64.8722 32.7272V34.1272C65.7763 34.1272 66.5595 33.8148 67.1509 33.1627L66.1139 32.2221ZM64.8722 32.7272C64.3482 32.7272 63.9664 32.5549 63.6646 32.2221L62.6276 33.1627C63.2144 33.8097 63.9834 34.1272 64.8722 34.1272V32.7272ZM63.6706 32.2288C63.3956 31.9176 63.1967 31.3795 63.1967 30.4878H61.7967C61.7967 31.5557 62.0307 32.4874 62.6216 33.1559L63.6706 32.2288ZM63.1967 30.4878V23.0537H61.7967V30.4878H63.1967ZM63.1967 23.0537C63.1967 21.8702 63.1568 20.9256 63.0718 20.234L61.6823 20.4047C61.7568 21.0119 61.7967 21.8902 61.7967 23.0537H63.1967ZM63.0718 20.234C62.9788 19.4763 62.7189 18.8084 62.2581 18.2732L61.1972 19.1867C61.4427 19.4719 61.6158 19.8635 61.6823 20.4047L63.0718 20.234ZM62.2642 18.2804C61.732 17.6453 60.9391 17.3977 60.0528 17.3977V18.7977C60.6933 18.7977 61.0168 18.9716 61.1911 19.1795L62.2642 18.2804ZM60.0528 17.3977C58.3576 17.3977 57.0369 17.9976 56.3938 19.3735L57.6621 19.9663C57.9988 19.2459 58.6947 18.7977 60.0528 18.7977V17.3977ZM56.3911 19.3792C55.8515 20.5612 55.6102 22.1825 55.6102 24.1816H57.0102C57.0102 22.2615 57.2473 20.8749 57.6647 19.9606L56.3911 19.3792ZM55.6102 24.1816V30.4878H57.0102V24.1816H55.6102ZM55.6102 30.4878C55.6102 31.3602 55.4091 31.9016 55.1198 32.2281L56.1675 33.1567C56.7668 32.4805 57.0102 31.5522 57.0102 30.4878H55.6102ZM55.1191 32.2288C54.833 32.5526 54.4567 32.7272 53.9176 32.7272V34.1272C54.814 34.1272 55.5884 33.8119 56.1682 33.1559L55.1191 32.2288ZM53.9176 32.7272C53.3935 32.7272 53.0022 32.5545 52.6869 32.2156L51.6619 33.1692C52.2581 33.8101 53.0289 34.1272 53.9176 34.1272V32.7272ZM52.6983 32.2281C52.4089 31.9016 52.2079 31.3602 52.2079 30.4878H50.8079C50.8079 31.5522 51.0512 32.4805 51.6506 33.1567L52.6983 32.2281ZM52.2079 30.4878V17.1406H50.8079V30.4878H52.2079ZM52.2079 17.1406C52.2079 16.3582 52.3867 15.8834 52.6329 15.6021L51.5793 14.6802C51.0279 15.3103 50.8079 16.1685 50.8079 17.1406H52.2079ZM52.6264 15.6094C52.8926 15.3136 53.2328 15.1575 53.7125 15.1575V13.7575C52.8706 13.7575 52.1398 14.0572 51.5857 14.6728L52.6264 15.6094ZM53.7125 15.1575C54.1734 15.1575 54.5185 15.3059 54.8003 15.5953L55.8034 14.6186C55.2421 14.0421 54.5276 13.7575 53.7125 13.7575V15.1575ZM54.8135 15.6085C55.0796 15.8676 55.2513 16.2551 55.2513 16.8672H56.6513C56.6513 15.9754 56.39 15.1894 55.7902 14.6054L54.8135 15.6085ZM55.2513 16.8672V17.3115H56.6513V16.8672H55.2513ZM56.4885 17.7603C57.2487 16.8502 58.0408 16.2069 58.8589 15.8029L58.239 14.5477C57.2113 15.0551 56.2717 15.836 55.414 16.8628L56.4885 17.7603ZM58.8589 15.8029C59.6764 15.3992 60.5942 15.1917 61.6251 15.1917V13.7917C60.4001 13.7917 59.2672 14.0399 58.239 14.5477L58.8589 15.8029ZM61.6251 15.1917C62.7055 15.1917 63.5918 15.4063 64.3108 15.8047L64.9892 14.5801C64.022 14.0442 62.8917 13.7917 61.6251 13.7917V15.1917ZM64.3108 15.8047C65.0286 16.2024 65.637 16.8112 66.129 17.662L67.3409 16.9611C66.7392 15.9206 65.9576 15.1166 64.9892 14.5801L64.3108 15.8047ZM67.2759 17.7558C68.0141 16.8572 68.7843 16.22 69.5805 15.8169L68.948 14.5679C67.9441 15.0762 67.0281 15.8518 66.1941 16.8672L67.2759 17.7558ZM69.5867 15.8137C70.3794 15.4023 71.2644 15.1917 72.255 15.1917V13.7917C71.058 13.7917 69.9492 14.0482 68.9418 14.5711L69.5867 15.8137ZM72.255 15.1917C73.4392 15.1917 74.4187 15.424 75.2192 15.8588L75.8875 14.6285C74.8422 14.0607 73.6228 13.7917 72.255 13.7917V15.1917ZM75.2192 15.8588C76.0154 16.2913 76.6009 16.902 76.9921 17.7039L78.2503 17.0901C77.73 16.0235 76.9369 15.1986 75.8875 14.6285L75.2192 15.8588ZM76.9884 17.6963C77.3183 18.3937 77.5193 19.5913 77.5193 21.3789H78.9193C78.9193 19.5435 78.7216 18.0865 78.254 17.0977L76.9884 17.6963ZM77.5193 21.3789V30.4878H78.9193V21.3789H77.5193ZM77.5193 30.4878C77.5193 31.3757 77.3165 31.911 77.0343 32.2221L78.0713 33.1627C78.6778 32.494 78.9193 31.5595 78.9193 30.4878H77.5193ZM77.0343 32.2221C76.7371 32.5498 76.3468 32.7272 75.7926 32.7272V34.1272C76.6967 34.1272 77.4799 33.8148 78.0713 33.1627L77.0343 32.2221ZM75.7926 32.7272C75.2685 32.7272 74.8772 32.5545 74.5619 32.2156L73.5369 33.1692C74.1331 33.8101 74.9039 34.1272 75.7926 34.1272V32.7272ZM74.5733 32.2281C74.2839 31.9016 74.0829 31.3602 74.0829 30.4878H72.6829C72.6829 31.5522 72.9262 32.4805 73.5256 33.1567L74.5733 32.2281ZM74.0829 30.4878V22.6436H72.6829V30.4878H74.0829ZM74.0829 22.6436C74.0829 21.6251 74.037 20.7827 73.9384 20.1294L72.554 20.3384C72.6377 20.8928 72.6829 21.6568 72.6829 22.6436H74.0829ZM73.9402 20.1422C73.8435 19.4102 73.5608 18.7659 73.0786 18.2399L72.0466 19.1859C72.3163 19.4802 72.4894 19.8499 72.5522 20.3255L73.9402 20.1422ZM73.0786 18.2399C72.5263 17.6374 71.7375 17.3977 70.8536 17.3977V18.7977C71.4964 18.7977 71.8469 18.9681 72.0466 19.1859L73.0786 18.2399ZM70.8536 17.3977C70.091 17.3977 69.3727 17.626 68.7106 18.0584L69.4761 19.2306C69.9305 18.9339 70.3857 18.7977 70.8536 18.7977V17.3977ZM68.7051 18.0621C68.052 18.4975 67.545 19.0823 67.1855 19.8012L68.4377 20.4273C68.6935 19.9158 69.0409 19.5208 69.4816 19.227L68.7051 18.0621ZM67.1697 19.8351C66.7644 20.7672 66.5989 22.2888 66.5989 24.2842H67.9989C67.9989 22.2919 68.1752 21.0336 68.4536 20.3934L67.1697 19.8351ZM95.7863 30.1973H96.4863V28.1826L95.2371 29.7632L95.7863 30.1973ZM92.0095 33.0342L91.8007 32.366L91.7912 32.3691L92.0095 33.0342ZM86.4724 32.6924L86.1467 33.312L86.1499 33.3137L86.4724 32.6924ZM84.4045 30.7612L83.8006 31.1152L83.8035 31.1201L84.4045 30.7612ZM84.1652 15.1582L84.6791 15.6336L84.6849 15.6272L84.1652 15.1582ZM87.549 15.1582L88.0624 14.6824L87.549 15.1582ZM88.4719 27.4458L87.7922 27.6131L87.7928 27.6156L88.4719 27.4458ZM89.446 29.1719L88.977 29.6916L88.9837 29.6975L88.9904 29.7034L89.446 29.1719ZM93.5988 29.0864L93.2083 28.5055L93.5988 29.0864ZM95.1198 27.2578L95.7642 27.5312L95.7675 27.5236L95.7705 27.5159L95.1198 27.2578ZM96.1623 15.1582L95.6489 14.6824L96.1623 15.1582ZM99.529 15.1582L99.0093 15.6272L99.0151 15.6335L99.529 15.1582ZM99.5461 32.7607L99.0317 32.2859L99.0251 32.2932L99.5461 32.7607ZM96.4016 32.7437L95.8756 33.2055L95.8815 33.2123L95.8877 33.219L96.4016 32.7437ZM96.4863 30.7954V30.1973H95.0863V30.7954H96.4863ZM95.2371 29.7632C94.7085 30.4321 94.1609 30.983 93.5963 31.4221L94.4558 32.5272C95.1217 32.0092 95.7476 31.3752 96.3355 30.6313L95.2371 29.7632ZM93.5963 31.4221C93.0459 31.8502 92.4482 32.1637 91.8007 32.366L92.2183 33.7023C93.029 33.4489 93.7758 33.0561 94.4558 32.5272L93.5963 31.4221ZM91.7912 32.3691C91.1459 32.5808 90.39 32.6931 89.5144 32.6931V34.0931C90.5072 34.0931 91.4147 33.9661 92.2277 33.6993L91.7912 32.3691ZM89.5144 32.6931C88.4859 32.6931 87.5845 32.4809 86.7948 32.0711L86.1499 33.3137C87.1604 33.8381 88.287 34.0931 89.5144 34.0931V32.6931ZM86.7981 32.0728C86.0173 31.6624 85.4259 31.1063 85.0055 30.4023L83.8035 31.1201C84.3629 32.0568 85.15 32.7881 86.1467 33.312L86.7981 32.0728ZM85.0084 30.4072C84.5178 29.5704 84.2329 28.2904 84.2329 26.4888H82.8329C82.8329 28.4013 83.1291 29.9697 83.8006 31.1152L85.0084 30.4072ZM84.2329 26.4888V17.2432H82.8329V26.4888H84.2329ZM84.2329 17.2432C84.2329 16.3983 84.4254 15.9078 84.6791 15.6335L83.6514 14.6829C83.062 15.32 82.8329 16.2195 82.8329 17.2432H84.2329ZM84.6849 15.6272C84.959 15.3235 85.3201 15.1575 85.84 15.1575V13.7575C84.97 13.7575 84.2146 14.0587 83.6456 14.6892L84.6849 15.6272ZM85.84 15.1575C86.3751 15.1575 86.7504 15.3263 87.0356 15.634L88.0624 14.6824C87.4818 14.0559 86.7177 13.7575 85.84 13.7575V15.1575ZM87.0356 15.634C87.3042 15.9238 87.4984 16.4183 87.4984 17.2432H88.8984C88.8984 16.2223 88.6597 15.3268 88.0624 14.6824L87.0356 15.634ZM87.4984 17.2432V24.7114H88.8984V17.2432H87.4984ZM87.4984 24.7114C87.4984 25.8287 87.5921 26.8003 87.7922 27.6131L89.1516 27.2785C88.9871 26.6102 88.8984 25.7589 88.8984 24.7114H87.4984ZM87.7928 27.6156C88.0021 28.453 88.388 29.16 88.977 29.6916L89.915 28.6522C89.5698 28.3407 89.3062 27.897 89.151 27.276L87.7928 27.6156ZM88.9904 29.7034C89.6283 30.2501 90.4496 30.4871 91.3771 30.4871V29.0871C90.6868 29.0871 90.2207 28.9139 89.9015 28.6404L88.9904 29.7034ZM91.3771 30.4871C92.3116 30.4871 93.1868 30.2068 93.9893 29.6674L93.2083 28.5055C92.6209 28.9003 92.0149 29.0871 91.3771 29.0871V30.4871ZM93.9893 29.6674C94.794 29.1266 95.3908 28.4114 95.7642 27.5312L94.4754 26.9844C94.2108 27.6081 93.7937 28.1121 93.2083 28.5055L93.9893 29.6674ZM95.7705 27.5159C95.9406 27.0871 96.0451 26.476 96.1118 25.7401C96.1799 24.9877 96.2129 24.0447 96.2129 22.917H94.8129C94.8129 24.0223 94.7804 24.9194 94.7175 25.6139C94.6531 26.325 94.5611 26.7678 94.4691 26.9998L95.7705 27.5159ZM96.2129 22.917V17.2432H94.8129V22.917H96.2129ZM96.2129 17.2432C96.2129 16.4183 96.4071 15.9238 96.6757 15.634L95.6489 14.6824C95.0516 15.3268 94.8129 16.2223 94.8129 17.2432H96.2129ZM96.6757 15.634C96.9633 15.3238 97.3343 15.1575 97.8542 15.1575V13.7575C96.9841 13.7575 96.2272 14.0584 95.6489 14.6824L96.6757 15.634ZM97.8542 15.1575C98.3742 15.1575 98.7352 15.3235 99.0093 15.6272L100.049 14.6892C99.4797 14.0587 98.7242 13.7575 97.8542 13.7575V15.1575ZM99.0151 15.6335C99.2689 15.9078 99.4613 16.3983 99.4613 17.2432H100.861C100.861 16.2195 100.632 15.32 100.043 14.6829L99.0151 15.6335ZM99.4613 17.2432V30.7612H100.861V17.2432H99.4613ZM99.4613 30.7612C99.4613 31.5553 99.2769 32.0203 99.0317 32.2859L100.06 33.2355C100.636 32.6125 100.861 31.7445 100.861 30.7612H99.4613ZM99.0251 32.2932C98.7691 32.5785 98.4455 32.7272 97.9909 32.7272V34.1272C98.8123 34.1272 99.5256 33.8316 100.067 33.2283L99.0251 32.2932ZM97.9909 32.7272C97.5419 32.7272 97.2004 32.5764 96.9154 32.2683L95.8877 33.219C96.4458 33.8224 97.1639 34.1272 97.9909 34.1272V32.7272ZM96.9276 32.2818C96.6628 31.9802 96.4863 31.5153 96.4863 30.7954H95.0863C95.0863 31.7389 95.3201 32.5729 95.8756 33.2055L96.9276 32.2818ZM110.465 17.6021H109.765V19.6846L111.023 18.0249L110.465 17.6021ZM113.148 15.2266L113.47 15.8482L113.473 15.8468L113.148 15.2266ZM119.813 15.2607L120.152 14.6482L119.813 15.2607ZM121.984 17.5337L121.355 17.8409L121.361 17.8537L121.368 17.8663L121.984 17.5337ZM122.069 32.7095L121.55 32.2398L121.544 32.2468L122.069 32.7095ZM117.421 19.2939L116.798 19.6139L116.804 19.6243L117.421 19.2939ZM112.601 18.8154L113.009 19.3844L113.015 19.3799L112.601 18.8154ZM111.097 20.8491L110.441 20.6071L110.436 20.619L110.432 20.631L111.097 20.8491ZM110.089 32.7266L109.576 32.2502L109.576 32.2507L110.089 32.7266ZM106.671 15.124L107.193 15.5908L107.199 15.584L106.671 15.124ZM110.158 15.6196L109.531 15.9327L109.535 15.94L109.539 15.9472L110.158 15.6196ZM109.765 17.0381V17.6021H111.165V17.0381H109.765ZM111.023 18.0249C111.795 17.0057 112.614 16.2914 113.47 15.8482L112.826 14.6049C111.746 15.1644 110.775 16.0337 109.907 17.1792L111.023 18.0249ZM113.473 15.8468C114.339 15.3936 115.347 15.1575 116.515 15.1575V13.7575C115.154 13.7575 113.917 14.0341 112.824 14.6063L113.473 15.8468ZM116.515 15.1575C117.64 15.1575 118.621 15.4014 119.475 15.8733L120.152 14.6482C119.069 14.0491 117.85 13.7575 116.515 13.7575V15.1575ZM119.475 15.8733C120.319 16.3403 120.94 16.9923 121.355 17.8409L122.613 17.2265C122.07 16.1155 121.244 15.2521 120.152 14.6482L119.475 15.8733ZM121.368 17.8663C121.634 18.36 121.808 18.8947 121.888 19.475L123.275 19.2837C123.173 18.5425 122.948 17.8467 122.6 17.2011L121.368 17.8663ZM121.888 19.475C121.974 20.0921 122.019 20.9003 122.019 21.9087H123.419C123.419 20.8663 123.372 19.9883 123.275 19.2837L121.888 19.475ZM122.019 21.9087V30.5903H123.419V21.9087H122.019ZM122.019 30.5903C122.019 31.4277 121.824 31.9374 121.55 32.2398L122.588 33.1791C123.18 32.5245 123.419 31.6214 123.419 30.5903H122.019ZM121.544 32.2468C121.266 32.5626 120.91 32.7272 120.411 32.7272V34.1272C121.28 34.1272 122.03 33.8134 122.594 33.1722L121.544 32.2468ZM120.411 32.7272C119.903 32.7272 119.535 32.558 119.244 32.2288L118.195 33.1559C118.77 33.8066 119.53 34.1272 120.411 34.1272V32.7272ZM119.244 32.2288C118.962 31.9096 118.77 31.3982 118.77 30.5903H117.37C117.37 31.6054 117.611 32.4954 118.195 33.1559L119.244 32.2288ZM118.77 30.5903V22.8145H117.37V30.5903H118.77ZM118.77 22.8145C118.77 21.2297 118.55 19.921 118.038 18.9636L116.804 19.6243C117.157 20.2847 117.37 21.3231 117.37 22.8145H118.77ZM118.043 18.974C117.457 17.8329 116.297 17.3635 114.874 17.3635V18.7635C116.003 18.7635 116.541 19.1144 116.798 19.6139L118.043 18.974ZM114.874 17.3635C113.891 17.3635 112.989 17.6634 112.187 18.2509L113.015 19.3799C113.581 18.9648 114.195 18.7635 114.874 18.7635V17.3635ZM112.194 18.2465C111.385 18.8259 110.803 19.6231 110.441 20.6071L111.754 21.0911C112.03 20.3433 112.45 19.7848 113.009 19.3844L112.194 18.2465ZM110.432 20.631C110.165 21.4459 110.056 22.8507 110.056 24.7456H111.456C111.456 22.8352 111.574 21.6423 111.763 21.0672L110.432 20.631ZM110.056 24.7456V30.5903H111.456V24.7456H110.056ZM110.056 30.5903C110.056 31.4377 109.856 31.9491 109.576 32.2502L110.602 33.2029C111.211 32.547 111.456 31.6342 111.456 30.5903H110.056ZM109.576 32.2507C109.288 32.561 108.917 32.7272 108.397 32.7272V34.1272C109.267 34.1272 110.024 33.8264 110.603 33.2024L109.576 32.2507ZM108.397 32.7272C107.919 32.7272 107.56 32.5636 107.264 32.2288L106.215 33.1559C106.785 33.801 107.531 34.1272 108.397 34.1272V32.7272ZM107.264 32.2288C106.982 31.9096 106.79 31.3982 106.79 30.5903H105.39C105.39 31.6054 105.631 32.4954 106.215 33.1559L107.264 32.2288ZM106.79 30.5903V17.1064H105.39V30.5903H106.79ZM106.79 17.1064C106.79 16.302 106.968 15.8422 107.193 15.5908L106.15 14.6573C105.6 15.2717 105.39 16.1336 105.39 17.1064H106.79ZM107.199 15.584C107.434 15.3145 107.759 15.1575 108.261 15.1575V13.7575C107.418 13.7575 106.683 14.0449 106.144 14.664L107.199 15.584ZM108.261 15.1575C108.555 15.1575 108.802 15.2257 109.017 15.3519L109.725 14.1442C109.28 13.8831 108.786 13.7575 108.261 13.7575V15.1575ZM109.017 15.3519C109.216 15.4684 109.39 15.6502 109.531 15.9327L110.784 15.3066C110.537 14.8143 110.188 14.4151 109.725 14.1442L109.017 15.3519ZM109.539 15.9472C109.678 16.2097 109.765 16.5635 109.765 17.0381H111.165C111.165 16.3961 111.047 15.8043 110.776 15.2921L109.539 15.9472ZM140.781 32.7607L141.036 33.4129L141.041 33.4107L140.781 32.7607ZM130.185 30.7954L129.68 31.2802L129.687 31.287L130.185 30.7954ZM128.306 27.7876L127.647 28.0263L127.65 28.0341L128.306 27.7876ZM130.185 17.0552L129.684 16.5671L130.185 17.0552ZM133.125 15.1411L133.377 15.7941L133.383 15.7919L133.125 15.1411ZM140.781 15.1411L140.523 15.7919L140.781 15.1411ZM143.738 17.0894L143.236 17.5775L143.738 17.0894ZM145.6 20.0972L144.942 20.3359L144.945 20.3415L145.6 20.0972ZM140.303 19.499L139.752 19.9312L139.755 19.9349L140.303 19.499ZM134.526 18.6274L134.917 19.2084L134.923 19.204L134.526 18.6274ZM132.903 27.1382L132.253 27.3982L132.256 27.4051L132.903 27.1382ZM134.492 29.2402L134.084 29.8093L134.095 29.8168L134.492 29.2402ZM140.303 28.3687L139.753 27.9357L139.752 27.9364L140.303 28.3687ZM145.55 23.9424C145.55 25.2588 145.345 26.4575 144.944 27.5453L146.257 28.0299C146.722 26.7707 146.95 25.4059 146.95 23.9424H145.55ZM144.944 27.5453C144.543 28.6328 143.967 29.5558 143.219 30.3244L144.222 31.3006C145.115 30.383 145.793 29.2894 146.257 28.0299L144.944 27.5453ZM143.219 30.3244C142.47 31.0942 141.573 31.6899 140.521 32.1108L141.041 33.4107C142.267 32.9201 143.331 32.217 144.222 31.3006L143.219 30.3244ZM140.527 32.1086C139.481 32.5166 138.287 32.7272 136.936 32.7272V34.1272C138.433 34.1272 139.803 33.8936 141.035 33.4129L140.527 32.1086ZM136.936 32.7272C135.599 32.7272 134.419 32.5117 133.387 32.0946L132.863 33.3927C134.086 33.887 135.448 34.1272 136.936 34.1272V32.7272ZM133.387 32.0946C132.345 31.6737 131.447 31.077 130.684 30.3038L129.687 31.287C130.588 32.2 131.649 32.9021 132.863 33.3927L133.387 32.0946ZM130.69 30.3106C129.938 29.5272 129.362 28.6065 128.961 27.5411L127.65 28.0341C128.115 29.2701 128.792 30.3547 129.68 31.2802L130.69 30.3106ZM128.964 27.5489C128.573 26.4728 128.373 25.2731 128.373 23.9424H126.973C126.973 25.4144 127.195 26.7782 127.648 28.0263L128.964 27.5489ZM128.373 23.9424C128.373 22.6017 128.579 21.3918 128.979 20.3053L127.666 19.8207C127.201 21.0811 126.973 22.4575 126.973 23.9424H128.373ZM128.979 20.3053C129.381 19.2164 129.952 18.2994 130.687 17.5432L129.684 16.5671C128.801 17.4744 128.13 18.5626 127.666 19.8207L128.979 20.3053ZM130.687 17.5432C131.421 16.7884 132.314 16.2045 133.377 15.7941L132.873 14.4881C131.634 14.9664 130.567 15.6586 129.684 16.5671L130.687 17.5432ZM133.383 15.7919C134.442 15.3725 135.623 15.1575 136.936 15.1575V13.7575C135.469 13.7575 134.109 13.9983 132.867 14.4903L133.383 15.7919ZM136.936 15.1575C138.273 15.1575 139.465 15.373 140.523 15.7919L141.039 14.4903C139.795 13.9978 138.425 13.7575 136.936 13.7575V15.1575ZM140.523 15.7919C141.587 16.2132 142.488 16.8089 143.236 17.5775L144.239 16.6012C143.347 15.6836 142.277 14.9805 141.039 14.4903L140.523 15.7919ZM143.236 17.5775C143.984 18.3459 144.553 19.2622 144.942 20.3359L146.259 19.8585C145.805 18.6079 145.132 17.519 144.239 16.6012L143.236 17.5775ZM144.945 20.3415C145.345 21.416 145.55 22.6137 145.55 23.9424H146.95C146.95 22.4683 146.722 21.1026 146.256 19.8528L144.945 20.3415ZM142.267 23.9424C142.267 21.9444 141.825 20.2882 140.85 19.0632L139.755 19.9349C140.466 20.8289 140.867 22.1351 140.867 23.9424H142.267ZM140.853 19.0668C139.882 17.8288 138.551 17.2097 136.936 17.2097V18.6097C138.146 18.6097 139.06 19.0501 139.752 19.9312L140.853 19.0668ZM136.936 17.2097C135.895 17.2097 134.951 17.4855 134.129 18.0509L134.923 19.204C135.492 18.8124 136.154 18.6097 136.936 18.6097V17.2097ZM134.136 18.0465C133.305 18.605 132.69 19.4215 132.272 20.4483L133.568 20.9765C133.902 20.1576 134.358 19.5841 134.917 19.2084L134.136 18.0465ZM132.272 20.4483C131.854 21.4722 131.656 22.642 131.656 23.9424H133.056C133.056 22.7819 133.233 21.7983 133.568 20.9765L132.272 20.4483ZM131.656 23.9424C131.656 25.2297 131.848 26.3867 132.253 27.3982L133.553 26.8782C133.228 26.0668 133.056 25.0932 133.056 23.9424H131.656ZM132.256 27.4051C132.673 28.4165 133.277 29.2307 134.084 29.8092L134.9 28.6713C134.34 28.27 133.885 27.6828 133.55 26.8713L132.256 27.4051ZM134.095 29.8168C134.919 30.3842 135.876 30.658 136.936 30.658V29.258C136.128 29.258 135.455 29.0533 134.889 28.6637L134.095 29.8168ZM136.936 30.658C138.551 30.658 139.882 30.0388 140.853 28.8009L139.752 27.9364C139.06 28.8176 138.146 29.258 136.936 29.258V30.658ZM140.853 28.8016C141.824 27.5679 142.267 25.9205 142.267 23.9424H140.867C140.867 25.724 140.468 27.0275 139.753 27.9357L140.853 28.8016ZM155.648 17.6362H154.948V19.6116L156.192 18.077L155.648 17.6362ZM158.382 15.2607L158.71 15.8792L158.716 15.8761L158.382 15.2607ZM165.56 15.6025L165.926 15.0058L165.56 15.6025ZM168.414 18.8496L167.785 19.1566L167.787 19.1607L168.414 18.8496ZM168.858 27.873L168.196 27.6479L168.194 27.6517L168.858 27.873ZM167.201 30.8979L167.728 31.3584L167.731 31.3547L167.201 30.8979ZM164.688 32.7778L164.977 33.4156L164.98 33.4141L164.688 32.7778ZM158.229 32.624L157.871 33.2256L157.874 33.2276L158.229 32.624ZM155.648 30.2656L156.197 29.8313L154.948 28.2527V30.2656H155.648ZM151.666 39.5454L152.284 39.2167L152.281 39.2112L151.666 39.5454ZM151.82 15.124L152.342 15.5908L152.347 15.584L151.82 15.124ZM155.016 15.1411L154.495 15.6094L154.501 15.6162L154.508 15.6229L155.016 15.1411ZM164.227 20.6953L163.582 20.9681L163.584 20.9711L164.227 20.6953ZM162.655 18.6616L162.244 19.2287L162.255 19.2365L162.655 18.6616ZM157.186 19.4648L156.66 19.0035L156.657 19.0068L157.186 19.4648ZM157.186 28.2832L156.652 28.7354L156.654 28.7383L157.186 28.2832ZM162.604 29.1548L162.994 29.7357L163.001 29.731L162.604 29.1548ZM154.948 17.0723V17.6362H156.348V17.0723H154.948ZM156.192 18.077C157.027 17.0467 157.869 16.3253 158.71 15.8792L158.054 14.6423C157.005 15.1988 156.024 16.061 155.104 17.1955L156.192 18.077ZM158.716 15.8761C159.548 15.425 160.502 15.1917 161.595 15.1917V13.7917C160.296 13.7917 159.108 14.0711 158.049 14.6454L158.716 15.8761ZM161.595 15.1917C162.903 15.1917 164.098 15.5272 165.194 16.1993L165.926 15.0058C164.607 14.1968 163.158 13.7917 161.595 13.7917V15.1917ZM165.194 16.1993C166.275 16.8622 167.141 17.8375 167.785 19.1566L169.043 18.5426C168.297 17.0135 167.26 15.824 165.926 15.0058L165.194 16.1993ZM167.787 19.1607C168.436 20.4688 168.774 22.044 168.774 23.9082H170.174C170.174 21.876 169.805 20.0788 169.041 18.5386L167.787 19.1607ZM168.774 23.9082C168.774 25.2767 168.578 26.5212 168.196 27.6479L169.521 28.0982C169.959 26.8095 170.174 25.4108 170.174 23.9082H168.774ZM168.194 27.6517C167.82 28.7756 167.308 29.7003 166.67 30.4412L167.731 31.3547C168.506 30.455 169.1 29.3631 169.522 28.0944L168.194 27.6517ZM166.673 30.4375C166.032 31.1725 165.274 31.7389 164.397 32.1416L164.98 33.4141C166.04 32.9281 166.957 32.2413 167.728 31.3584L166.673 30.4375ZM164.4 32.1401C163.538 32.5299 162.606 32.7272 161.595 32.7272V34.1272C162.795 34.1272 163.925 33.8917 164.977 33.4156L164.4 32.1401ZM161.595 32.7272C160.355 32.7272 159.362 32.4783 158.583 32.0205L157.874 33.2276C158.918 33.8407 160.17 34.1272 161.595 34.1272V32.7272ZM158.586 32.0224C157.776 31.5404 156.978 30.818 156.197 29.8313L155.099 30.7C155.959 31.7868 156.881 32.6367 157.871 33.2256L158.586 32.0224ZM154.948 30.2656V37.2725H156.348V30.2656H154.948ZM154.948 37.2725C154.948 38.2337 154.769 38.8282 154.522 39.1677C154.305 39.4658 153.977 39.6486 153.409 39.6486V41.0486C154.334 41.0486 155.125 40.7188 155.654 39.9915C156.153 39.3056 156.348 38.362 156.348 37.2725H154.948ZM153.409 39.6486C152.661 39.6486 152.397 39.4285 152.284 39.2167L151.048 39.8741C151.505 40.7333 152.403 41.0486 153.409 41.0486V39.6486ZM152.281 39.2112C152.078 38.8381 151.939 38.207 151.939 37.2383H150.539C150.539 38.2975 150.684 39.2046 151.051 39.8797L152.281 39.2112ZM151.939 37.2383V17.1064H150.539V37.2383H151.939ZM151.939 17.1064C151.939 16.302 152.117 15.8422 152.341 15.5908L151.298 14.6573C150.748 15.2717 150.539 16.1336 150.539 17.1064H151.939ZM152.347 15.584C152.582 15.3145 152.908 15.1575 153.409 15.1575V13.7575C152.566 13.7575 151.832 14.0449 151.292 14.664L152.347 15.584ZM153.409 15.1575C153.889 15.1575 154.229 15.3136 154.495 15.6094L155.536 14.6728C154.982 14.0572 154.251 13.7575 153.409 13.7575V15.1575ZM154.508 15.6229C154.766 15.8948 154.948 16.3401 154.948 17.0723H156.348C156.348 16.1183 156.109 15.2761 155.523 14.6593L154.508 15.6229ZM165.491 23.8569C165.491 22.5579 165.293 21.4052 164.87 20.4196L163.584 20.9711C163.913 21.7399 164.091 22.695 164.091 23.8569H165.491ZM164.872 20.4226C164.454 19.4342 163.853 18.642 163.054 18.0868L162.255 19.2365C162.801 19.6155 163.249 20.1791 163.582 20.9681L164.872 20.4226ZM163.065 18.0947C162.286 17.5305 161.408 17.2438 160.45 17.2438V18.6438C161.11 18.6438 161.702 18.8357 162.244 19.2286L163.065 18.0947ZM160.45 17.2438C158.95 17.2438 157.674 17.846 156.66 19.0035L157.712 19.9262C158.475 19.0557 159.375 18.6438 160.45 18.6438V17.2438ZM156.657 19.0068C155.628 20.1963 155.17 21.8803 155.17 23.9424H156.57C156.57 22.0624 156.99 20.7614 157.715 19.9228L156.657 19.0068ZM155.17 23.9424C155.17 25.9043 155.634 27.5325 156.652 28.7354L157.72 27.831C156.984 26.9604 156.57 25.6947 156.57 23.9424H155.17ZM156.654 28.7383C157.658 29.9122 158.938 30.5213 160.45 30.5213V29.1213C159.365 29.1213 158.468 28.705 157.718 27.8281L156.654 28.7383ZM160.45 30.5213C161.368 30.5213 162.221 30.2554 162.994 29.7357L162.213 28.5739C161.664 28.9429 161.082 29.1213 160.45 29.1213V30.5213ZM163.001 29.731C163.79 29.187 164.394 28.3961 164.833 27.4046L163.553 26.8375C163.195 27.6463 162.739 28.2111 162.206 28.5785L163.001 29.731ZM164.833 27.4046C165.281 26.393 165.491 25.2029 165.491 23.8569H164.091C164.091 25.063 163.902 26.049 163.553 26.8375L164.833 27.4046ZM175.232 8.23682L174.706 7.77405L174.7 7.78126L175.232 8.23682ZM178.632 8.23682L178.113 8.70649L178.119 8.71265L178.632 8.23682ZM178.615 32.7266L178.102 32.2502L178.102 32.2507L178.615 32.7266ZM175.249 32.6924L174.718 33.149L174.724 33.1559L175.249 32.6924ZM175.316 30.5903V10.356H173.916V30.5903H175.316ZM175.316 10.356C175.316 9.51054 175.504 8.9951 175.763 8.69237L174.7 7.78126C174.139 8.43556 173.916 9.33289 173.916 10.356H175.316ZM175.757 8.69954C176.03 8.38915 176.394 8.21904 176.923 8.21904V6.81904C176.04 6.81904 175.276 7.12746 174.706 7.7741L175.757 8.69954ZM176.923 8.21904C177.453 8.21904 177.827 8.38945 178.113 8.70646L179.151 7.76718C178.572 7.12715 177.807 6.81904 176.923 6.81904V8.21904ZM178.119 8.71265C178.385 8.99973 178.582 9.50286 178.582 10.356H179.982C179.982 9.31778 179.746 8.40815 179.146 7.76098L178.119 8.71265ZM178.582 10.356V30.5903H179.982V10.356H178.582ZM178.582 30.5903C178.582 31.4377 178.382 31.9491 178.102 32.2502L179.128 33.2029C179.737 32.547 179.982 31.6342 179.982 30.5903H178.582ZM178.102 32.2507C177.814 32.561 177.443 32.7272 176.923 32.7272V34.1272C177.793 34.1272 178.55 33.8264 179.129 33.2024L178.102 32.2507ZM176.923 32.7272C176.43 32.7272 176.066 32.5608 175.773 32.2288L174.724 33.1559C175.297 33.8038 176.05 34.1272 176.923 34.1272V32.7272ZM175.779 32.2358C175.504 31.9164 175.316 31.4023 175.316 30.5903H173.916C173.916 31.6013 174.15 32.4885 174.718 33.149L175.779 32.2358ZM197.31 30.7954L197.907 30.4294L197.498 29.7626L196.88 30.2429L197.31 30.7954ZM194.029 32.7778L194.296 33.4248L194.3 33.4234L194.029 32.7778ZM187.33 32.7266L187.001 33.3447L187.011 33.3495L187.33 32.7266ZM185.723 24.8994L185.203 24.4315L185.723 24.8994ZM189.056 23.0879L189.205 23.7719L189.213 23.77L189.056 23.0879ZM194.268 21.9771L194.427 22.6588L194.434 22.6572L194.268 21.9771ZM197.003 21.2422L197.198 21.9144L197.727 21.7605L197.702 21.2098L197.003 21.2422ZM196.251 18.542L195.689 18.9602L195.694 18.9664L195.699 18.9725L196.251 18.542ZM190.85 18.166L190.514 17.5519L190.509 17.5547L190.85 18.166ZM189.312 19.6528L188.727 19.2692L188.722 19.2764L189.312 19.6528ZM188.406 20.9688L187.871 20.5178L187.869 20.5206L188.406 20.9688ZM185.911 20.7808L185.44 21.2987L185.449 21.3062L185.457 21.3133L185.911 20.7808ZM186.219 17.0894L186.779 17.5094L186.219 17.0894ZM188.936 15.1753L188.672 14.527L188.936 15.1753ZM198.37 15.1582L198.1 15.8042L198.106 15.8064L198.37 15.1582ZM200.848 17.4482L200.211 17.739L200.214 17.7446L200.848 17.4482ZM201.566 24.4038L200.866 24.3934V24.4038H201.566ZM201.549 26.9502L200.849 26.9417V26.9502H201.549ZM201.976 29.7017L201.305 29.9014L201.308 29.9109L201.976 29.7017ZM201.737 32.8462L202.197 33.3738L202.197 33.373L201.737 32.8462ZM198.797 32.7607L198.308 33.2618L198.315 33.2679L198.797 32.7607ZM197.003 24.0449H197.703V23.0427L196.762 23.3877L197.003 24.0449ZM194.012 24.8481L194.156 25.5331L194.161 25.5322L194.012 24.8481ZM191.312 25.4634L191.481 26.1425L191.489 26.1407L191.496 26.1387L191.312 25.4634ZM189.876 26.2324L190.322 26.7724L190.33 26.7658L189.876 26.2324ZM189.996 29.6333L189.517 30.1443L189.523 30.1498L189.996 29.6333ZM194.644 29.77L194.965 30.3924L194.968 30.3906L194.644 29.77ZM196.37 28.1978L195.769 27.839L195.763 27.8505L196.37 28.1978ZM196.88 30.2429C195.79 31.0911 194.749 31.7168 193.758 32.1323L194.3 33.4234C195.428 32.9502 196.575 32.2543 197.74 31.348L196.88 30.2429ZM193.762 32.1308C192.81 32.5238 191.724 32.7272 190.491 32.7272V34.1272C191.879 34.1272 193.151 33.8978 194.296 33.4248L193.762 32.1308ZM190.491 32.7272C189.387 32.7272 188.446 32.5122 187.649 32.1036L187.011 33.3495C188.036 33.8751 189.203 34.1272 190.491 34.1272V32.7272ZM187.658 32.1085C186.861 31.6844 186.263 31.1254 185.844 30.4328L184.646 31.158C185.206 32.0833 185.999 32.8117 187.001 33.3446L187.658 32.1085ZM185.844 30.4328C185.42 29.7332 185.21 28.9813 185.21 28.1636H183.81C183.81 29.2371 184.09 30.2398 184.646 31.158L185.844 30.4328ZM185.21 28.1636C185.21 27.05 185.557 26.1314 186.244 25.3673L185.203 24.4315C184.272 25.4675 183.81 26.7251 183.81 28.1636H185.21ZM186.244 25.3673C186.937 24.5964 187.907 24.0545 189.205 23.7719L188.907 22.4039C187.379 22.7365 186.128 23.4023 185.203 24.4315L186.244 25.3673ZM189.213 23.77C189.499 23.7041 190.224 23.5523 191.4 23.3124L191.121 21.9406C189.95 22.1792 189.205 22.335 188.898 22.4058L189.213 23.77ZM191.4 23.3124C192.578 23.0723 193.587 22.8544 194.427 22.6588L194.109 21.2953C193.286 21.4871 192.29 21.7021 191.121 21.9406L191.4 23.3124ZM194.434 22.6572C195.288 22.4493 196.21 22.2016 197.198 21.9144L196.807 20.57C195.836 20.8524 194.934 21.0946 194.103 21.2969L194.434 22.6572ZM197.702 21.2098C197.642 19.926 197.379 18.8509 196.803 18.1115L195.699 18.9725C196.011 19.3724 196.249 20.0975 196.303 21.2746L197.702 21.2098ZM196.812 18.1238C196.166 17.2562 194.947 16.9704 193.533 16.9704V18.3704C194.877 18.3704 195.47 18.6657 195.689 18.9602L196.812 18.1238ZM193.533 16.9704C192.305 16.9704 191.271 17.138 190.514 17.5519L191.186 18.7801C191.638 18.5332 192.392 18.3704 193.533 18.3704V16.9704ZM190.509 17.5547C189.803 17.9485 189.211 18.5295 188.727 19.2692L189.898 20.0365C190.279 19.4546 190.713 19.0443 191.191 18.7774L190.509 17.5547ZM188.722 19.2764C188.298 19.9414 188.019 20.3419 187.871 20.5179L188.942 21.4196C189.158 21.1626 189.483 20.6859 189.902 20.0293L188.722 19.2764ZM187.869 20.5206C187.908 20.473 187.922 20.4941 187.812 20.5241C187.706 20.5531 187.534 20.5764 187.279 20.5764V21.9764C187.604 21.9764 187.911 21.9483 188.18 21.8748C188.446 21.8023 188.734 21.6696 188.944 21.4169L187.869 20.5206ZM187.279 20.5764C186.916 20.5764 186.622 20.4671 186.366 20.2482L185.457 21.3133C185.975 21.7552 186.593 21.9764 187.279 21.9764V20.5764ZM186.382 20.2628C186.157 20.0583 186.047 19.8158 186.047 19.4819H184.647C184.647 20.1962 184.913 20.8196 185.44 21.2987L186.382 20.2628ZM186.047 19.4819C186.047 18.8391 186.272 18.1855 186.779 17.5094L185.659 16.6694C185.004 17.5426 184.647 18.4841 184.647 19.4819H186.047ZM186.779 17.5094C187.261 16.8671 188.045 16.2941 189.2 15.8236L188.672 14.527C187.366 15.0591 186.339 15.7621 185.659 16.6694L186.779 17.5094ZM189.2 15.8236C190.322 15.3668 191.757 15.1233 193.533 15.1233V13.7233C191.641 13.7233 190.012 13.9812 188.672 14.527L189.2 15.8236ZM193.533 15.1233C195.542 15.1233 197.048 15.3651 198.1 15.8042L198.64 14.5122C197.344 13.9715 195.627 13.7233 193.533 13.7233V15.1233ZM198.106 15.8064C199.132 16.2249 199.814 16.8699 200.211 17.7389L201.485 17.1575C200.924 15.9303 199.955 15.0486 198.634 14.51L198.106 15.8064ZM200.214 17.7446C200.644 18.6656 200.883 19.9424 200.883 21.6182H202.283C202.283 19.8304 202.031 18.3273 201.482 17.1518L200.214 17.7446ZM200.883 21.6182C200.883 22.7098 200.877 23.6346 200.866 24.3934L202.266 24.4143C202.277 23.6463 202.283 22.714 202.283 21.6182H200.883ZM200.866 24.4038C200.866 25.1638 200.86 26.0097 200.849 26.9417L202.248 26.9587C202.26 26.0222 202.266 25.1705 202.266 24.4038H200.866ZM200.849 26.9502C200.849 27.9037 201.003 28.8883 201.305 29.9013L202.647 29.502C202.379 28.601 202.249 27.7513 202.249 26.9502H200.849ZM201.308 29.9109C201.454 30.3765 201.56 30.7492 201.629 31.0333C201.702 31.3353 201.72 31.4847 201.72 31.5303H203.12C203.12 31.3024 203.064 31.0103 202.989 30.7028C202.91 30.3773 202.794 29.9725 202.644 29.4924L201.308 29.9109ZM201.72 31.5303C201.72 31.7557 201.623 32.0156 201.276 32.3194L202.197 33.373C202.762 32.8792 203.12 32.2619 203.12 31.5303H201.72ZM201.277 32.3186C200.955 32.599 200.61 32.7272 200.216 32.7272V34.1272C200.961 34.1272 201.63 33.8681 202.197 33.3738L201.277 32.3186ZM200.216 32.7272C199.972 32.7272 199.663 32.618 199.28 32.2536L198.315 33.2679C198.866 33.7921 199.502 34.1272 200.216 34.1272V32.7272ZM199.286 32.2597C198.876 31.8598 198.415 31.2579 197.907 30.4294L196.714 31.1614C197.254 32.0419 197.784 32.7502 198.308 33.2618L199.286 32.2597ZM196.762 23.3877C196.123 23.6217 195.163 23.8815 193.863 24.1641L194.161 25.5322C195.481 25.2452 196.515 24.9694 197.244 24.7021L196.762 23.3877ZM193.868 24.1632C192.57 24.4364 191.651 24.6453 191.128 24.788L191.496 26.1387C191.975 26.0081 192.856 25.8068 194.156 25.5331L193.868 24.1632ZM191.142 24.7843C190.521 24.9395 189.948 25.2529 189.423 25.6991L190.33 26.7658C190.716 26.4372 191.1 26.2379 191.481 26.1425L191.142 24.7843ZM189.431 25.6925C188.787 26.2231 188.493 26.9659 188.493 27.8218H189.893C189.893 27.3105 190.053 26.9937 190.322 26.7724L189.431 25.6925ZM188.493 27.8218C188.493 28.7301 188.847 29.5164 189.517 30.1443L190.474 29.1223C190.074 28.7476 189.893 28.3263 189.893 27.8218H188.493ZM189.523 30.1498C190.212 30.7798 191.093 31.0682 192.098 31.0682V29.6682C191.371 29.6682 190.851 29.4666 190.468 29.1168L189.523 30.1498ZM192.098 31.0682C193.125 31.0682 194.085 30.8452 194.965 30.3924L194.324 29.1476C193.654 29.4924 192.916 29.6682 192.098 29.6682V31.0682ZM194.968 30.3906C195.848 29.9314 196.534 29.3216 196.978 28.5451L195.763 27.8505C195.477 28.3499 195.012 28.7883 194.32 29.1494L194.968 30.3906ZM196.971 28.5565C197.495 27.6793 197.703 26.3549 197.703 24.7114H196.303C196.303 26.3037 196.089 27.3034 195.769 27.839L196.971 28.5565ZM197.703 24.7114V24.0449H196.303V24.7114H197.703ZM211.972 17.6021H211.272V19.6846L212.53 18.0249L211.972 17.6021ZM214.655 15.2266L214.977 15.8482L214.98 15.8468L214.655 15.2266ZM221.32 15.2607L221.659 14.6482L221.32 15.2607ZM223.491 17.5337L222.862 17.8409L222.868 17.8537L222.875 17.8663L223.491 17.5337ZM223.576 32.7095L223.057 32.2398L223.051 32.2468L223.576 32.7095ZM218.928 19.2939L218.305 19.6139L218.31 19.6243L218.928 19.2939ZM214.108 18.8154L214.516 19.3844L214.522 19.3799L214.108 18.8154ZM212.604 20.8491L211.947 20.6071L211.943 20.619L211.939 20.631L212.604 20.8491ZM211.596 32.7266L211.083 32.2502L211.083 32.2507L211.596 32.7266ZM208.178 15.124L208.7 15.5908L208.706 15.584L208.178 15.124ZM211.664 15.6196L211.038 15.9327L211.042 15.94L211.046 15.9472L211.664 15.6196ZM211.272 17.0381V17.6021H212.672V17.0381H211.272ZM212.53 18.0249C213.302 17.0057 214.121 16.2914 214.977 15.8482L214.333 14.6049C213.253 15.1644 212.282 16.0337 211.414 17.1792L212.53 18.0249ZM214.98 15.8468C215.846 15.3936 216.854 15.1575 218.022 15.1575V13.7575C216.66 13.7575 215.424 14.0341 214.331 14.6063L214.98 15.8468ZM218.022 15.1575C219.147 15.1575 220.128 15.4014 220.981 15.8733L221.659 14.6482C220.575 14.0491 219.357 13.7575 218.022 13.7575V15.1575ZM220.981 15.8733C221.826 16.3403 222.447 16.9923 222.862 17.8409L224.12 17.2265C223.577 16.1155 222.751 15.2521 221.659 14.6482L220.981 15.8733ZM222.875 17.8663C223.141 18.36 223.315 18.8947 223.395 19.475L224.782 19.2837C224.68 18.5425 224.455 17.8467 224.106 17.2011L222.875 17.8663ZM223.395 19.475C223.48 20.0921 223.525 20.9003 223.525 21.9087H224.925C224.925 20.8663 224.879 19.9883 224.782 19.2837L223.395 19.475ZM223.525 21.9087V30.5903H224.925V21.9087H223.525ZM223.525 30.5903C223.525 31.4277 223.331 31.9374 223.057 32.2398L224.095 33.1791C224.687 32.5245 224.925 31.6214 224.925 30.5903H223.525ZM223.051 32.2468C222.772 32.5626 222.417 32.7272 221.918 32.7272V34.1272C222.787 34.1272 223.536 33.8134 224.101 33.1722L223.051 32.2468ZM221.918 32.7272C221.41 32.7272 221.042 32.558 220.751 32.2288L219.702 33.1559C220.277 33.8066 221.037 34.1272 221.918 34.1272V32.7272ZM220.751 32.2288C220.469 31.9096 220.277 31.3982 220.277 30.5903H218.877C218.877 31.6054 219.118 32.4954 219.702 33.1559L220.751 32.2288ZM220.277 30.5903V22.8145H218.877V30.5903H220.277ZM220.277 22.8145C220.277 21.2297 220.057 19.921 219.545 18.9636L218.31 19.6243C218.664 20.2847 218.877 21.3231 218.877 22.8145H220.277ZM219.55 18.974C218.964 17.8329 217.804 17.3635 216.381 17.3635V18.7635C217.51 18.7635 218.048 19.1144 218.305 19.6139L219.55 18.974ZM216.381 17.3635C215.398 17.3635 214.495 17.6634 213.694 18.2509L214.522 19.3799C215.088 18.9648 215.701 18.7635 216.381 18.7635V17.3635ZM213.7 18.2465C212.892 18.8259 212.31 19.6231 211.947 20.6071L213.261 21.0911C213.537 20.3433 213.957 19.7848 214.516 19.3844L213.7 18.2465ZM211.939 20.631C211.672 21.4459 211.562 22.8507 211.562 24.7456H212.962C212.962 22.8352 213.081 21.6423 213.269 21.0672L211.939 20.631ZM211.562 24.7456V30.5903H212.962V24.7456H211.562ZM211.562 30.5903C211.562 31.4377 211.363 31.9491 211.083 32.2502L212.109 33.2029C212.718 32.547 212.962 31.6342 212.962 30.5903H211.562ZM211.083 32.2507C210.795 32.561 210.424 32.7272 209.904 32.7272V34.1272C210.774 34.1272 211.531 33.8264 212.109 33.2024L211.083 32.2507ZM209.904 32.7272C209.426 32.7272 209.067 32.5636 208.771 32.2288L207.722 33.1559C208.292 33.801 209.038 34.1272 209.904 34.1272V32.7272ZM208.771 32.2288C208.489 31.9096 208.297 31.3982 208.297 30.5903H206.897C206.897 31.6054 207.138 32.4954 207.722 33.1559L208.771 32.2288ZM208.297 30.5903V17.1064H206.897V30.5903H208.297ZM208.297 17.1064C208.297 16.302 208.475 15.8422 208.7 15.5908L207.656 14.6573C207.107 15.2717 206.897 16.1336 206.897 17.1064H208.297ZM208.706 15.584C208.941 15.3145 209.266 15.1575 209.767 15.1575V13.7575C208.924 13.7575 208.19 14.0449 207.65 14.664L208.706 15.584ZM209.767 15.1575C210.062 15.1575 210.309 15.2257 210.524 15.3519L211.232 14.1442C210.787 13.8831 210.293 13.7575 209.767 13.7575V15.1575ZM210.524 15.3519C210.723 15.4684 210.897 15.6502 211.038 15.9327L212.29 15.3066C212.044 14.8143 211.694 14.4151 211.232 14.1442L210.524 15.3519ZM211.046 15.9472C211.185 16.2097 211.272 16.5635 211.272 17.0381H212.672C212.672 16.3961 212.554 15.8043 212.283 15.2921L211.046 15.9472Z" fill="#41B883"/>
<path d="M12.4875 46.4713L15.8275 46.4313C17.7075 46.4313 19.1342 46.7246 20.1075 47.3113C21.0942 47.8979 21.5875 48.9179 21.5875 50.3713C21.5875 51.8113 21.0142 52.9446 19.8675 53.7713C18.7208 54.5846 17.2675 54.9913 15.5075 54.9913C15.0275 54.9913 14.5542 54.9446 14.0875 54.8513V57.4713C14.0875 58.4579 14.2208 59.2979 14.4875 59.9913V60.4313H10.8475V59.9913C11.1142 59.2313 11.2475 58.2979 11.2475 57.1913V50.0113C11.2475 48.6779 11.1342 47.6313 10.9075 46.8713V46.4313C11.8142 46.4579 12.3408 46.4713 12.4875 46.4713ZM18.5875 50.5713C18.5875 49.5579 18.3675 48.8313 17.9275 48.3913C17.4875 47.9513 16.7808 47.7313 15.8075 47.7313C14.8475 47.7313 14.2875 47.7379 14.1275 47.7513C14.1008 48.1513 14.0875 49.2579 14.0875 51.0713V53.6313C14.5142 53.7513 14.9808 53.8113 15.4875 53.8113C16.5008 53.8113 17.2675 53.5246 17.7875 52.9513C18.3208 52.3779 18.5875 51.5846 18.5875 50.5713ZM35.4798 45.9513C35.4265 46.5913 35.3998 47.3513 35.3998 48.2313C35.3998 49.1113 35.4065 49.6513 35.4198 49.8513V57.0913C35.4198 58.3313 35.5265 59.2979 35.7398 59.9913L35.7598 60.4313H32.5198V59.9913C32.7332 59.2979 32.8398 58.3313 32.8398 57.0913V49.2313C32.8398 48.0846 32.5398 47.2246 31.9398 46.6513V46.2113L35.2398 45.5113L35.4798 45.9513ZM52.2373 56.4313C51.7573 56.2579 51.224 56.1713 50.6373 56.1713C50.064 56.1713 49.624 56.2779 49.3173 56.4913C49.1173 56.7446 49.0173 57.0779 49.0173 57.4913C49.0173 58.5313 49.4707 59.0513 50.3773 59.0513C51.124 59.0513 51.744 58.7446 52.2373 58.1313V56.4313ZM49.5573 60.7913C48.7173 60.7913 47.9773 60.5379 47.3373 60.0313C46.6973 59.5246 46.3773 58.7913 46.3773 57.8313C46.3773 55.9779 47.7307 55.0513 50.4373 55.0513L52.2173 55.1313V53.9113C52.2173 53.2179 52.044 52.6579 51.6973 52.2313C51.3507 51.8046 50.8173 51.5913 50.0973 51.5913C49.9373 51.5913 49.7307 51.6779 49.4773 51.8513C49.224 52.0113 49.0107 52.1779 48.8373 52.3513C48.2907 52.8713 47.8507 53.2979 47.5173 53.6313C46.8507 52.8446 46.4907 52.0513 46.4373 51.2513C48.144 50.7179 49.584 50.4513 50.7573 50.4513C51.9307 50.4513 52.9107 50.7246 53.6973 51.2713C54.484 51.8179 54.8773 52.6779 54.8773 53.8513V56.9913C54.8773 57.5913 54.9773 58.1646 55.1773 58.7113C55.3773 59.2579 55.624 59.6246 55.9173 59.8113L55.9573 60.2513L53.0973 60.8513C52.884 60.4513 52.684 59.8913 52.4973 59.1713C52.1507 59.5446 51.8707 59.8246 51.6573 60.0113C51.444 60.1846 51.144 60.3579 50.7573 60.5313C50.384 60.7046 49.984 60.7913 49.5573 60.7913ZM73.1325 50.4513C74.1325 50.4513 74.9058 50.7646 75.4525 51.3913C75.9992 52.0046 76.2725 52.8979 76.2725 54.0713V56.6113C76.2725 57.9313 76.4725 59.0579 76.8725 59.9913V60.4313H73.3525V59.9913C73.5792 59.3646 73.6925 58.4646 73.6925 57.2913V54.7913C73.6925 54.0179 73.5992 53.4513 73.4125 53.0913C73.2258 52.7179 72.8258 52.5313 72.2125 52.5313C71.5992 52.5313 70.8192 52.8113 69.8725 53.3713V56.6513C69.8725 58.0513 70.0658 59.1646 70.4525 59.9913V60.4313H66.9525V59.9913C67.1792 59.3113 67.2925 58.3646 67.2925 57.1513V54.4713C67.2925 52.8846 66.8925 51.8913 66.0925 51.4913V51.0513L69.3325 50.4313L69.5525 50.8113C69.6592 51.1313 69.7325 51.5579 69.7725 52.0913C70.4525 51.5446 71.0392 51.1379 71.5325 50.8713C72.0392 50.5913 72.5725 50.4513 73.1325 50.4513ZM103.996 46.0913C104.116 46.1979 104.196 46.4246 104.236 46.7713C104.29 47.1179 104.316 47.3846 104.316 47.5713C104.316 47.7579 104.303 47.9246 104.276 48.0713L104.096 48.2313C103.51 48.4046 102.743 48.5246 101.796 48.5913L101.576 48.4913C101.47 48.3179 101.383 48.0313 101.316 47.6313C101.263 47.2313 101.236 46.9579 101.236 46.8113C101.236 46.6513 101.236 46.5446 101.236 46.4913L101.416 46.3313C102.136 46.0913 102.85 45.9713 103.556 45.9713H103.776L103.996 46.0913ZM104.376 52.5713V56.8513C104.376 58.1179 104.57 59.1646 104.956 59.9913V60.4313H101.456V59.9913C101.683 59.3113 101.796 58.4113 101.796 57.2913V54.3313C101.796 53.5979 101.683 52.9913 101.456 52.5113C101.23 52.0179 100.943 51.6779 100.596 51.4913V51.0513L104.256 50.3713L104.496 50.7713C104.416 51.0779 104.376 51.6779 104.376 52.5713ZM120.065 59.1313C120.825 59.1313 121.205 58.7646 121.205 58.0313C121.205 57.3513 120.559 56.8379 119.265 56.4913C118.732 56.3446 118.199 56.1779 117.665 55.9913C117.132 55.8046 116.679 55.5046 116.305 55.0913C115.932 54.6779 115.745 54.1513 115.745 53.5113C115.745 52.5913 116.159 51.8779 116.985 51.3713C117.812 50.8513 118.819 50.5913 120.005 50.5913C121.192 50.5913 122.432 50.8779 123.725 51.4513C123.659 52.0379 123.299 52.7446 122.645 53.5713C122.112 53.0379 121.559 52.6313 120.985 52.3513C120.412 52.0713 119.912 51.9313 119.485 51.9313C119.059 51.9313 118.732 51.9779 118.505 52.0713C118.305 52.2446 118.205 52.5313 118.205 52.9313C118.205 53.3179 118.392 53.6179 118.765 53.8313C119.152 54.0446 119.619 54.2179 120.165 54.3513C120.712 54.4713 121.259 54.6246 121.805 54.8113C122.352 54.9979 122.812 55.3179 123.185 55.7713C123.572 56.2113 123.765 56.7913 123.765 57.5113C123.765 58.5513 123.359 59.3379 122.545 59.8713C121.745 60.3913 120.679 60.6513 119.345 60.6513C118.012 60.6513 116.739 60.2713 115.525 59.5113C115.579 58.7113 115.879 57.9713 116.425 57.2913C117.745 58.5179 118.959 59.1313 120.065 59.1313ZM137.703 56.6713C137.703 58.1779 137.87 59.2846 138.203 59.9913V60.4313H134.783V59.9913C135.01 59.2579 135.123 58.2913 135.123 57.0913V49.2313C135.123 48.0846 134.823 47.2246 134.223 46.6513V46.2113L137.523 45.5113L137.763 45.9513C137.723 46.3246 137.703 47.6313 137.703 49.8713V52.0713C138.397 51.5246 138.997 51.1179 139.503 50.8513C140.01 50.5846 140.557 50.4513 141.143 50.4513C142.21 50.4513 143.03 50.7646 143.603 51.3913C144.177 52.0046 144.463 52.8979 144.463 54.0713V56.6113C144.463 57.9313 144.663 59.0579 145.063 59.9913V60.4313H141.543V59.9913C141.77 59.3646 141.883 58.4646 141.883 57.2913V54.7913C141.883 54.0046 141.777 53.4313 141.563 53.0713C141.363 52.7113 140.923 52.5313 140.243 52.5313C139.577 52.5313 138.73 52.8113 137.703 53.3713V56.6713ZM160.033 60.4313H156.533V59.9913C156.759 59.2713 156.873 58.3779 156.873 57.3113V54.3313C156.873 53.7446 156.759 53.1779 156.533 52.6313C156.319 52.0713 156.059 51.7046 155.753 51.5313V51.0913L158.573 50.4313L158.773 50.7113C158.853 50.8313 158.973 51.1046 159.133 51.5313C159.999 50.8113 160.906 50.4513 161.853 50.4513C162.319 50.4513 162.753 50.5446 163.153 50.7313C163.153 50.7979 163.153 50.8579 163.153 50.9113C163.153 51.7513 162.986 52.5913 162.653 53.4313C161.946 52.9379 161.186 52.6913 160.373 52.6913C160.119 52.6913 159.813 52.7313 159.453 52.8113V56.7513C159.453 58.0313 159.646 59.1113 160.033 59.9913V60.4313ZM178.375 56.4313C177.895 56.2579 177.362 56.1713 176.775 56.1713C176.202 56.1713 175.762 56.2779 175.455 56.4913C175.255 56.7446 175.155 57.0779 175.155 57.4913C175.155 58.5313 175.608 59.0513 176.515 59.0513C177.262 59.0513 177.882 58.7446 178.375 58.1313V56.4313ZM175.695 60.7913C174.855 60.7913 174.115 60.5379 173.475 60.0313C172.835 59.5246 172.515 58.7913 172.515 57.8313C172.515 55.9779 173.868 55.0513 176.575 55.0513L178.355 55.1313V53.9113C178.355 53.2179 178.182 52.6579 177.835 52.2313C177.488 51.8046 176.955 51.5913 176.235 51.5913C176.075 51.5913 175.868 51.6779 175.615 51.8513C175.362 52.0113 175.148 52.1779 174.975 52.3513C174.428 52.8713 173.988 53.2979 173.655 53.6313C172.988 52.8446 172.628 52.0513 172.575 51.2513C174.282 50.7179 175.722 50.4513 176.895 50.4513C178.068 50.4513 179.048 50.7246 179.835 51.2713C180.622 51.8179 181.015 52.6779 181.015 53.8513V56.9913C181.015 57.5913 181.115 58.1646 181.315 58.7113C181.515 59.2579 181.762 59.6246 182.055 59.8113L182.095 60.2513L179.235 60.8513C179.022 60.4513 178.822 59.8913 178.635 59.1713C178.288 59.5446 178.008 59.8246 177.795 60.0113C177.582 60.1846 177.282 60.3579 176.895 60.5313C176.522 60.7046 176.122 60.7913 175.695 60.7913ZM199.27 50.4513C200.27 50.4513 201.043 50.7646 201.59 51.3913C202.137 52.0046 202.41 52.8979 202.41 54.0713V56.6113C202.41 57.9313 202.61 59.0579 203.01 59.9913V60.4313H199.49V59.9913C199.717 59.3646 199.83 58.4646 199.83 57.2913V54.7913C199.83 54.0179 199.737 53.4513 199.55 53.0913C199.363 52.7179 198.963 52.5313 198.35 52.5313C197.737 52.5313 196.957 52.8113 196.01 53.3713V56.6513C196.01 58.0513 196.203 59.1646 196.59 59.9913V60.4313H193.09V59.9913C193.317 59.3113 193.43 58.3646 193.43 57.1513V54.4713C193.43 52.8846 193.03 51.8913 192.23 51.4913V51.0513L195.47 50.4313L195.69 50.8113C195.797 51.1313 195.87 51.5579 195.91 52.0913C196.59 51.5446 197.177 51.1379 197.67 50.8713C198.177 50.5913 198.71 50.4513 199.27 50.4513ZM218.082 60.8113C216.922 60.8113 215.882 60.3779 214.962 59.5113C214.042 58.6446 213.582 57.4779 213.582 56.0113C213.582 54.5313 214.068 53.2379 215.042 52.1313C216.015 51.0113 217.275 50.4513 218.822 50.4513C220.128 50.4513 221.102 50.8713 221.742 51.7113C222.382 52.5513 222.702 53.7113 222.702 55.1913L221.942 55.9713H216.462C216.475 56.9313 216.728 57.6713 217.222 58.1913C217.728 58.7113 218.328 58.9713 219.022 58.9713C219.728 58.9713 220.788 58.6046 222.202 57.8713L222.702 58.6313C222.448 58.8713 222.162 59.1179 221.842 59.3713C221.522 59.6246 220.982 59.9313 220.222 60.2913C219.475 60.6379 218.762 60.8113 218.082 60.8113ZM218.362 51.7313C217.868 51.7313 217.475 51.8313 217.182 52.0313C216.968 52.3646 216.802 52.8046 216.682 53.3513C216.562 53.8979 216.495 54.3846 216.482 54.8113L219.982 54.6113C219.982 52.6913 219.442 51.7313 218.362 51.7313Z" fill="#404A46" fill-opacity="0.9"/>
</svg>
