<svg id="Capa_1" enable-background="new 0 0 512 512" height="512" viewBox="0 0 512 512" width="512" xmlns="http://www.w3.org/2000/svg"><g id="Login"><path d="m128 160h256v192h-256z" fill="#ffce33"/><path d="m160 160h32v64h-32z" fill="#ffa65c"/><path d="m320 160h32v64h-32z" fill="#ffa65c"/><path d="m0 384h512v128h-512z" fill="#ffce33"/><g fill="#fffa50"><circle cx="64" cy="448" r="32"/><circle cx="192" cy="448" r="32"/><circle cx="320" cy="448" r="32"/><circle cx="448" cy="448" r="32"/><path d="m256 0c53.019 0 96 42.981 96 96v64h-32v-64c0-35.346-28.654-64-64-64-35.346 0-64 28.654-64 64v64h-32v-64c0-53.019 42.981-96 96-96z"/><path d="m256 288c-8.837 0-16-7.163-16-16v-32c0-8.837 7.163-16 16-16 8.837 0 16 7.163 16 16v32c0 8.837-7.163 16-16 16z"/></g></g></svg>