<svg id="Filled" height="512" viewBox="0 0 512 512" width="512" xmlns="http://www.w3.org/2000/svg"><circle cx="136" cy="288" fill="#30496d" r="120"/><path d="m160 264s-40 8-48 48c-8-40-48-48-48-48s40-8 48-48c8 40 48 48 48 48z" fill="#263654"/><path d="m344 168s-32-96-96-88c0 0-16 88 96 88z" fill="#e4bc43"/><path d="m344 168s32-96 96-88c0 0 16 88-96 88z" fill="#e4bc43"/><g fill="#ea7070"><ellipse cx="320" cy="360" rx="40" ry="48"/><ellipse cx="368" cy="360" rx="40" ry="48"/><ellipse cx="392" cy="304" rx="40" ry="48"/><ellipse cx="296" cy="304" rx="40" ry="48"/><ellipse cx="344" cy="304" rx="40" ry="48"/><ellipse cx="424" cy="248" rx="40" ry="48"/><ellipse cx="264" cy="248" rx="40" ry="48"/><ellipse cx="312" cy="248" rx="40" ry="48"/><ellipse cx="376" cy="248" rx="40" ry="48"/><ellipse cx="232" cy="184" rx="40" ry="48"/><ellipse cx="456" cy="184" rx="40" ry="48"/><ellipse cx="288" cy="184" rx="40" ry="48"/><ellipse cx="400" cy="184" rx="40" ry="48"/><ellipse cx="344" cy="184" rx="40" ry="48"/></g><circle cx="272" cy="360" fill="#e74444" r="80"/><circle cx="288" cy="344" fill="#ce3536" r="16"/><path d="m136 416a127.92 127.92 0 0 0 58.592-14.173 87.957 87.957 0 0 0 150.362 7.336 42.394 42.394 0 0 0 23.046 6.837c26.467 0 48-25.122 48-56a65.929 65.929 0 0 0 -.4-7.2c14.968-9.836 24.4-28.414 24.4-48.8 0-1.059-.035-2.119-.086-3.177 18.667-7.678 32.086-28.451 32.086-52.823a65.621 65.621 0 0 0 -.908-10.852c19.094-7.399 32.908-28.42 32.908-53.148 0-30.878-21.532-56-48-56a42.085 42.085 0 0 0 -16.738 3.468c13.389-25.177 8.859-51.523 8.609-52.9a8 8 0 0 0 -6.879-6.507c-20.15-2.52-39.263 3.776-56.8 18.712-10.837 9.229-20.891 21.6-29.951 36.847.046-46.179-10.379-59.076-12.581-61.278a8 8 0 1 0 -11.312 11.314c.085.086 8.021 11.38 7.888 50.762-1.219.171-2.427.387-3.617.663-9.183-15.747-19.411-28.523-30.466-38.019-17.632-15.145-36.86-21.539-57.141-19a8 8 0 0 0 -6.879 6.507c-.248 1.361-4.781 27.722 8.626 52.916a42.093 42.093 0 0 0 -16.759-3.485c-22.312 0-41.115 17.852-46.47 41.955a128.007 128.007 0 1 0 -49.53 246.045zm136 16a72 72 0 1 1 72-72 72.081 72.081 0 0 1 -72 72zm33.516-214.569a27.419 27.419 0 0 1 -17.516 6.569c-17.645 0-32-17.944-32-40s14.355-40 32-40a27.442 27.442 0 0 1 17.513 6.573 63.483 63.483 0 0 0 0 66.858zm29.071 58.832a31.32 31.32 0 0 1 -14.139 10.313 87.466 87.466 0 0 0 -33.163-13.244 46.121 46.121 0 0 1 -7.285-25.332 49.454 49.454 0 0 1 .758-8.638 41.436 41.436 0 0 0 7.242.638 43.189 43.189 0 0 0 28.046-10.52 45.753 45.753 0 0 0 12.862 7.668 65.621 65.621 0 0 0 -.908 10.852 62.86 62.86 0 0 0 6.587 28.263zm-.462 21.471a48.149 48.149 0 0 0 9.914-8c8.494 8.866 19.695 14.266 31.961 14.266 0 15.667-7.341 29.6-18.266 36.115a87.973 87.973 0 0 0 -23.609-42.381zm48.359-147.165a27.419 27.419 0 0 1 17.516-6.569c17.645 0 32 17.944 32 40s-14.355 40-32 40a27.438 27.438 0 0 1 -17.513-6.573 63.483 63.483 0 0 0 0-66.858zm17.516 89.431a41.428 41.428 0 0 0 7.242-.638 49.349 49.349 0 0 1 .758 8.638c0 22.056-14.355 40-32 40s-32-17.944-32-40a49.545 49.545 0 0 1 .655-8.019 43.373 43.373 0 0 0 27.3-10.5 43.237 43.237 0 0 0 28.045 10.519zm-32 160a26.831 26.831 0 0 1 -15.309-4.906 87.494 87.494 0 0 0 7.309-35.094c0-1.057-.026-2.109-.063-3.157a44.542 44.542 0 0 0 8.029-4.331 42.514 42.514 0 0 0 24.034 7.488 41.821 41.821 0 0 0 7.98-.777c0 .259.02.517.02.777 0 22.056-14.355 40-32 40zm35.948-58.906a26.029 26.029 0 0 1 -24-.051 61.688 61.688 0 0 0 12.052-37.043c0-1.059-.035-2.119-.086-3.177a44.869 44.869 0 0 0 8.035-4.323 42.514 42.514 0 0 0 24.051 7.5c0 16.352-7.871 30.912-20.052 37.094zm52.052-197.094c17.645 0 32 17.944 32 40s-14.355 40-32 40a27.44 27.44 0 0 1 -17.513-6.573 63.483 63.483 0 0 0 0-66.858 27.421 27.421 0 0 1 17.513-6.569zm-.655 95.981a49.545 49.545 0 0 1 .655 8.019c0 22.056-14.355 40-32 40a26.264 26.264 0 0 1 -12.048-2.954 61.34 61.34 0 0 0 12.048-37.046 64.94 64.94 0 0 0 -1.626-14.477 47.576 47.576 0 0 0 5.581-4.043 43.276 43.276 0 0 0 27.39 10.501zm-22.659-152.438h.03c.458 9.681-.553 29.091-13.379 45.219a41.993 41.993 0 0 0 -19.337-4.762 43.189 43.189 0 0 0 -28.046 10.52 47.627 47.627 0 0 0 -3.845-2.912c22.891-38.54 46.681-48.065 64.577-48.065zm-88.686 56.457c17.645 0 32 17.944 32 40s-14.355 40-32 40-32-17.944-32-40 14.355-40 32-40zm-88.688-56.458h.01c17.916 0 41.7 9.539 64.572 48.063a47.945 47.945 0 0 0 -3.848 2.915 43.239 43.239 0 0 0 -28.046-10.52 41.985 41.985 0 0 0 -19.338 4.763c-12.726-16.046-13.774-35.516-13.35-45.221zm4.734 141.939a47.756 47.756 0 0 0 5.58 4.042 64.953 64.953 0 0 0 -1.626 14.477 63.944 63.944 0 0 0 4.648 24.07 87.46 87.46 0 0 0 -26.448 5.13c-6.444-7.534-10.2-18.1-10.2-29.2a49.545 49.545 0 0 1 .655-8.019 43.226 43.226 0 0 0 27.391-10.5zm-28.046-85.481a27.438 27.438 0 0 1 17.513 6.574 63.482 63.482 0 0 0 0 66.857 27.421 27.421 0 0 1 -17.513 6.569c-17.645 0-32-17.944-32-40s14.355-40 32-40zm-96 32a112.31 112.31 0 0 1 48.061 10.822c1 23.5 14.484 43.211 32.847 50.326a65.621 65.621 0 0 0 -.908 10.852 61.394 61.394 0 0 0 11.341 36.2 87.966 87.966 0 0 0 -39.076 102.865 112 112 0 1 1 -52.265-211.065z"/><path d="m62.4 271.839c1.423.3 34.932 7.629 41.752 41.73a8 8 0 0 0 15.69 0c6.812-34.064 40.256-41.419 41.748-41.729a8 8 0 0 0 0-15.679c-1.423-.295-34.932-7.629-41.752-41.73a8 8 0 0 0 -15.69 0c-6.82 34.1-40.329 41.435-41.724 41.724a8 8 0 0 0 -.028 15.684zm49.6-33.239a69.064 69.064 0 0 0 26.372 25.4 69.064 69.064 0 0 0 -26.372 25.4 69.064 69.064 0 0 0 -26.372-25.4 69.064 69.064 0 0 0 26.372-25.4z"/><path d="m288 320a24 24 0 1 0 24 24 24.027 24.027 0 0 0 -24-24zm0 32a8 8 0 1 1 8-8 8.009 8.009 0 0 1 -8 8z"/></svg>