<svg id="Capa_1" enable-background="new 0 0 512 512" height="512" viewBox="0 0 512 512" width="512" xmlns="http://www.w3.org/2000/svg"><g><path d="m470.361 130.34-214.36-59.719-176.64 44.138c-27.244 39.889-43.185 88.173-43.185 140.194 0 120.236 80.215 205.234 119.743 239.82 12.785 11.186 18.879 10.598 18.879 10.598h162.407l46.704-11.018c39.162-34.385 117.139-117.387 119.22-234.607.839-47.151-11.09-91.454-32.768-129.406z" fill="#f7f0d7"/><path d="m460.735 114.847-204.734-44.226-203.989 44.138c-27.243 39.889-43.184 88.172-43.184 140.194 0 120.236 80.215 205.234 119.743 239.82 12.785 11.186 29.241 17.227 46.228 17.227h162.407c16.955 0 33.404-6.015 46.167-17.177.167-.146.363-.33.531-.478h-46.698l-227.08-336.625c4.421-11.363 13.68-20.278 25.112-25.008 1.394-.577 2.748-1.155 4.079-1.726 9.643-4.134 17.261-7.399 34.229-7.399 16.976 0 24.596 3.266 34.245 7.4 11.217 4.807 23.93 10.255 48.154 10.255s36.937-5.448 48.153-10.255c9.648-4.135 17.269-7.4 34.245-7.4 16.967 0 24.584 3.265 34.228 7.399 11.214 4.807 23.924 10.256 48.141 10.256 24.212 0 36.92-5.449 48.131-10.257.515-.221 1.014-.43 1.518-.645-3.022-5.291-6.234-10.459-9.626-15.493z" fill="#f4e7c8"/><path d="m468.447 167.07c-3.19-7.871-11.469-12.571-19.785-10.847-7.727 1.601-16.871 2.674-27.95 2.674-27.845 0-43.595-6.754-55.099-11.685-8.685-3.724-13.927-5.97-27.267-5.97-13.353 0-18.603 2.25-27.293 5.974-11.504 4.931-27.263 11.681-55.108 11.681s-43.603-6.75-55.108-11.681c-8.69-3.724-13.94-5.974-27.293-5.974-13.341 0-18.582 2.246-27.267 5.97-8.592 3.683-19.551 8.382-36.148 10.526l-57.337 97.216c0 114.658 79.523 196.617 113.714 226.533 9.477 8.292 18.883 12.859 56.156 12.859h114.545c12.83 0 25.097-4.55 34.543-12.811 33.53-29.326 111.733-109.673 113.729-222.102.57-32.187-5.309-63.435-17.032-92.363z" fill="#ffcc5c"/><path d="m484.952 92.336-28.922-21.715-325.207-37.691-87.805 65.853 8.518 16.632c9.807 4.184 20.075 8.171 39.64 8.171 41.185 0 41.185-17.655 82.37-17.655 41.199 0 41.199 17.655 82.398 17.655s41.199-17.655 82.398-17.655c41.184 0 41.184 17.655 82.369 17.655 32.421 0 39.313-10.947 60.88-15.601 7.344-1.584 9.368-11.139 3.361-15.649z" fill="#ffdc78"/><path d="m30.506 108.031c8.877 1.941 14.283 4.529 21.03 7.384 7.855-11.371 17.603-21.655 27.188-31.55 8.269-8.537 19.74-13.245 31.625-13.245h345.681l-58.788-44.138h-282.483l-87.805 65.854c-6.088 4.566-3.882 14.069 3.552 15.695z" fill="#ffbe63"/><path d="m423.725 0h-263.206c-14.626 0-26.483 11.857-26.483 26.483s11.857 16.916 26.483 16.916h263.206l24.977-8.091c.975-2.76 1.506-5.73 1.506-8.824 0-14.627-11.857-26.484-26.483-26.484z" fill="#ffeca8"/><path d="m144.566 447.277c-23.365-44.402-47.462-110.12-47.462-192.324 0-32.774 4.123-64.011 11.536-92.629.408-1.575.925-3.102 1.506-4.596-5.635.729-11.906 1.169-18.969 1.169-10.907 0-19.943-1.039-27.598-2.599-8.246-1.68-16.464 2.943-19.675 10.723-11.42 27.671-17.421 57.409-17.421 87.932 0 114.658 79.523 196.617 113.714 226.533 9.477 8.292 21.766 12.859 34.602 12.859h47.863c-32.761 0-62.841-18.076-78.096-47.068z" fill="#ffbe63"/><path d="m185.38 35.31c-14.626 0-26.483-11.857-26.483-26.483 0-3.112.636-6.054 1.622-8.828h-72.242c-14.627.001-26.483 11.858-26.483 26.484s11.856 26.483 26.483 26.483h335.448c11.514 0 21.337-7.393 24.985-17.655h-263.33z" fill="#ffdc78"/><path d="m354.544 330.56-42.655-24.629v-49.243c0-3.155-1.681-6.069-4.414-7.647l-47.06-27.172c-2.724-1.578-6.103-1.578-8.828 0l-47.069 27.172c-2.733 1.578-4.414 4.491-4.414 7.647v49.252l-42.647 24.62c-2.733 1.578-4.414 4.491-4.414 7.647v54.345c0 3.155 1.681 6.069 4.414 7.647l47.069 27.172c1.362.789 2.888 1.181 4.414 1.181s3.052-.392 4.414-1.181l42.647-24.624 42.655 24.624c1.362.789 2.888 1.181 4.414 1.181s3.052-.392 4.414-1.181l47.06-27.172c2.733-1.578 4.414-4.491 4.414-7.647v-54.345c0-3.155-1.681-6.069-4.414-7.647zm-98.543-90.85 38.233 22.073v44.155l-38.233 22.073-38.241-22.08v-44.148zm-47.061 169.82-38.241-22.073v-44.155l38.238-22.071 38.237 22.073v44.153zm132.362-22.073-38.232 22.073-38.241-22.073v-44.152l38.241-22.076 38.233 22.073v44.155z" fill="#ffeca8"/></g></svg>