<svg id="Capa_1" enable-background="new 0 0 497 497" height="512" viewBox="0 0 497 497" width="512" xmlns="http://www.w3.org/2000/svg"><path d="m184.138 89.87c-24.38-25.76-57.92-40.28-90.56-38.76v394.78c32.64 1.52 66.18-13 90.56-38.76 39.23-41.46 54.36-100.88 54.36-158.63s-15.13-117.17-54.36-158.63z" fill="#7a4235"/><path d="m162.368 89.87c-18.68-23.27-43.71-37.37-68.79-38.76-18.59.86-36.89 6.94-53.03 19.1-44.47 33.51-54.42 97.84-19.55 141.23 2.3 2.87 4.29 5.62 6 8.31 2.7-.81 23.54 28.75 23.54 28.75s-20.84 29.56-23.54 28.75c-1.71 2.69-3.7 5.44-6 8.31-34.87 43.39-24.92 107.72 19.55 141.23 16.14 12.16 34.44 18.24 53.03 19.1 25.08-1.39 50.11-15.49 68.79-38.76 33.3-41.46 46.13-100.88 46.13-158.63s-12.83-117.17-46.13-158.63z" fill="#95472c"/><path d="m35.538 218.5c16.57 0 30 13.43 30 30s-13.43 30-30 30c-2.97 0-5.84-.44-8.54-1.25 6.06-9.55 8.54-18.29 8.54-28.75s-2.48-19.2-8.54-28.75c2.7-.81 5.57-1.25 8.54-1.25z" fill="#ffe373"/><path d="m442.64 89.87c-24.38-25.76-57.92-40.28-90.56-38.76v394.78c32.64 1.52 66.18-13 90.56-38.76 39.23-41.46 54.36-100.88 54.36-158.63s-15.13-117.17-54.36-158.63z" fill="#7a4235"/><path d="m420.87 89.87c-18.68-23.27-43.71-37.37-68.79-38.76-18.59.86-36.89 6.94-53.03 19.1-44.47 33.51-54.42 97.84-19.55 141.23 2.3 2.87 4.29 5.62 6 8.31 2.7-.81 23.54 28.75 23.54 28.75s-20.84 29.56-23.54 28.75c-1.71 2.69-3.7 5.44-6 8.31-34.87 43.39-24.92 107.72 19.55 141.23 16.14 12.16 34.44 18.24 53.03 19.1 25.08-1.39 50.11-15.49 68.79-38.76 33.3-41.46 46.13-100.88 46.13-158.63s-12.83-117.17-46.13-158.63z" fill="#95472c"/><path d="m294.04 218.5c16.57 0 30 13.43 30 30s-13.43 30-30 30c-2.97 0-5.84-.44-8.54-1.25 6.06-9.55 8.54-18.29 8.54-28.75s-2.48-19.2-8.54-28.75c2.7-.81 5.57-1.25 8.54-1.25z" fill="#ffe373"/></svg>