<svg id="Capa_1" enable-background="new 0 0 512 512" height="512" viewBox="0 0 512 512" width="512" xmlns="http://www.w3.org/2000/svg"><g><path d="m313.614 49.951h-115.228c-5.538 0-10.028-4.49-10.028-10.028v-29.895c0-5.538 4.489-10.028 10.028-10.028h115.229c5.538 0 10.028 4.49 10.028 10.028v29.895c-.001 5.539-4.49 10.028-10.029 10.028z" fill="#e7a561"/><path d="m313.614 0h-28.544c5.538 0 10.028 4.49 10.028 10.028v29.895c0 5.538-4.49 10.028-10.028 10.028h28.544c5.538 0 10.028-4.49 10.028-10.028v-29.895c0-5.538-4.489-10.028-10.028-10.028z" fill="#e49542"/><path d="m360.069 308.034-13.3 69.723 13.3 69.723v22.891c0 22.994-18.636 41.63-41.63 41.63h-124.878c-22.994 0-41.63-18.636-41.63-41.63v-22.891l13.3-69.723-13.3-69.723v-1.762c0-5.748.598-11.487 1.782-17.111l50.252-239.208h104.069l50.252 239.208c1.185 5.625 1.782 11.363 1.782 17.111v1.762z" fill="#ffe07d"/><path d="m360.069 308.034-13.3 69.723 13.3 69.723v22.891c0 22.994-18.636 41.63-41.63 41.63h-22.891c22.983 0 41.619-18.636 41.619-41.63v-164.098c0-5.748-.598-11.487-1.772-17.111l-50.261-239.209h22.901l50.252 239.208c1.185 5.625 1.782 11.363 1.782 17.111z" fill="#ffd064"/><path d="m151.935 308.033h208.13v139.447h-208.13z" fill="#ecf4ff"/><path d="m337.171 308.033h22.894v139.447h-22.894z" fill="#cbe2ff"/><circle cx="256" cy="377.756" fill="#ffe07d" r="35.382"/></g></svg>