<svg height="512" viewBox="0 0 46 58" width="512" xmlns="http://www.w3.org/2000/svg"><g id="Page-1" fill="none" fill-rule="evenodd"><g id="001---Whey-Protein" fill-rule="nonzero"><path id="Rectangle-path" d="m6 5h34v10h-34z" fill="#285680"/><rect id="Rectangle-path" fill="#d1d4d1" height="8" rx="2" width="40" x="3"/><rect id="Rectangle-path" fill="#4482c3" height="46" rx="6" width="46" y="12"/><path id="Shape" d="m7 55h-1c-1.65685425 0-3-1.3431458-3-3v-1c0-.5522847.44771525-1 1-1s1 .4477153 1 1v1c0 .5522847.44771525 1 1 1h1c.55228475 0 1 .4477153 1 1s-.44771525 1-1 1z" fill="#fff"/><g fill="#a5a5a4"><path id="Shape" d="m7 6c-.55228475 0-1-.44771525-1-1v-2c0-.55228475.44771525-1 1-1s1 .44771525 1 1v2c0 .55228475-.44771525 1-1 1z"/><path id="Shape" d="m11 6c-.5522847 0-1-.44771525-1-1v-2c0-.55228475.4477153-1 1-1s1 .44771525 1 1v2c0 .55228475-.4477153 1-1 1z"/><path id="Shape" d="m15 6c-.5522847 0-1-.44771525-1-1v-2c0-.55228475.4477153-1 1-1s1 .44771525 1 1v2c0 .55228475-.4477153 1-1 1z"/><path id="Shape" d="m19 6c-.5522847 0-1-.44771525-1-1v-2c0-.55228475.4477153-1 1-1s1 .44771525 1 1v2c0 .55228475-.4477153 1-1 1z"/><path id="Shape" d="m23 6c-.5522847 0-1-.44771525-1-1v-2c0-.55228475.4477153-1 1-1s1 .44771525 1 1v2c0 .55228475-.4477153 1-1 1z"/><path id="Shape" d="m27 6c-.5522847 0-1-.44771525-1-1v-2c0-.55228475.4477153-1 1-1s1 .44771525 1 1v2c0 .55228475-.4477153 1-1 1z"/><path id="Shape" d="m31 6c-.5522847 0-1-.44771525-1-1v-2c0-.55228475.4477153-1 1-1s1 .44771525 1 1v2c0 .55228475-.4477153 1-1 1z"/><path id="Shape" d="m35 6c-.5522847 0-1-.44771525-1-1v-2c0-.55228475.4477153-1 1-1s1 .44771525 1 1v2c0 .55228475-.4477153 1-1 1z"/><path id="Shape" d="m39 6c-.5522847 0-1-.44771525-1-1v-2c0-.55228475.4477153-1 1-1s1 .44771525 1 1v2c0 .55228475-.4477153 1-1 1z"/></g><path id="Rectangle-path" d="m0 23h46v24h-46z" fill="#65ddb9"/><path id="Shape" d="m14.2 29.02c-.5411704-.1079009-1.0674584.2429578-1.176.784l-1.262 6.307-.809-2.427c-.1348836-.4103745-.5180268-.6877501-.95-.6877501s-.81511641.2773756-.95.6877501l-.809 2.427-1.264-6.311c-.1238056-.5244774-.640941-.856525-1.16936792-.7508396-.52842691.1056854-.87807208.611089-.79063208 1.1428396l2 10c.08914295.444385.46601597.7732495.91837929.8013903s.86708923-.2514796 1.01062071-.6813903l1.051-3.15 1.051 3.154c.1360719.4085428.5183926.6841037.949.684h.062c.4517992-.0281514.8283411-.3562926.918-.8l2-10c.0530985-.2599175.0007425-.5302825-.1455449-.751589-.1462873-.2213065-.3745164-.3754164-.6344551-.428411z" fill="#fff"/><path id="Shape" d="m32 31c.5522847 0 1-.4477153 1-1s-.4477153-1-1-1h-5c-.5522847 0-1 .4477153-1 1v10c0 .5522847.4477153 1 1 1h5c.5522847 0 1-.4477153 1-1s-.4477153-1-1-1h-4v-3h3c.5522847 0 1-.4477153 1-1s-.4477153-1-1-1h-3v-3z" fill="#fff"/><path id="Shape" d="m41.515 29.143c-.4733224-.2843303-1.0875154-.1312297-1.372.342l-2.143 3.571-2.143-3.571c-.1806127-.3132279-.516242-.5045637-.8777878-.5004101-.3615459.0041537-.6926908.2031497-.8660598.5204443-.1733689.3172946-.1619565.7034632.0298476 1.0099658l2.857 4.762v4.723c0 .5522847.4477153 1 1 1s1-.4477153 1-1v-4.723l2.857-4.762c.2843303-.4733224.1312297-1.0875154-.342-1.372z" fill="#fff"/><path id="Shape" d="m23 29c-.5522847 0-1 .4477153-1 1v4h-3v-4c0-.5522847-.4477153-1-1-1s-1 .4477153-1 1v10c0 .5522847.4477153 1 1 1s1-.4477153 1-1v-4h3v4c0 .5522847.4477153 1 1 1s1-.4477153 1-1v-10c0-.5522847-.4477153-1-1-1z" fill="#fff"/></g></g></svg>