<svg id="Layer_1" enable-background="new 0 0 512 512" height="512" viewBox="0 0 512 512" width="512" xmlns="http://www.w3.org/2000/svg"><g><path d="m300.677 131.862-30.125-120.5c-1.669-6.677-7.669-11.362-14.552-11.362s-12.883 4.685-14.552 11.362l-30.125 120.5c-1.12 4.48-.113 9.229 2.729 12.869 2.843 3.641 7.204 5.769 11.823 5.769h60.25c4.619 0 8.98-2.128 11.823-5.769 2.843-3.64 3.849-8.388 2.729-12.869z" fill="#f5dc55"/><path d="m286.125 150.5c4.619 0 8.98-2.128 11.823-5.769 2.842-3.641 3.849-8.389 2.729-12.869l-30.125-120.5c-1.669-6.677-7.669-11.362-14.552-11.362v150.5z" fill="#f1cb30"/><path d="m316.25 120.5h-120.5c-8.284 0-15 6.716-15 15v60.25c0 8.284 6.716 15 15 15h120.5c8.284 0 15-6.716 15-15v-60.25c0-8.284-6.716-15-15-15z" fill="#f1cb30"/><path d="m316.25 120.5h-60.25v90.25h60.25c8.284 0 15-6.716 15-15v-60.25c0-8.284-6.716-15-15-15z" fill="#e8aa28"/><path d="m346.375 180.75h-180.75c-8.284 0-15 6.716-15 15v75.375l69.375 75.25-69.375 75.25v75.375c0 8.284 6.716 15 15 15h180.75c8.284 0 15-6.716 15-15v-75.375l-54.375-75.25 54.375-75.25v-75.375c0-8.284-6.716-15-15-15z" fill="#e8aa28"/><path d="m346.375 180.75h-90.375v331.25h90.375c8.284 0 15-6.716 15-15v-75.375l-54.375-75.25 54.375-75.25v-75.375c0-8.284-6.716-15-15-15z" fill="#e38659"/><path d="m150.625 271.125h210.75v150.5h-210.75z" fill="#f5dc55"/><path d="m256 271.125h105.375v150.5h-105.375z" fill="#f1cb30"/></g></svg>