<?xml version="1.0" encoding="iso-8859-1"?>
<!-- Generator: Adobe Illustrator 19.0.0, SVG Export Plug-In . SVG Version: 6.00 Build 0)  -->
<svg xmlns="http://www.w3.org/2000/svg" xmlns:xlink="http://www.w3.org/1999/xlink" version="1.1" id="Capa_1" x="0px" y="0px" viewBox="0 0 512 512" style="enable-background:new 0 0 512 512;" xml:space="preserve" width="512" height="512">
<g>
	<path style="fill:#0198E2;" d="M253.333,220.657L242.667,320l10.667,128c15.376-13.014,146.399-85.333,146.399-85.333   l16.646-142.01H253.333z"/>
	<path style="fill:#93D6F4;" d="M253.333,382.917l-10.667,75.75L253.333,512h128.895l17.504-149.333h-90.916   C288.212,362.667,268.71,369.903,253.333,382.917z"/>
	<path style="fill:#4BB7EA;" d="M113.186,416c0,0,135.909,35.587,140.148,32V220.657H90.289L113.186,416z"/>
	<path style="fill:#B7E4F8;" d="M241.621,394.963C230.925,408.332,214.971,416,197.85,416h-84.665l11.253,96h128.895V382.917   C249.095,386.504,245.169,390.527,241.621,394.963z"/>
	<path style="fill:#4BB7EA;" d="M164.385,229.057v-30c14.37,0,26.84-9.737,30.325-23.678c2.351-9.403,0.278-19.178-5.687-26.818   c-5.965-7.64-14.945-12.021-24.638-12.021h-44.835v-30h44.835c18.996,0,36.594,8.587,48.284,23.559   c11.69,14.972,15.753,34.128,11.146,52.557C216.984,209.976,192.546,229.057,164.385,229.057z"/>
	<path style="fill:#C5D3DD;" d="M280.381,285.66l-57.254-42.172L391.816,14.471c11.646-15.81,33.903-19.187,49.713-7.541l0,0   c15.81,11.646,19.186,33.903,7.541,49.713L280.381,285.66z"/>
	<g>
		<polygon style="fill:#93D6F4;" points="433.511,208.825 253.333,208.825 242.667,256 253.333,303 422.472,303   "/>
		<polygon style="fill:#B7E4F8;" points="73.156,208.825 84.195,303 253.333,303 253.333,208.825   "/>
	</g>
	<g>
		<polygon style="fill:#D3E1E6;" points="450.667,199.057 253.333,199.057 242.667,213.334 253.333,229.057 450.667,229.057   "/>
		<rect x="56" y="199.057" style="fill:#E8F0F3;" width="197.333" height="30"/>
	</g>
</g>















</svg>
