<svg height="448pt" viewBox="0 0 448 448.03874" width="448pt" xmlns="http://www.w3.org/2000/svg"><path d="m262.292969 72.03125c-2.582031-.011719-5.058594 1.011719-6.875 2.847656l-12.542969 12.535156c-3.796875 3.800782-3.796875 9.960938 0 13.761719 3.847656 3.679688 9.914062 3.679688 13.761719 0l12.542969-12.539062c2.777343-2.785157 3.601562-6.96875 2.097656-10.601563-1.507813-3.632812-5.050782-6-8.984375-6.003906zm0 0"/><path d="m320.027344 56.03125h16c4.417968 0 8-3.582031 8-8s-3.582032-8-8-8h-16c-4.417969 0-8 3.582031-8 8s3.582031 8 8 8zm0 0"/><path d="m256.027344 152.03125c-4.417969 0-8 3.582031-8 8v16c0 4.417969 3.582031 8 8 8 4.417968 0 8-3.582031 8-8v-16c0-4.417969-3.582032-8-8-8zm0 0"/><path d="m384.027344 160.03125h16c4.417968 0 8-3.582031 8-8s-3.582032-8-8-8h-16c-4.417969 0-8 3.582031-8 8s3.582031 8 8 8zm0 0"/><path d="m392.027344 96.03125c4.417968 0 8-3.582031 8-8v-16c0-4.417969-3.582032-8-8-8-4.417969 0-8 3.582031-8 8v16c0 4.417969 3.582031 8 8 8zm0 0"/><path d="m336.027344 216.03125c4.417968 0 8-3.582031 8-8s-3.582032-8-8-8h-16c-4.417969 0-8 3.582031-8 8s3.582031 8 8 8zm0 0"/><path d="m398.652344 214.65625c56.800781-56.800781 65.925781-140.066406 20.375-185.601562-19.855469-19.238282-46.609375-29.695313-74.246094-29.023438-42.160156 1.222656-82.152344 18.949219-111.378906 49.359375-24.816406 24.28125-41.429688 55.707031-47.527344 89.886719-9.824219 56.691406-37.355469 108.808594-78.648438 148.875-14.730468 14.726562-31.027343 27.796875-48.597656 38.980468l-33.601562 21.386719c-18.671875 11.875-28.203125 33.941407-24.046875 55.675781 4.152343 21.734376 21.148437 38.730469 42.882812 42.882813 21.734375 4.15625 43.800781-5.378906 55.675781-24.046875l21.382813-33.601562c11.1875-17.570313 24.257813-33.867188 38.984375-48.597657 40.066406-41.289062 92.179688-68.824219 148.867188-78.65625 34.175781-6.09375 65.597656-22.707031 89.878906-47.519531zm-30.625-142.625c0-13.253906 10.746094-24 24-24s24 10.746094 24 24v16c0 13.253906-10.746094 24-24 24s-24-10.746094-24-24zm16 56h16c13.253906 0 24 10.746094 24 24s-10.746094 24-24 24h-16c-13.253906 0-24-10.746094-24-24s10.746094-24 24-24zm-64-104h16c13.253906 0 24 10.746094 24 24s-10.746094 24-24 24h-16c-13.253906 0-24-10.746094-24-24s10.746094-24 24-24zm-40 152c0 13.253906-10.746094 24-24 24s-24-10.746094-24-24v-16c0-13.253906 10.746094-24 24-24s24 10.746094 24 24zm.464844-76.074219-12.542969 12.539063c-10.050781 10.046875-26.34375 10.042968-36.390625-.003906-10.046875-10.050782-10.042969-26.34375.003906-36.390626l12.546875-12.535156c10.191406-9.691406 26.191406-9.691406 36.382813 0 10.046874 10.050782 10.046874 26.34375 0 36.390625zm19.253906-.214843c9.5-9.054688 24.4375-9.054688 33.9375 0l11.3125 11.320312c9.09375 9.417969 8.964844 24.386719-.292969 33.644531-9.257813 9.257813-24.226563 9.386719-33.644531.292969l-11.3125-11.3125c-9.371094-9.375-9.371094-24.570312 0-33.945312zm-3.71875 108.289062c0-13.253906 10.746094-24 24-24h16c13.253906 0 24 10.746094 24 24s-10.746094 24-24 24h-16c-13.253906 0-24-10.746094-24-24zm0 0"/><path d="m322.371094 133.6875c2.007812 2.078125 4.984375 2.914062 7.78125 2.179688 2.796875-.730469 4.980468-2.914063 5.710937-5.710938.734375-2.796875-.101562-5.773438-2.179687-7.78125l-11.3125-11.320312c-3.125-3.125-8.191406-3.121094-11.316406.003906-3.121094 3.125-3.121094 8.191406.003906 11.316406zm0 0"/><path d="m144.027344 24.03125h16c8.835937 0 16 7.164062 16 16s-7.164063 16-16 16h-16c-8.835938 0-16-7.164062-16-16s7.164062-16 16-16zm0 0"/><path d="m432.027344 280.03125v16c0 8.835938-7.164063 16-16 16-8.835938 0-16-7.164062-16-16v-16c0-8.835938 7.164062-16 16-16 8.835937 0 16 7.164062 16 16zm0 0"/><path d="m296.027344 308.714844 11.3125 11.316406c6.25 6.246094 6.25 16.378906 0 22.625-6.246094 6.25-16.378906 6.25-22.625 0l-11.316406-11.3125c-6.246094-6.25-6.246094-16.378906 0-22.628906 6.25-6.246094 16.378906-6.246094 22.628906 0zm0 0"/><path d="m94.300781 194.839844 12.535157-12.539063c4.585937-4.457031 6.414062-11.039062 4.789062-17.226562-1.625-6.183594-6.457031-11.015625-12.644531-12.640625-6.183594-1.628906-12.765625.203125-17.226563 4.789062l-12.535156 12.535156c-6.757812 6.953126-6.679688 18.046876.175781 24.90625 6.859375 6.855469 17.953125 6.933594 24.90625.175782zm0 0"/><path d="m368.027344 368.03125h16c8.835937 0 16 7.164062 16 16s-7.164063 16-16 16h-16c-8.835938 0-16-7.164062-16-16s7.164062-16 16-16zm0 0"/><path d="m304.027344 408.03125v16c0 8.835938-7.164063 16-16 16-8.835938 0-16-7.164062-16-16v-16c0-8.835938 7.164062-16 16-16 8.835937 0 16 7.164062 16 16zm0 0"/><path d="m48.027344 72.03125h16c8.835937 0 16 7.164062 16 16s-7.164063 16-16 16h-16c-8.835938 0-16-7.164062-16-16s7.164062-16 16-16zm0 0"/></svg>