<svg id="Capa_1" enable-background="new 0 0 512 512" height="512" viewBox="0 0 512 512" width="512" xmlns="http://www.w3.org/2000/svg"><g><path d="m396.388 371.746c-2.113 0-4.226-.806-5.839-2.419-3.226-3.226-3.226-8.452 0-11.677l8.258-8.258c3.226-3.226 8.452-3.226 11.677 0 3.226 3.226 3.226 8.452 0 11.677l-8.258 8.258c-1.612 1.612-3.725 2.419-5.838 2.419z" fill="#f4e7c8"/><g fill="#f7f0d7"><path d="m454.194 396.52c-2.113 0-4.226-.806-5.839-2.419l-8.258-8.258c-3.226-3.226-3.226-8.452 0-11.677 3.226-3.226 8.452-3.226 11.677 0l8.258 8.258c3.226 3.226 3.226 8.452 0 11.677-1.612 1.613-3.725 2.419-5.838 2.419z"/><path d="m421.243 429.552h-.081c-4.564 0-8.258-3.698-8.258-8.258s3.694-8.258 8.258-8.258 8.298 3.698 8.298 8.258-3.652 8.258-8.217 8.258z"/><path d="m363.356 247.876 46.719-58.666c9.918-12.397 28.773-12.397 38.691 0l46.719 58.399-66.065 25.041z"/></g><path d="m495.484 247.611h-115.404c-6.21 0-12.138-2.298-16.713-6.495-3.798-3.484-8.484-7.63-14.06-12.299-62.169-52.778-183.899-120.034-329.884-146.101-8.837-1.604-17.253 4.164-19.069 12.88l14.265 11.523c145.261 26.131 244.154 86.126 295.426 124.758 17.99 13.555 32.353 30.889 45.257 49.351 13.413 19.19 41.536 35.185 74.119 35.185 36.148 0 67.792-19.271 67.792-19.271 9.314-9.353 14.779-20.724 14.788-32.988.006-9.116-7.399-16.543-16.517-16.543z" fill="#d7d4d7"/><path d="m446.541 227.436c-2.137 0-4.274-.823-5.887-2.468l-6.266-6.371c-3.202-3.25-3.153-8.48.097-11.677 3.242-3.202 8.484-3.161 11.677.097l6.266 6.371c3.202 3.25 3.153 8.48-.097 11.677-1.604 1.581-3.701 2.371-5.79 2.371z" fill="#fff"/><path d="m407.985 234.517h-.113c-4.564 0-8.258-3.698-8.258-8.258s3.694-8.258 8.258-8.258 8.314 3.698 8.314 8.258c.001 4.56-3.636 8.258-8.201 8.258z" fill="#f4e7c8"/><path d="m497.212 297.143c-13.743 3.845-36.413 8.273-67.792 8.273-26.04 0-49.814-9.952-60.58-25.355-16.387-23.451-31.911-40.318-48.863-53.084-41.505-31.278-154.415-105.174-319.623-131.381-.154.731-.254 1.444-.311 2.215-.644 8.616 6.072 16.069 14.576 17.599 145.261 26.131 244.154 86.126 295.426 124.758 17.99 13.555 32.353 30.889 45.257 49.351 13.413 19.19 41.537 32.411 74.119 32.411 28.052 0 52.867-9.821 67.791-24.787z" fill="#c6c1c6"/></g></svg>