<?xml version="1.0" encoding="iso-8859-1"?>
<!-- Generator: Adobe Illustrator 19.0.0, SVG Export Plug-In . SVG Version: 6.00 Build 0)  -->
<svg version="1.1" id="Capa_1" xmlns="http://www.w3.org/2000/svg" xmlns:xlink="http://www.w3.org/1999/xlink" x="0px" y="0px"
	 viewBox="0 0 512 512" style="enable-background:new 0 0 512 512;" xml:space="preserve">
<path id="SVGCleanerId_0" style="fill:#D3562A;" d="M335.934,207.237c-13.835-46.851-23.349-94.87-28.497-143.45l-4.74-44.729
	h-93.393l-4.559,43.016c-5.077,47.91-14.138,95.348-27.813,141.545c-9.729,32.867-16.486,72.406-16.486,111.664v162.991
	c0,18.626,15.099,33.725,33.725,33.725h123.657c18.626,0,33.725-15.099,33.725-33.725V315.286
	C351.554,278.615,346.268,242.231,335.934,207.237z"/>
<g>
	<path id="SVGCleanerId_0_1_" style="fill:#D3562A;" d="M335.934,207.237c-13.835-46.851-23.349-94.87-28.497-143.45l-4.74-44.729
		h-93.393l-4.559,43.016c-5.077,47.91-14.138,95.348-27.813,141.545c-9.729,32.867-16.486,72.406-16.486,111.664v162.991
		c0,18.626,15.099,33.725,33.725,33.725h123.657c18.626,0,33.725-15.099,33.725-33.725V315.286
		C351.554,278.615,346.268,242.231,335.934,207.237z"/>
</g>
<path style="fill:#C95A3A;" d="M300.904,455.607V346.944c0-36.67-5.287-104.714-15.621-139.708
	c-11.156-37.778-20.187-67.721-25.149-99.891c0,0-4.134-35.233-4.134-48.568c0-8.287,0-25.917,0-39.72h-46.696l-4.559,43.016
	c-5.077,47.91-14.138,95.348-27.813,141.545c-9.729,32.867-16.486,72.406-16.486,111.664v162.991c0,3.874,0.661,7.591,1.864,11.056
	h104.867C285.805,489.332,300.904,474.233,300.904,455.607z"/>
<path style="fill:#DE6A39;" d="M300.904,455.607V346.944c0-36.67-5.287-104.714-15.621-139.708
	c-11.156-37.778-20.187-67.721-25.149-99.891c0,0-4.134-35.233-4.134-48.568c0-8.287,0-25.917,0-39.72h-46.696l-4.559,43.016
	c-5.077,47.91-14.138,95.348-27.813,141.545c-9.729,32.867-16.486,72.406-16.486,111.664v162.991c0,3.874,0.661,7.591,1.864,11.056
	h104.867C285.805,489.332,300.904,474.233,300.904,455.607z"/>
<path style="fill:#A9A499;" d="M307.452,0h-51.509v39.662h51.509c3.983,0,7.211-3.229,7.211-7.211V7.211
	C314.664,3.229,311.435,0,307.452,0z"/>
<path style="fill:#E2DDD0;" d="M291.485,29.36V10.302c0-5.69-4.612-10.302-10.302-10.302h-76.233c-3.983,0-7.211,3.229-7.211,7.211
	v25.239c0,3.983,3.229,7.211,7.211,7.211h76.233C286.871,39.662,291.485,35.05,291.485,29.36z"/>
<path style="fill:#A6B730;" d="M295.05,259.423c-33.04-12.332-72.708-8.272-101.359,12.218
	c-7.876,5.633-11.953,15.189-10.532,24.768l18.262,123.051c1.874,12.626,12.711,21.974,25.475,21.974h58.09
	c5.972,0,11.508-2.066,15.916-5.537v-88.952C300.904,324.571,298.932,290.522,295.05,259.423z"/>
<path style="fill:#869325;" d="M318.193,271.641c-6.589-4.712-13.764-8.549-21.304-11.526c-0.609-0.24-1.225-0.463-1.839-0.692
	l5.853,176.472c5.013-3.948,8.563-9.719,9.559-16.437l18.262-123.051C330.147,286.83,326.07,277.273,318.193,271.641z"/>
<path style="fill:#F9E6BB;" d="M226.898,418.254c-1.266,0-2.362-0.945-2.548-2.197l-18.262-123.051
	c-0.143-0.966,0.273-1.929,1.088-2.512c13.4-9.583,30.719-14.86,48.767-14.86s35.367,5.278,48.767,14.861
	c0.814,0.582,1.23,1.544,1.087,2.511l-18.262,123.051c-0.185,1.253-1.282,2.197-2.548,2.197H226.898z"/>
<path style="fill:#D3562A;" d="M261.719,346.141l9.99-9.99c3.017-3.017,3.017-7.91,0-10.926c-3.017-3.017-7.91-3.017-10.926,0
	l-7.414,7.414v-12.253c0-4.267-3.459-7.726-7.726-7.726c-4.267,0-7.726,3.459-7.726,7.726v20.602c0,0.001,0,0.003,0,0.005v20.601
	c0,4.267,3.459,7.726,7.726,7.726c4.267,0,7.726-3.459,7.726-7.726v-1.951l7.414,7.414c1.508,1.508,3.486,2.263,5.463,2.263
	s3.955-0.754,5.463-2.263c3.017-3.017,3.017-7.91,0-10.926L261.719,346.141z"/>
<g>
</g>
<g>
</g>
<g>
</g>
<g>
</g>
<g>
</g>
<g>
</g>
<g>
</g>
<g>
</g>
<g>
</g>
<g>
</g>
<g>
</g>
<g>
</g>
<g>
</g>
<g>
</g>
<g>
</g>
</svg>
