<svg id="Capa_1" enable-background="new 0 0 510 510" height="512" viewBox="0 0 510 510" width="512" xmlns="http://www.w3.org/2000/svg" xmlns:xlink="http://www.w3.org/1999/xlink"><linearGradient id="lg1"><stop offset="0" stop-color="#f8f6f7"/><stop offset=".1788" stop-color="#f8f6f7"/><stop offset="1" stop-color="#e7e6f5"/></linearGradient><linearGradient id="SVGID_1_" gradientTransform="matrix(.886 .464 -.464 .886 160.227 -140.953)" gradientUnits="userSpaceOnUse" x1="176.798" x2="523.41" xlink:href="#lg1" y1="274.058" y2="274.058"/><linearGradient id="lg2"><stop offset="0" stop-color="#f8f6f7"/><stop offset="1" stop-color="#d1ceeb"/></linearGradient><linearGradient id="SVGID_2_" gradientUnits="userSpaceOnUse" x1="131.864" x2="371.622" xlink:href="#lg2" y1="296.488" y2="296.488"/><linearGradient id="SVGID_3_" gradientTransform="matrix(.886 .464 -.464 .886 160.227 -140.953)" gradientUnits="userSpaceOnUse" x1="158.204" x2="485.218" xlink:href="#lg2" y1="274.058" y2="274.058"/><linearGradient id="lg3"><stop offset="0" stop-color="#537983"/><stop offset=".593" stop-color="#554e56"/><stop offset="1" stop-color="#433f43"/></linearGradient><linearGradient id="SVGID_4_" gradientTransform="matrix(.886 .464 -.464 .886 160.227 -140.953)" gradientUnits="userSpaceOnUse" x1="209.201" x2="630.25" xlink:href="#lg3" y1="274.058" y2="274.058"/><linearGradient id="SVGID_7_" gradientTransform="matrix(.886 .464 -.464 .886 160.227 -140.953)" gradientUnits="userSpaceOnUse" x1="78.708" x2="481.496" xlink:href="#lg3" y1="274.058" y2="274.058"/><linearGradient id="SVGID_8_" gradientTransform="matrix(.886 .464 -.464 .886 160.227 -140.953)" gradientUnits="userSpaceOnUse" x1="174.703" x2="407.312" xlink:href="#lg3" y1="31.667" y2="31.667"/><linearGradient id="SVGID_9_" gradientTransform="matrix(.886 .464 -.464 .886 160.227 -140.953)" gradientUnits="userSpaceOnUse" x1="174.703" x2="407.312" xlink:href="#lg3" y1="524.743" y2="524.743"/><linearGradient id="SVGID_10_" gradientUnits="userSpaceOnUse" x1="108" x2="548.264" xlink:href="#lg3" y1="339.192" y2="339.192"/><linearGradient id="SVGID_11_" gradientUnits="userSpaceOnUse" x1="108" x2="548.264" xlink:href="#lg3" y1="495.865" y2="495.865"/><linearGradient id="SVGID_12_" gradientUnits="userSpaceOnUse" x1="108" x2="548.264" xlink:href="#lg3" y1="290.45" y2="290.45"/><linearGradient id="SVGID_13_" gradientUnits="userSpaceOnUse" x1="0" x2="344.612" xlink:href="#lg1" y1="255" y2="255"/><linearGradient id="SVGID_14_" gradientUnits="userSpaceOnUse" x1="-16.816" x2="306.816" xlink:href="#lg2" y1="255" y2="255"/><linearGradient id="SVGID_15_" gradientUnits="userSpaceOnUse" x1="32.403" x2="453.452" xlink:href="#lg3" y1="255" y2="255"/><linearGradient id="SVGID_18_" gradientUnits="userSpaceOnUse" x1="-98.09" x2="304.698" xlink:href="#lg3" y1="255" y2="255"/><linearGradient id="SVGID_19_" gradientUnits="userSpaceOnUse" x1="-2.095" x2="230.514" xlink:href="#lg3" y1="12.609" y2="12.609"/><linearGradient id="SVGID_20_" gradientUnits="userSpaceOnUse" x1="-2.095" x2="230.514" xlink:href="#lg3" y1="505.685" y2="505.685"/><g><g><path d="m458.71 417.101c-44.427 84.779-149.169 117.491-233.947 73.064s-117.491-149.169-73.064-233.947 225.007-262.213 309.786-217.786 41.652 293.89-2.775 378.669z" fill="url(#SVGID_1_)"/><path d="m151.699 256.217c-44.427 84.779-11.715 189.521 73.064 233.947 8.84 4.632 17.898 8.414 27.081 11.397 69.515-22.554 119.778-87.836 119.778-164.868 0-57.317-27.826-166.722-70.704-245.281-64.899 50.087-125.867 120.244-149.219 164.805z" fill="url(#SVGID_2_)"/><path d="m461.485 38.432c-5.995-3.141-12.469-5.172-19.339-6.206 62.564 66.513 22.402 287.515-18.884 366.299-41.285 78.783-134.653 112.59-215.687 81.327 5.466 3.717 11.191 7.171 17.187 10.312 84.779 44.427 189.521 11.715 233.947-73.064s87.555-334.241 2.776-378.668z" fill="url(#SVGID_3_)"/><g fill="url(#SVGID_4_)"><path d="m345.194 357.615c44.427-84.779 138.377-307.609 116.291-319.183-22.085-11.574-151.843 192.493-196.269 277.271s-62.538 162.888-40.453 174.461 76.004-47.771 120.431-132.549z"/><path d="m461.485 38.432c49.826 26.11-21.636 260.725-66.063 345.504s-120.834 132.339-170.66 106.229c84.779 44.427 189.521 11.715 233.947-73.064s87.555-334.242 2.776-378.669z"/><path d="m214.987 289.382c44.427-84.779 196.672-277.061 246.498-250.95-84.779-44.427-265.359 133.006-309.786 217.785s-11.715 189.521 73.064 233.947c-49.826-26.11-54.203-116.003-9.776-200.782z"/></g><path d="m461.485 38.432c18.724 9.812 20.319 49.069 12.659 98.752 4.075 91.333-23.149 208.421-50.881 261.341s-78.965 85.55-134.174 91.797c-23.124 9.061-45.602 9.654-64.326-.158 84.779 44.427 189.521 11.715 233.947-73.064s87.554-334.241 2.775-378.668z" fill="url(#SVGID_7_)"/><g><path d="m462.268 67.313c3.413-16.069 3.579-26.595-.782-28.881-2.502-1.311-6.391.154-11.377 3.892 4.831 7.249 8.86 15.65 12.159 24.989z" fill="url(#SVGID_8_)"/><path d="m218.789 483.746c1.491 2.933 3.472 5.107 5.974 6.418 4.361 2.285 9.968 1.795 16.493-1.1-7.534-1.257-15.039-3.023-22.467-5.318z" fill="url(#SVGID_9_)"/></g></g><g><path d="m341.58 186.78c-30.69 47.96-59.6 96.93-76.36 128.92-44.43 84.78-62.54 162.89-40.46 174.46 22.09 11.58 76.01-47.77 120.43-132.55 7.14-13.62 15.56-30.81 24.57-50.12-3.89-34.17-13.75-77.47-28.18-120.71z" fill="url(#SVGID_10_)"/><path d="m265.17 496.63c-14.49 1.89-28.24-.09-40.41-6.47 8.84 4.64 17.9 8.43 27.09 11.41 4.52-1.46 8.97-3.11 13.32-4.94z" fill="url(#SVGID_11_)"/><path d="m214.99 289.38c20.23-38.63 62.85-99.57 107.98-152-6.78-16.02-14.16-31.52-22.06-45.97-64.89 50.09-125.86 120.25-149.21 164.81-44.21 84.36-12.04 188.49 71.81 233.27-48.64-26.95-52.58-116.04-8.52-200.11z" fill="url(#SVGID_12_)"/></g><g><path d="m344.611 336.694c0 95.714-75.591 173.306-171.305 173.306s-173.306-77.592-173.306-173.306 77.592-336.694 173.306-336.694 171.305 240.98 171.305 336.694z" fill="url(#SVGID_13_)"/><path d="m173.306 0c-6.768 0-13.445 1.207-20.01 3.48 86.289 29.874 153.296 244.268 153.296 333.215 0 88.945-67.009 162.227-153.296 172.149 6.567.755 13.241 1.157 20.01 1.157 95.714 0 171.306-77.592 171.306-173.306s-75.592-336.695-171.306-336.695z" fill="url(#SVGID_14_)"/><g fill="url(#SVGID_15_)"><path d="m218.453 336.694c0-95.714-20.213-336.694-45.147-336.694s-45.147 240.98-45.147 336.694 20.213 173.306 45.147 173.306 45.147-77.592 45.147-173.306z"/><path d="m173.306 0c56.253 0 101.854 240.98 101.854 336.694s-45.601 173.306-101.854 173.306c95.714 0 173.306-77.592 173.306-173.306s-77.592-336.694-173.306-336.694z"/><path d="m71.451 336.694c0-95.714 45.602-336.694 101.855-336.694-95.714 0-173.306 240.98-173.306 336.694s77.592 173.306 173.306 173.306c-56.253 0-101.855-77.592-101.855-173.306z"/></g><path d="m173.306 0c21.139 0 40.773 34.031 57.049 81.594 46.002 79.007 76.236 195.354 76.236 255.1s-30.234 112.429-76.236 143.588c-16.276 18.759-35.91 29.718-57.049 29.718 95.714 0 173.306-77.592 173.306-173.306s-77.592-336.694-173.306-336.694z" fill="url(#SVGID_18_)"/><g><path d="m187.404 25.218c-4.436-15.817-9.175-25.218-14.098-25.218-2.825 0-5.589 3.103-8.271 8.728 7.644 4.178 15.112 9.75 22.369 16.49z" fill="url(#SVGID_19_)"/><path d="m165.035 507.088c2.682 1.906 5.445 2.912 8.271 2.912 4.924 0 9.662-3.037 14.098-8.63-7.257 2.384-14.724 4.302-22.369 5.718z" fill="url(#SVGID_20_)"/></g></g></g></svg>